<svg viewBox="0 0 1040 560" preserveAspectRatio="none" xmlns="http://www.w3.org/2000/svg"><path d="M1040 13.246v1.923c-.19.218-.509.244-.547.678a2291.62 2291.62 0 0 0-1.45 16.747c-.345 4.089-.538 8.488-1.051 12.202-.455 3.3-1.294 5.736-1.895 8.765-.463 2.338-.721 5.413-1.248 7.421-.895 3.405 2.005 7.283 2.008 11.992.026 37.009.021 74.017.013 111.02-.001 5.932 3.498 12.241 2.14 16.93-.08.276-.116.856-.128 1.31-.22 7.784-1.305 13.77-2.54 19.486-.354 1.64-.778 3.391-.907 5.367-.394 5.999-.682 12.11-.966 18.208-.18 3.865 1.345 7.823 1.155 11.682a544.58 544.58 0 0 1-.802 13.13c-.207 2.806-.52 5.512-.834 8.173-.972 8.251.42 15.053.328 24.925-.01 1.12-.193 2.713-.42 3.22-.786 1.771-.805 4.563-.76 7.487.038 2.529.191 5.044.183 7.566-.044 13.263 3.087 26.532 2.947 39.775-.048 4.366-.366 8.719-.629 13.012-.306 4.992-.72 9.878-1.029 14.87-.346 5.584-2.215 11.227-2.517 16.851-.182 3.378-.348 6.77-.512 10.16-.151 3.149-.475 6.388-.39 9.444.095 3.444.612 6.67.856 10.095.362 5.084.608 10.293.973 15.37.3 4.149.632 8.31 1.085 12.215.323 2.786-2.066 4.946-1.892 7.77.336 5.486.39 11.248.566 16.892.035 1.1.073 2.212.14 3.286.185 2.976.575 5.966.544 8.89-.076 7.31.187 14.448-.564 21.948-1.047 10.45-1.723 13.684-4.6 13.829-4.08.21-8.157.678-12.236.902-7.226.408-17.615.665-24.841 1.093-2.46.145-8.081.665-10.541.929-3.339.355-6.68.474-10.018 1-1.477.231-2.941 1.522-4.417 1.779-4.672.816-9.344 1.719-14.02 1.942-6.787.323-13.58-.19-20.367.158-7.456.389-14.91 1.31-22.364 2.108-1.49.158-3.002.25-4.459 1.323-4.292 3.161-8.6 4.459-12.97 4.327-6.862-.204-13.726.448-20.589.85-3.225.19-6.45.724-9.675.96-5.083.363-10.167.547-15.251.93-2.338.177-4.674.612-7.01 1-.317.053-.628.494-.942.77-1.123.995-2.244 2.82-3.37 2.872-11.433.533-22.866.869-34.298 1.08-8.273.151-16.544.085-24.816.02-7.59-.053-15.18-.191-22.77-.382-4.402-.112-8.805-.527-13.208-.593-25.534-.382-51.066-7.007-76.598-7.303-6.83-.08-13.661.013-20.49.099-32.492.415-64.982.704-97.473 1.376-10.06.21-20.118 1.771-30.177 2.186-7.394.31-14.79-.217-22.183-.395-12.002-.296-24.004-.612-36.004-.915-12.406-.316-24.812-.731-37.219-.902-16.644-.23-33.288-.336-49.932-.363-9.532-.02-19.065.191-28.598.356-5.972.105-11.943.487-17.915.428-5.612-.06-11.222-.606-16.834-.79-4.03-.138-8.06-.033-12.09-.033-4.97 0-9.943-.066-14.913.02-10.988.19-21.974.52-32.961.652-2.903.04-5.806-.586-8.71-.626-7.462-.092-14.926-.072-22.388-.02-12.002.08-24.004.303-36.006.303-11.396 0-22.793-.171-34.19-.336-20.684-.31-41.37-.526-62.056-1.12-4.226-.118-10.032-1.718-14.256-2.64-5.953-1.297-11.903-2.805-17.86-3.813-4.149-.704-19.381-.691-23.535-1.053-3.145-.283-6.293-.52-9.435-1.093-.643-.119-1.474-.876-1.875-2.601-2.233-9.654-4.024-20.48-5.067-33.065-.43-5.169-.796-10.49-1.395-15.343-.666-5.4 1.501-10.194 1.621-16.72.01-.533-.108-1.185-.204-1.66-.686-3.417-1.358-13.163-2.083-16.449-.437-1.969-1.066-3.358-1.43-5.485-1.526-8.943 1.752-18.044.276-27.118-.724-4.465-1.582-8.739-2.08-13.579-.556-5.406.81-11.372.442-17.082-.282-4.366-.584-8.705-.857-13.078-.151-2.423-.245-4.906-.39-7.336-.264-4.36-.525-8.719-.825-13.038-.187-2.667-.443-5.255-.778-9.147-.013-.257-.091-1.778-.173-3.293-.048-.895-.16-1.81-.139-2.68.096-3.852.257-7.685.337-11.544.045-2.206-.02-4.445-.033-6.67-.042-6.382 1.818-12.486 1.308-19.19-.758-9.904-.05-20.098.207-30.89.06-2.543.086-5.177-.02-7.673-.085-2.048-.37-3.997-.605-5.913-.166-1.363-.394-2.608-.602-3.892-.55-3.43-1.132-6.79-1.65-10.299-.302-2.048-.709-4.307-.72-6.5-.069-13.13-.005-26.268-.04-39.405-.1-36.72 1.908-77.751 1.131-115.017C1.422 78.44 0 68.456 0 58.526c0-11.853-.018-23.713.034-35.56.039-8.85.259-9.904 1.747-9.957 10.662-.368 21.323-.955 31.985-1.007 29.38-.139 58.76 0 88.14-.08 6.945-.019 13.888-.559 20.834-.631 3.712-.04 7.424.605 11.136.619 22.064.085 44.13.144 66.196.072 13.33-.04 26.663-.356 39.996-.507 6.052-.072 12.102-.007 18.153-.08 5.693-.065 11.386-.394 17.078-.322 11.553.145 23.107.639 34.661.685 6.987.026 13.972-.593 20.959-.79 1.734-.053 3.47.606 5.205.56 3.27-.093 6.54-.745 9.81-.665 8.92.23 17.84.744 26.76 1.08 2.02.072 4.04-.205 6.06-.198 12.483.053 24.965.204 37.449.19 10.705-.012 21.412-.144 32.117-.322 9.408-.158 18.817-.474 28.227-.678 3.024-.066 6.05 6.269 9.075 6.269l-.157-1.607c.464-1.192.917-3.325 1.394-3.41 2.778-.495 5.56-.501 8.34-.686 3.954-.257 7.91-.665 11.865-.737 2.284-.046 4.568.678 6.853.625 3.176-.079 6.352-.691 9.53-.81 2.097-.079 4.196.435 6.294.455 3.748.033 7.495-.191 11.243-.152 3.828.046 7.656.362 11.483.395 1.855.02 3.71-.467 5.566-.507 2.56-.059 5.122.139 7.682.139 2.543.006 5.087-.172 7.63-.126 1.998.04 3.997.455 5.998.429 2.121-.027 4.243-.567 6.364-.534 2.648.033 5.296.6 7.946.613 2.69.02 5.384-.508 8.075-.527 3.305-.02 6.612.48 9.915.296 2.981-.171 5.96 5.242 8.941 4.827 5.162-.724 10.327-1.304 15.49-2.008a72.139 72.139 0 0 0 6.168-1.127c5.152-1.172 10.301-2.726 15.457-3.542 6.05-.955 12.107 5.018 18.16 4.359 5.527-.606 11.054-1.33 16.58-1.95 6.002-.677 12.006-1.178 18.009-1.988 3.257-.441 6.51-1.501 9.769-2.035 4.466-.73 8.934-1.27 13.404-1.797 3.305-.389 6.612-.554 9.915-.929 5.322-.6 10.642-1.403 15.963-1.89 3.11-.283 6.226.23 9.335-.224 4.173-.606 8.34-1.975 12.513-2.654 1.769-.29 3.549.52 5.323.547 4.426.053 8.853-.04 13.281-.105 1.002-.014 2.004-.257 3.006-.205 1.933.106 3.866.54 5.798.494 3.503-.079 7.006-.566 10.507-.592 2.656-.02 5.312.605 7.968.58 2.977-.02 5.953-.699 8.93-.66 4.672.066 9.343.653 14.015.699 2.938.033 5.877-.672 8.815-.751 4.963-.145 9.925-.132 14.888-.04 2.906.047 5.814.547 8.72.52 4.906-.052 9.812-.579 14.718-.506 7.55.118 15.1.658 22.651.836 2.053.046 4.11-.85 6.162-.81 6.323.132 12.647.586 18.968.77 4.955.145 9.91.007 14.864.106 14.784.283 29.568.494 44.352 1.02 4.11.145 5.076.442 9.148 2.292 2.085.955 4.622-.336 6.075 8.719.052.336.304.164.464.23" fill="#1D1D1B" fill-rule="evenodd"/></svg>