<svg viewBox="0 0 720 80" preserveAspectRatio="none" xmlns="http://www.w3.org/2000/svg"><path d="M0 78.108v-.275c.131-.031.352-.035.379-.097.351-.792.678-1.593 1.004-2.392.238-.585.372-1.213.727-1.743.315-.472.896-.82 1.312-1.253.32-.334.5-.773.864-1.06.62-.486-1.388-1.04-1.39-1.713-.018-5.287-.015-10.574-.01-15.86.002-.847-2.421-1.749-1.48-2.418.055-.04.08-.123.088-.188.153-1.112.904-1.967 1.758-2.783.245-.235.54-.485.629-.767.272-.857.471-1.73.668-2.601.125-.552-.931-1.118-.8-1.669.152-.63.335-1.259.556-1.876.143-.4.36-.787.577-1.167.673-1.179-.29-2.15-.227-3.561.008-.16.133-.388.29-.46.545-.253.558-.652.527-1.07-.026-.36-.132-.72-.127-1.08.031-1.895-2.137-3.79-2.04-5.683.033-.623.253-1.245.435-1.858.212-.714.498-1.412.713-2.125.24-.797 1.534-1.604 1.742-2.407.126-.483.241-.967.355-1.452.105-.45.329-.912.27-1.349-.066-.492-.424-.953-.593-1.442-.25-.726-.42-1.47-.673-2.195-.208-.593-.438-1.188-.751-1.745-.224-.398 1.43-.707 1.31-1.11-.233-.784-.271-1.607-.392-2.414a3.425 3.425 0 0 0-.098-.469c-.128-.425-.397-.852-.376-1.27.053-1.044-.13-2.064.39-3.135.725-1.493 1.193-1.955 3.186-1.976 2.823-.03 5.646-.097 8.47-.129 5.003-.058 12.195-.095 17.198-.156 1.703-.02 5.595-.095 7.298-.133 2.31-.05 4.625-.067 6.935-.143 1.022-.033 2.036-.217 3.058-.254 3.234-.116 6.469-.245 9.706-.277 4.699-.046 9.401.027 14.1-.023 5.162-.055 10.323-.187 15.483-.3 1.032-.023 2.079-.037 3.087-.19 2.972-.451 5.953-.637 8.98-.618 4.75.03 9.502-.064 14.253-.121 2.233-.028 4.465-.104 6.698-.138 3.52-.051 7.039-.078 10.559-.132 1.619-.026 3.235-.088 4.853-.143.219-.008.434-.07.652-.11.777-.142 1.554-.403 2.333-.41 7.915-.077 15.83-.125 23.745-.155 5.727-.021 11.453-.012 17.18-.003 5.255.008 10.51.028 15.764.055 3.048.016 6.096.075 9.144.085 17.677.054 35.353 1 53.03 1.043 4.728.011 9.457-.002 14.185-.014 22.494-.06 44.987-.1 67.48-.197C349.98.952 356.944.73 363.908.67c5.119-.044 10.238.03 15.357.056l24.926.131c8.589.045 17.177.104 25.767.129 11.523.033 23.045.048 34.568.052 6.6.002 13.2-.028 19.799-.051 4.135-.015 8.268-.07 12.403-.061 3.885.008 7.769.086 11.654.113 2.79.02 5.58.004 8.37.004 3.441 0 6.883.01 10.324-.003 7.607-.027 15.213-.074 22.82-.093 2.01-.005 4.02.084 6.03.09 5.165.013 10.333.01 15.499.003 8.309-.012 16.618-.044 24.927-.044 7.89 0 15.78.025 23.67.048 14.32.044 28.64.075 42.962.16 2.925.017 6.945.246 9.87.377 4.121.186 8.24.401 12.364.545 2.872.1 13.418.099 16.293.15 2.178.041 4.357.075 6.533.157.445.017 1.02.125 1.297.371 1.546 1.38 2.786 2.926 3.509 4.724.297.738.55 1.498.965 2.192.462.771-1.04 1.456-1.122 2.388-.007.076.075.17.141.237.475.489.94 1.88 1.443 2.35.302.282.737.48.99.784 1.056 1.277-1.214 2.578-.192 3.874.501.638 1.096 1.248 1.44 1.94.385.772-.56 1.624-.306 2.44.196.624.404 1.244.593 1.868.105.346.17.701.27 1.048.183.623.364 1.246.572 1.863.129.38.307.75.539 1.307.008.036.063.254.119.47.033.128.11.259.096.383-.066.55-.178 1.098-.233 1.649-.031.315.014.635.023.953.029.911-1.259 1.784-.905 2.741.524 1.415.034 2.871-.144 4.413-.042.363-.06.74.013 1.096.06.293.256.571.42.845.115.195.273.372.416.556.381.49.784.97 1.142 1.471.21.293.492.615.5.929.047 1.876.003 3.752.027 5.63.07 5.245-1.32 11.106-.783 16.43.142 1.41 1.127 2.835 1.127 4.254 0 1.693.013 3.388-.024 5.08-.026 1.264-.179 1.415-1.21 1.422-7.38.053-14.76.137-22.142.144-20.34.02-40.68 0-61.02.012-4.808.002-9.616.08-14.424.09-2.57.006-5.14-.087-7.71-.088-15.275-.013-30.551-.021-45.828-.01-9.229.005-18.459.05-27.689.072-4.19.01-8.379 0-12.567.01-3.942.01-7.883.057-11.823.047-8-.02-15.998-.091-23.997-.098-4.837-.004-9.673.085-14.51.113-1.2.008-2.402-.086-3.603-.08-2.264.013-4.528.106-6.792.095-6.176-.033-12.351-.106-18.527-.154-1.398-.01-2.796.029-4.194.028-8.643-.007-17.284-.03-25.927-.027-7.411.002-14.823.02-22.235.046-6.513.022-13.027.068-19.541.097-2.094.01-4.189-.896-6.283-.896l.109.23c-.322.17-.635.475-.966.487-1.922.07-3.848.072-5.773.098-2.738.037-5.477.095-8.214.105-1.582.007-3.163-.097-4.745-.09-2.198.012-4.397.1-6.597.117-1.452.01-2.906-.063-4.358-.065-2.595-.005-5.19.027-7.783.021-2.65-.006-5.301-.051-7.95-.056-1.285-.003-2.57.067-3.853.072-1.773.009-3.547-.02-5.319-.02-1.76 0-3.522.025-5.282.018-1.384-.005-2.768-.064-4.152-.06-1.47.003-2.938.08-4.407.075-1.833-.004-3.666-.085-5.5-.087-1.864-.003-3.728.072-5.59.075-2.289.003-4.578-.068-6.865-.042-2.064.024-4.126-.749-6.19-.69-3.574.104-7.15.187-10.725.287a230.8 230.8 0 0 0-4.269.161c-3.567.168-7.132.39-10.701.506-4.189.137-8.382-.717-12.573-.623-3.826.087-7.652.19-11.478.279-4.155.097-8.312.168-12.468.284-2.255.063-4.507.215-6.763.29a983.38 983.38 0 0 1-9.28.258c-2.288.055-4.577.079-6.864.132-3.684.086-7.367.2-11.051.27-2.154.04-4.31-.033-6.463.032-2.889.087-5.774.282-8.663.38-1.224.04-2.457-.075-3.685-.079-3.064-.007-6.129.006-9.195.015-.693.002-1.387.037-2.08.03-1.339-.016-2.677-.078-4.014-.071-2.426.011-4.85.08-7.275.085-1.839.002-3.677-.087-5.516-.083-2.06.003-4.121.1-6.182.094-3.235-.01-6.468-.093-9.703-.1-2.034-.005-4.068.096-6.103.107-3.435.021-6.87.02-10.306.006-2.013-.007-4.026-.078-6.038-.074-3.396.007-6.793.082-10.189.072-5.226-.017-10.453-.094-15.681-.12-1.422-.006-2.845.122-4.266.116-4.378-.018-8.756-.083-13.132-.11-3.43-.02-6.86 0-10.29-.015-10.236-.04-20.47-.07-30.706-.146-2.845-.02-3.514-.063-6.333-.327-1.444-.136-3.2.048-4.206-1.245-.036-.048-.21-.024-.321-.033" fill-rule="evenodd"/></svg>