<svg viewBox="0 0 1920 938" xmlns="http://www.w3.org/2000/svg"><path d="M2015.98 131.28c-.586-3.99-1.347-6.41-1.446-8.308-.125-1.895-.262-3.268-.811-5.152-2.27-2.247-2.744-1.961-2.345-.415.2.774.624 1.867 1.148 3.121.374 1.254.785 2.676 1.197 4.1 1.995 5.702 2.282 11.498-.923 7.374 1.559-3.584 0-11.17-4.178-19.9 3.18-4.312 3.68-8.951 2.445-13.344-1.297-4.577-3.842-8.93-5.288-12.797-1.522-3.87-1.834-7.283-.886-9.962.412-1.345 1.185-2.498 2.033-3.438.723-.892 1.82-1.836 2.631-2.386 1.472-3.163 1.285-4.664 1.036-5.124-.275-.474-.786.018-1.31.502-.511.487-1.11.954-1.334.494-.4-.473.224-1.832-.948-5.273.125-1.24-.1-2.526-.836-3.832-.985-.55-2.307-1.16-3.33-1.613a9.187 9.187 0 0 1-2.145-.874c-1.022-1.616-1.135-3.358-1.11-4.8.038-1.46.3-2.713.599-3.734.624-2.04 1.484-3.152 2.295-3.305.112 1.978 1.11 5.531 1.67 7.478.05-2.462.1-5.559-.448-8.927-.736-3.407-1.272-6.935-5.936-10.962-1.26-1.007-2.906-2.107-6.049-3.313-1.559-.592-3.567-1.23-6.41-1.804-1.634-.345-2.145-.4-2.956-.54l-2.27-.365c-5.861-.878-10.887-1.456-15.34-1.965-6.335-.71-11.311-1.237-14.74-1.627 5.512.655 11.149 1.317 17.01 2.076 3.505.453 7.109.951 10.838 1.543.948.154 1.858.29 2.843.47l1.46.262c.498.09.847.14 1.833.352.96.198 1.609.404 2.382.61.075.017.162.03.237.048.062.02.124.042.2.063 1.82.501 3.379 1.02 4.489 1.501-1.11-.48-2.644-.993-4.49-1.501-.137-.039-.3-.077-.436-.112-1.06-.25-2.17-.494-3.305-.717l-2.183-.366c-2.856-.474-5.537-.836-8.23-1.198-5.338-.69-10.514-1.268-15.652-1.829-9.055-.996-18.433-1.944-25.99-2.96-3.592-1.331-7.883-2.644-12.946-3.735-6.061-1.358-12.895-2.39-19.804-3.194-13.332-1.522-26.801-2.173-39.672-2.644-20.902-2.243-42.552-3.782-64.227-4.768-22.4-.902-44.785-1.505-66.672-1.616-43.837-.373-85.803.362-124.165 1.226l9.203.264c-45.695 1.018-63.903 1.178-83.246 1.199-9.665.014-19.605.01-33.274-.025-6.859.025-14.566-.073-23.708-.108-9.116-.038-20.079-.167-32.687-.174l3.654-.07c-20.291.272-47.291.45-74.903.603 25.454-.68-48.165-.484-14.766-1.292-49.886.905-62.07 1.393-70.102 1.748-8.006.394-11.81.746-44.348 2.188l-15.277-.307c-6.348.331-11.038.575-15.727.822l1.272-.003c-11.61.077-22.847.035-58.54-.589 41.18.296-31.752-1.658 14.516-1.438-104.846-3.536-156.528-1.439-204.418-4.17-24.369.578-1.621 1.136 23.808 1.55 25.417.436 53.515.822 39.92.788 22.5.957-40.17.672-73.131.104-16.837-.25-31.03-1.035-51.632-1.804-20.59-.78-47.578-1.683-89.98-1.937 8.417.07 9.004-.063 17.422.007-15.839-.348-31.403-.307-47.853-.307-16.462.046-33.797.067-53.24-.386-21.863.965-50.584-.133-56.92 1.243l38.899-.142 38.898-.007c-22.05.09-43.425.487-68.33.867-12.46.174-25.804.31-40.558.352-14.766.073-30.941.104-49.1-.035 5.638-.303 27.213-.749 42.079-1.01-21.314-.338-40.919.418-62.956.073 3.08-.71 26.727-.87 55.498-1.007 28.772-.104 62.656-.042 86.34-.56-22.886-.624-89.483.975-65.725-.537-34.097 1.978-83.67-.045-141.014 1.937l3.692-.864c-9.092.174-27.849.78-44.573.975L492.802.606c-23.172.728-45.608.808-67.857.819-22.237.066-44.26.16-66.497.776 93.398-1.591 21.188.655 60.773.603-57.394 1.522-74.043 1.23-92.476 1.028-17.983-.196-37.863-.638-98.61 1.201 19.791-.543 59.188-1.038 34.12-.007-24.543.52-57.043.962-72.158 1.077-85.043 2.915 13.406.432-22.574 2.11-14.69-.03-25.092.387-36.416 1.052-11.312.704-23.57 1.617-42.078 2.484l-.649-.836c-48.277 1.449-55.485 2.63-60.2 3.323-2.481.39-4.639.735-11.71 1.421-3.53.366-8.293.801-14.828 1.55-6.51.749-14.954 1.766-24.83 3.703 9.939-2.592 21.961-4.525 34.158-6.04-15.477 1.515-31.253 3.689-43.787 7.11a62.781 62.781 0 0 1 6.074-2.666c-10.838 2.428-18.196 5.065-23.172 7.517-5.038 2.46-8.131 4.737-10.55 6.963-4.553 4.309-6.723 8.52-8.22 14.233-.399.372-.872.804-1.384 1.285 2.57-1.435 3.53-.899 2.482 1.4-1.085 2.303-3.779 6.388-7.283 12.164-3.33 3.897-3.28 2.776-3.792 2.717-.212-.028-.498.215-1.21 1.494-.748 1.278-1.87 3.598-3.23 7.722-.548-3.762-1.708-7.994 6.037-15.04-.474-.774.561-3.755.324-4.57-4.54 4.21-8.069 9.627-10.127 14.72-2.145 5.092-2.83 9.85-3.579 12.842.686-2.302 1.559-5.071 2.52-6.471-1.16 8.039-.562 15.994.174 23.898-1.484 3.72-2.245.77-2.881-2.177-.125 4.8 1.16 8.14.81 15.152-2.444-1.85-5.125-1.393-5.55-11.383l.836 22.512c-1.26 1.49-4.177 11.554-4.851 8.617-2.444 12.54 3.33 30.722 1.908 47.31.524.86 1.035 2.59 1.484 6.12.088 15.566-2.27 29.387 3.205 47.817l-3.541 10.498c2.73 14.435 4.202-14.208 8.742 9.823 3.567 17.012-3.155 6.392-3.717 12.362 3.405 8.457 10.177 23.118 8.593 38.768-1.596-5.169-1.496-9.216-2.506-14.061l-.898 11.933c-6.261-14.326-6.186-24.734-8.281-13.522 9.154 1.596 7.408 46.268 16.5 47.821l-.836 7.862c-.212-2.243-.786-2.598-1.01-4.824-2.308 15.298 8.031 11.268 9.016 30.927.063 6.87-.71 11.648-2.282 6.995l3.667 15.193c.187 3.602-.873 3.564-1.397 1.073l.449 3.678c.212 1.934.037 3.87.075 5.804l-.075 11.613-.25-.182c1.322 3.327 3.156 10.858 3.854 14.532-1.609 5.908-.798-2.978-1.995-1.459l1.496 12.895c-2.606 5.253-4.302-5.444-3.492-14.344-9.64 12.007 1.833 10.693-5.138 36.668l-.337-12.184c-5.612 7.837-4.327 17.339-8.568 31.08 1.958-3.257 9.953-27.503 11.237-13.515-.96 3.96-1.671 9.147-.436 16.702-3.193.067-2.944 7.434-3.517 16.657l-4.166-.648c.412 9.99 2.632 9.2 4.053 15.083-1.334 11.129-4.789 13.407-7.77 16.009-2.157 17.802 6.261-12.265 5.314 8.816-2.844 14.793-1.97 25.218-.824 42.948-2.232 10.355-2.456-1.826-3.928 1.877l2.706 9.22c-.237 2.243-1.222 1.519-1.72 1.153.76 7.736 4.177.659 4.451 12.825 4.478 3.32-8.43 24.982-3.74 40.078-1.36 3.713-2.508-1.794-4.191-.661 2.569 20.686 1.858 17.736 6.06 34.717l-2.905 14.47c3.355-10.618 6.697 2.97 10.064 14.852.212-.55.424-1.087.636-1.617.013 1.373.038 2.742.063 4.11-.237-.815-.462-1.644-.699-2.493-.274.693-.56 1.424-.835 2.145.536.962 1.06 1.878 1.559 2.759.05 3.142.062 6.287.137 9.429-1.26 0-2.744-2.42-4.203-5.354.836-2.299 1.684-4.601 2.507-6.834-2.644-4.692-5.538-9.07-8.007-8.098.511 1.23.96 3.615 1.235 6.235-.711-1.233-1.347-2.024-1.759-1.456-.436.655.524 2.633 1.647 5.74l-4.64 4.316 1.883 1.052c-.935 8.283-1.359 16.57-2.057 24.856 2.756 8.879 6.46 17.134 9.677 26.734 1.846 9.575 4.029 20.55 6.012 34.623-3.891-6.98-5.75-1.487-9.853-1.843 1.908-3.863 1.173-9.324.15-15.664-.474-3.173-.998-6.566-1.222-10.09-.113-1.756-.075-3.515-.025-5.306-.075-1.797-.162-3.612-.237-5.433.075 3.807-.474 5.29-1.21 5.576-.686.29-1.135-.602-1.584-1.57.35 2.162.337 4.301.586 6.471l.799 6.562 2.282 13.076c-3.38-.585-2.245 5.55-3.155 12.359 6.198-5.166 5.986 19.408 7.894 29.96-2.257.661-4.303-1.868-4.427-14.777-2.12 7.137-.05 11.721 1.983 16.284 1.995 4.556 4.078 9.109 1.11 16.058.374-3.135.773-4.856-.262-6.089.411 1.84.449 4.34.174 6.984-.075 1.327-.312 2.686-.598 4.016-.15.666-.3 1.324-.437 1.968l-.224.955c-.063.352-.113.7-.163 1.041-.399 4.981-.96 8.402-2.07 6.287l-.187-3.159c.087 2.846.187 6.092.3 9.593.137 1.756.286 3.57.436 5.434l.224 1.477.038.198c.037.296.511.927 1.31 1.338.336.205.985.477 1.246.568l.25.083.511.164 2.108.634c1.659.477 3.417.92 5.225 1.34.2.948.562 1.986 1.135 2.923.91 1.446 2.258 2.843 3.829 4.211 3.292 2.714 7.62 5.264 12.521 7.629 4.889 2.379 10.277 4.556 15.939 6.604 6.148 2.236 13.83 3.988 21.475 5.29 15.49 2.62 30.555 3.536 41.443 4.038 11.012.456 18.333.428 20.615.24.76.237-11.386 1.428-16.737 1.418 25.155.477 48.75-.33 72.122-.892l26.614-.668c14.679.156 29.358.317 44.037.473 5.375 1.442 14.03 3.166-31.116 3.184 18.62.387 41.679.85 81.113.818-12.708-.32-31.403-2.204-13.98-2.131 47.528 1.943 33.024 1.121 91.714 2.978-19.068-.48 2.495-2.271 32.638-1.881-4.714.247 2.207 2.017-8.867 2.11l71.985-1.12c-13.145.31 1.035 1.643 16.537 2.33-7.708-.47 64.938.738 84.955.755l-31.715-.8c84.743 1.211 84.244-1.885 168.376-.879-10.264.303-25.629 2.25 17.248 2.965 10.588-.45 35.007-1.516 66.734-2.484 31.49.3 62.88.533 94.134.669-5.126.143-10.326.289-15.602.428-36.329.986-75.065 1.731-102.427 2.094 31.69.763 8.73.77 56.358 1.15 16.762.696-26.028.591-40.083.497 36.903.484 73.968.847 111.02 1.115-2.457-.603 18.795-.833 40.108-1.042 21.326-.23 42.715-.48 40.62-.968-20.08.195-40.17.383-60.275.509-20.091.16-40.207.278-60.324.348-4.801-1.209 69.877-2.902 148.322-2.78 19.98.453-14.928 2.136-13.282 2.512 10.177-.397 74.542-.843 81.75-.596l-33.261.7c43.75.376 71.249-1.734 123.853-.783 18.096.003 54.15 1.313 57.281.599-17.734-.739-26.925-2.53-27.287-4.08 20.615-.083 41.243-.163 61.858-.243l-2.594.477 11.935-.059-.474-.453c21.027-.08 42.053-.157 63.105-.22 6.46.983-48.14 2.397-25.816 3.122 1.01-.328 17.473-.784 24.357-.937 19.031.223-7.832 1.02 33.448.77 6.91-1.244 84.02-.035 19.543-1.063 40.407-.383 42.901.146 90.342.143-9.977-.533 11.91-1.505 39.597-2.153 17.335.042 34.695.105 52.093.192.948.045 1.87.09 2.619.129 41.43.257 73.257.724 104.323 1.194 30.991.586 61.234 1.571 99.82 2.39 6.972.474 44.2 1.49 28.199 1.717 11.162-.017 21.525-.233 45.47-.031 23.135.669 9.765.658-5.013.582-14.754-.08-30.904-.234-13.357.63 1.584-.334 17.136-.345 36.603-.48 19.456-.13 42.84-.467 59.863-1.08-5.438-.398-25.092-.098-47.74.041-22.648.147-48.29.171-65.4.105.062-.523 7.383-.906 20.054-1.247 83.084 1.02 166.991-.199 204.343-10.488 5.313-.603 3.58-4.946 2.47-8.896a28.29 28.29 0 0 1-.312-3.31c.124-.895.087-1.915 1.658-2.779.973-.38 2.32-.867 2.732-1.41.536-.551.286-1.126-.1-1.683-.973-1.111-2.918-2.16-4.465-3.257-1.584-1.08-2.744-2.274-1.796-3.441 5.687-2.031 8.269-4.685 9.092-7.357.885-2.71.71-5.482 1.958-8.29.923-5.897-14.28-11.101-12.584-16.716l-.012.028c3.155-4.493 4.028-8.924 5.05-13.097.824-4.176 1.61-8.098 2.308-11.61-.561-3.134-1.123-7.833-1.983-9.077.873-13.466 1.634-26.664 5.65-31.7 1.446-1.815 2.73-3.63 3.94-5.445 2.794-3.462 4.552-6.973 6.722-10.47l-2.382 3.326a72.979 72.979 0 0 1-3.068 5.197c9.33-15.086 10.9-30.193 10.165-45.338.486.276.972.29 1.459-.066-.624-3.504-1.447-7.008-2.27-10.509-.05-.56-.112-1.121-.175-1.682.799.421 2.208 3.87 2.507.742-.91-.272-1.97-1.895-2.88-4.305-.662-5.985-1.385-11.972-1.834-17.974.05-.32.1-.648.162-.965-.087-.338-.187-.61-.287-.909-.312-4.828-.411-9.659-.15-14.5.15-.516.325-1.216.5-2.177-.188-1.08-.05-2.233-.025-3.355.673-5.726 1.945-11.463 4.14-17.21 13.531-35.442 14.99-71.082 12.521-106.73 9.454-28.249 16.088-91.835 17.984-120.202 4.477-66.645 2.843-62.667-27.175-128.841-4.04-8.9-.973-17.52 3.43-26.079 5.063-4.587 10.675-9.443 13.045-8.614.461-6.312 7.42-14.462 7.956-24.052.225-2.406-.411-4.834-1.11-7.3a60.534 60.534 0 0 0-1.222-7.232c-.81-4.914-2.195-9.99-4.153-15.078 1.185-4.511 2.133 3.817 3.53 1.42-2.881-5.151-3.393-11.407-.537-22.985l.5 1.317c2.094-16.281 5.661-27.94 8.355-40.145 1.36-6.106 2.719-12.348 3.367-19.401.91-7.047.686-14.912-1.01-24.23-.698.941-1.621 1.882-2.482 2.815Z" fill="#FEFEFE" fill-rule="evenodd"/></svg>