<svg viewBox="0 0 340 100" xmlns="http://www.w3.org/2000/svg"><defs><linearGradient x1=".003%" y1="50.008%" x2="100.013%" y2="50.008%" id="a"><stop stop-color="#003F84" offset="0%"/><stop stop-color="#A7AED0" offset="24.18%"/><stop stop-color="#F2F2F9" offset="50%"/><stop stop-color="#A7AED0" offset="74.73%"/><stop stop-color="#003F84" offset="100%"/></linearGradient><linearGradient x1=".003%" y1="49.998%" x2="100.013%" y2="49.998%" id="b"><stop stop-color="#003F84" offset="0%"/><stop stop-color="#6579AE" offset="24.18%"/><stop stop-color="#C8CAE3" offset="50%"/><stop stop-color="#6579AE" offset="74.73%"/><stop stop-color="#003F84" offset="100%"/></linearGradient></defs><g fill="none" fill-rule="evenodd"><rect fill="#FFF" width="340" height="100" rx="50"/><g fill-rule="nonzero"><path fill="#122372" d="M86.957 85 35 59.663l51.957-18.896 51.956 18.896z"/><path fill="url(#a)" opacity=".5" d="M51.957 58.963 0 33.583l51.957-18.896 51.956 18.896z" transform="translate(35 15)"/><path fill="url(#b)" opacity=".4" d="M51.957 47.883 0 22.546 51.957 3.65l51.956 18.896z" transform="translate(35 15)"/><path d="M167.86 23.933h1.473v12.11h-1.473v-12.11Zm4.767 3.435h1.43v1.288c.78-.73 1.863-1.46 3.25-1.46 1.646 0 2.556.945 2.556 2.577V36h-1.43v-5.926c0-1.16-.476-1.675-1.603-1.675-1.04 0-1.907.558-2.817 1.374V36h-1.43v-8.632h.044Zm10.183-3.22h1.473v1.373h-1.473v-1.374Zm.043 3.22h1.43V36h-1.43v-8.632Zm5.07 6.57v-5.367h-1.516v-1.16h1.516v-3.092h1.43v3.092h2.254v1.16h-2.254v5.067c0 .902.304 1.374 1.344 1.374.303 0 .65-.043.91-.129v1.16c-.26.043-.78.086-1.257.086-1.863 0-2.427-.687-2.427-2.19Zm6.067-9.79h1.473v1.373h-1.473v-1.374Zm.043 3.22h1.43V36h-1.43v-8.632Zm3.9 6.614c0-1.761 1.517-3.007 5.807-3.608v-.386c0-1.074-.563-1.59-1.647-1.59-1.3 0-2.296.56-3.163 1.29l-.737-.903c.997-.902 2.297-1.589 4.03-1.589 2.08 0 2.904 1.074 2.904 2.878v3.822c0 1.03.086 1.675.26 2.104h-1.474a3.146 3.146 0 0 1-.216-1.202c-.954.901-2.08 1.33-3.38 1.33-1.43 0-2.384-.772-2.384-2.146Zm5.807-.215v-2.405c-3.337.515-4.42 1.331-4.42 2.405 0 .816.563 1.288 1.473 1.288 1.17 0 2.167-.472 2.947-1.288Zm4.897.172V28.57h-1.517v-1.16h1.517v-3.092h1.43v3.092h2.253v1.16h-2.253v5.067c0 .902.303 1.374 1.343 1.374.303 0 .65-.043.91-.129v1.16c-.26.043-.78.086-1.257.086-1.863 0-2.426-.687-2.426-2.19Zm6.066-9.792h1.474v1.374h-1.474v-1.374Zm0 3.221h1.43V36h-1.43v-8.632Zm3.554 0h1.516l2.427 7h.043l2.427-7h1.43l-3.163 8.675h-1.43l-3.25-8.675Zm8.926 4.338c0-3.135 2.124-4.51 3.944-4.51 2.08 0 3.64 1.46 3.64 4.552v.301h-6.154c.044 1.933 1.17 3.006 2.644 3.006 1.256 0 1.95-.515 2.643-1.417l.823.73c-.823 1.16-1.906 1.847-3.553 1.847-2.123 0-3.987-1.503-3.987-4.51Zm6.197-.73c-.13-1.547-.867-2.577-2.297-2.577-1.17 0-2.296.816-2.47 2.576h4.767Z" fill="#D2003C"/><path d="M170.59 43.387h-3.857v-1.332h9.23v1.332h-3.9v10.779h-1.473v-10.78Zm5.373 2.147h1.43v1.589h.044c.65-.988 1.646-1.761 3.38-1.761h.173l-.087 1.288h-.433c-1.387 0-2.427.73-3.077 1.933v5.583h-1.43v-8.632Zm6.154 6.613c0-1.76 1.516-3.006 5.806-3.607v-.387c0-1.073-.563-1.589-1.646-1.589-1.3 0-2.297.559-3.164 1.289l-.736-.902c.996-.902 2.296-1.589 4.03-1.589 2.08 0 2.903 1.074 2.903 2.877v3.822c0 1.031.087 1.675.26 2.105h-1.473a3.146 3.146 0 0 1-.217-1.203c-.953.902-2.08 1.331-3.38 1.331-1.43 0-2.383-.773-2.383-2.147Zm5.85-.214v-2.405c-3.337.515-4.42 1.33-4.42 2.405 0 .815.563 1.288 1.473 1.288 1.127-.043 2.123-.515 2.947-1.288Zm4.203-6.4h1.43v1.29c.78-.731 1.863-1.461 3.25-1.461 1.647 0 2.557.945 2.557 2.577v6.227h-1.43v-5.927c0-1.16-.477-1.675-1.604-1.675-1.04 0-1.906.559-2.816 1.375v6.227h-1.43v-8.632h.043Zm9.49 7.344.867-.859c.65.688 1.516 1.203 2.73 1.203 1.343 0 2.08-.473 2.08-1.374 0-.86-.78-1.203-2.254-1.546-1.863-.43-3.12-.945-3.12-2.62 0-1.288 1.17-2.362 3.034-2.362 1.516 0 2.513.472 3.336 1.245l-.736.945c-.65-.601-1.56-1.03-2.514-1.03-1.256 0-1.776.558-1.776 1.159 0 .816.693 1.117 2.08 1.417 1.95.473 3.293.945 3.293 2.749 0 1.632-1.517 2.533-3.467 2.533-1.56 0-2.816-.644-3.553-1.46Zm9.49-7.343h1.43v1.202c.65-.73 1.56-1.374 2.86-1.374 1.993 0 3.553 1.46 3.553 4.466 0 3.006-1.56 4.466-3.683 4.466-1.083 0-1.993-.472-2.73-1.245v4.38h-1.43V45.534Zm6.413 4.337c0-2.19-1.04-3.307-2.47-3.307-.996 0-1.82.559-2.556 1.332v3.95c.78.86 1.603 1.289 2.513 1.289 1.56.043 2.513-.988 2.513-3.264Zm3.207 2.276c0-1.76 1.517-3.006 5.807-3.607v-.387c0-1.073-.564-1.589-1.647-1.589-1.3 0-2.297.559-3.163 1.289l-.737-.902c.997-.902 2.297-1.589 4.03-1.589 2.08 0 2.903 1.074 2.903 2.877v3.822c0 1.031.087 1.675.26 2.105h-1.473a3.146 3.146 0 0 1-.217-1.203c-.953.902-2.08 1.331-3.38 1.331-1.43 0-2.383-.773-2.383-2.147Zm5.807-.214v-2.405c-3.337.515-4.42 1.33-4.42 2.405 0 .815.563 1.288 1.473 1.288 1.17-.043 2.167-.515 2.947-1.288Zm4.246-6.4h1.43v1.59h.044c.65-.988 1.646-1.761 3.38-1.761h.173l-.087 1.288h-.433c-1.387 0-2.427.73-3.077 1.933v5.583h-1.43v-8.632Zm6.067 4.338c0-3.135 2.123-4.509 3.943-4.509 2.08 0 3.64 1.46 3.64 4.552v.3h-6.153c.043 1.933 1.17 3.007 2.643 3.007 1.257 0 1.95-.515 2.644-1.417l.823.73c-.823 1.16-1.907 1.846-3.553 1.846-2.08-.043-3.987-1.503-3.987-4.509Zm6.24-.773c-.13-1.546-.867-2.577-2.297-2.577-1.17 0-2.296.816-2.47 2.577h4.767Zm3.77-3.564h1.43v1.288c.78-.73 1.863-1.46 3.25-1.46 1.647 0 2.557.945 2.557 2.577v6.227h-1.43v-5.927c0-1.16-.477-1.675-1.604-1.675-1.04 0-1.906.559-2.816 1.375v6.227h-1.43v-8.632h.043Zm10.747 6.527v-5.368h-1.517v-1.16h1.517v-3.091h1.43v3.092h2.253v1.16h-2.253v5.067c0 .902.303 1.374 1.343 1.374.303 0 .65-.043.91-.129v1.16c-.26.043-.78.086-1.257.086-1.82.042-2.426-.688-2.426-2.19Zm5.416-2.19c0-3.135 2.124-4.509 3.944-4.509 2.08 0 3.64 1.46 3.64 4.552v.3h-6.154c.044 1.933 1.17 3.007 2.644 3.007 1.256 0 1.95-.515 2.643-1.417l.823.73c-.823 1.16-1.906 1.846-3.553 1.846-2.123-.043-3.987-1.503-3.987-4.509Zm6.197-.773c-.13-1.546-.867-2.577-2.297-2.577-1.17 0-2.296.816-2.47 2.577h4.767ZM166.863 71.301l7.15-9.878h-6.673v-1.202h8.45v1.03l-7.107 9.878h7.107v1.202h-8.927v-1.03Zm11.44-10.822h1.474v1.374h-1.474v-1.374Zm.044 3.22h1.43v8.632h-1.43V63.7Zm3.51 0h1.516l2.427 7h.043l2.427-7h1.43l-3.163 8.675h-1.43l-3.25-8.675Zm9.88-3.22h1.473v1.374h-1.473v-1.374Zm.043 3.22h1.43v8.632h-1.43V63.7Zm4.55-3.478h1.43v12.11h-1.43v-12.11Zm3.467 13.27c0-.902.606-1.546 1.603-1.933-.477-.214-.737-.6-.737-1.116 0-.559.477-1.031 1.084-1.375-.824-.558-1.344-1.417-1.344-2.49 0-1.804 1.474-3.092 3.554-3.092 1.083 0 1.95.343 2.556.902.52-.387 1.344-.73 2.08-.816v1.245c-.476 0-1.04.086-1.56.258.26.386.434.901.434 1.503 0 1.846-1.474 3.092-3.51 3.092a4.69 4.69 0 0 1-1.387-.215c-.347.172-.607.386-.607.687 0 .344.26.515 1.214.601l1.776.13c2.21.128 3.337.858 3.337 2.232 0 1.632-1.733 2.491-4.247 2.491-2.99.043-4.246-.773-4.246-2.104Zm7.15-.215c0-.773-.564-1.116-2.427-1.245l-1.647-.13c-.173 0-.346-.042-.476-.042-.824.3-1.3.816-1.3 1.417 0 .859.91 1.288 3.076 1.288 1.734 0 2.774-.515 2.774-1.288Zm-.824-6.613c0-1.246-.78-2.062-2.21-2.062-1.343 0-2.21.816-2.21 2.062 0 1.245.867 2.018 2.21 2.018 1.387 0 2.21-.773 2.21-2.018Zm3.727 1.33c0-3.134 2.123-4.508 3.943-4.508 2.08 0 3.64 1.46 3.64 4.552v.3h-6.153c.043 1.933 1.17 3.007 2.643 3.007 1.257 0 1.95-.516 2.644-1.418l.823.73c-.823 1.16-1.907 1.847-3.553 1.847-2.124 0-3.987-1.503-3.987-4.51Zm6.197-.73c-.13-1.545-.867-2.576-2.297-2.576-1.17 0-2.297.816-2.47 2.577h4.767ZM219.08 71l.867-.859c.65.687 1.516 1.203 2.73 1.203 1.343 0 2.08-.473 2.08-1.375 0-.859-.78-1.202-2.254-1.546-1.863-.43-3.12-.944-3.12-2.62 0-1.288 1.17-2.361 3.034-2.361 1.516 0 2.513.472 3.336 1.245l-.736.945c-.65-.601-1.56-1.03-2.514-1.03-1.256 0-1.776.558-1.776 1.159 0 .816.693 1.116 2.08 1.417 1.95.472 3.336.945 3.336 2.748 0 1.632-1.516 2.534-3.466 2.534-1.604.043-2.904-.601-3.597-1.46Zm8.84-3.006c0-3.135 2.123-4.51 3.943-4.51 2.08 0 3.64 1.46 3.64 4.553v.3h-6.153c.043 1.933 1.17 3.007 2.643 3.007 1.257 0 1.95-.516 2.644-1.418l.823.73c-.823 1.16-1.907 1.847-3.553 1.847-2.124 0-3.987-1.503-3.987-4.51Zm6.197-.73c-.13-1.546-.867-2.577-2.297-2.577-1.17 0-2.297.816-2.47 2.577h4.767Zm3.9-7.043h1.43v12.11h-1.43v-12.11Zm4.55 0h1.43v12.11h-1.43v-12.11ZM246.38 71l.867-.859c.65.687 1.516 1.203 2.73 1.203 1.343 0 2.08-.473 2.08-1.375 0-.859-.78-1.202-2.254-1.546-1.863-.43-3.12-.944-3.12-2.62 0-1.288 1.17-2.361 3.034-2.361 1.516 0 2.513.472 3.336 1.245l-.736.945c-.65-.601-1.56-1.03-2.514-1.03-1.256 0-1.776.558-1.776 1.159 0 .816.693 1.116 2.08 1.417 1.95.472 3.336.945 3.336 2.748 0 1.632-1.516 2.534-3.466 2.534-1.604.043-2.904-.601-3.597-1.46Zm8.84-3.006c0-3.135 2.037-4.51 3.987-4.51 1.95 0 2.903 1.16 3.423 2.406l-1.213.472c-.434-1.117-1.127-1.718-2.254-1.718-1.256 0-2.513.86-2.513 3.307 0 2.104 1.04 3.307 2.47 3.307 1.127 0 1.777-.473 2.34-1.718l1.17.472c-.693 1.46-1.69 2.448-3.553 2.448-1.994.043-3.857-1.503-3.857-4.466Zm9.75-7.773h1.43v4.767c.78-.73 1.863-1.46 3.25-1.46 1.647 0 2.557.944 2.557 2.576v6.227h-1.43v-5.926c0-1.16-.477-1.675-1.604-1.675-1.04 0-1.906.558-2.816 1.374v6.227h-1.43l.043-12.11Zm9.577 10.049c0-1.76 1.516-3.006 5.806-3.607v-.387c0-1.074-.563-1.589-1.646-1.589-1.3 0-2.297.558-3.164 1.288l-.736-.901c.996-.902 2.296-1.59 4.03-1.59 2.08 0 2.903 1.074 2.903 2.878v3.822c0 1.03.087 1.675.26 2.104h-1.473a3.146 3.146 0 0 1-.217-1.202c-.953.902-2.08 1.331-3.38 1.331-1.43.043-2.383-.73-2.383-2.147Zm5.806-.172V67.65c-3.336.516-4.42 1.332-4.42 2.405 0 .816.564 1.289 1.474 1.289 1.17 0 2.166-.473 2.946-1.246Zm4.94-5.24h-1.516V63.7h1.516v-1.16c0-1.46.78-2.318 2.644-2.318.26 0 .693.043.823.043v1.16c-.13-.044-.433-.044-.607-.044-.78 0-1.386.258-1.386 1.203v1.16h1.906v1.159h-1.906v7.472h-1.43l-.044-7.515Zm6.024 5.369v-5.368H289.8v-1.16h1.517v-3.092h1.43V63.7H295v1.16h-2.253v5.067c0 .902.303 1.375 1.343 1.375.303 0 .65-.043.91-.13v1.16c-.26.043-.78.086-1.257.086-1.82 0-2.426-.687-2.426-2.19Z" fill="#122372"/><path fill="#D2003C" d="M153.257 15h1.517v67.337h-1.517z"/></g></g></svg>