<svg viewBox="0 0 560 100" xmlns="http://www.w3.org/2000/svg"><path d="M556.552 31.683H560c-.302-.623-.755-2.687-1.082-4.55-.327-1.791-.906-2.86-2.066-3.307v-.05c1.739-.794 2.62-2.41 2.62-4.2 0-1.444-.303-2.563-1.336-3.482-1.107-.994-2.72-1.243-4.536-1.243-1.259 0-2.568.124-3.6.324v16.508h3.298v-6.69h.479c1.109 0 1.64.597 1.942 2.686.252 1.84.63 3.532.833 4.004ZM556 20.237c0 1.424-.876 2.535-2.39 2.535H553v-4.855c.186-.072.53-.095.822-.095 1.568.048 2.178 1.037 2.178 2.415Zm4-18.257c0-1.093-.953-1.98-2.128-1.98H229.128C227.953 0 227 .887 227 1.98c0 1.094.953 1.98 2.128 1.98h328.744c1.175 0 2.128-.886 2.128-1.98ZM230.528 14.851H227l3.675 16.832h3.578L238 14.851h-3.504l-1.12 7.193c-.291 1.9-.559 3.922-.777 5.92h-.05c-.22-1.973-.56-4.046-.852-5.844l-1.169-7.269ZM210 89.251V10.75S210 0 199.669 0H10.331S0 0 0 10.749V89.25S0 100 10.331 100h189.338S210 100 210 89.251ZM59 16.831 44.35 83.169H30.367L16 16.832h13.795l4.567 28.646c1.14 7.086 2.474 15.256 3.33 23.034h.19a553.705 553.705 0 0 1 3.043-23.335l4.376-28.345H59Zm31.71 31.296v.395C98.049 50.69 102 57.106 102 64.417c0 5.535-1.694 9.782-4.706 13.037-3.762 4.339-10.165 6.704-20.816 6.704-4.704 0-8.656-.296-11.478-.688V18.115c3.763-.889 8.656-1.283 14.022-1.283 5.94 0 11.686.79 16.108 4.733 3.386 2.958 4.798 7.402 4.798 12.045 0 5.927-2.916 11.657-9.218 14.517Zm44.331 3.882v.195c4.4 1.762 6.6 5.972 7.845 13.029 1.243 7.35 2.965 15.483 4.114 17.935h-13.107c-.767-1.864-2.2-8.528-3.16-15.78-1.15-8.232-3.162-10.583-7.381-10.583h-1.822v26.363H109V18.105c3.922-.783 8.896-1.273 13.681-1.273 6.901 0 13.03.978 17.237 4.893 3.923 3.623 5.072 8.032 5.072 13.72 0 7.06-3.348 13.43-9.949 16.564ZM190 80.815c-2.777 1.177-8.71 2.353-13.406 2.353-7.385 0-12.947-2.157-17.255-6.569-5.553-5.492-8.522-15.317-8.33-26.7.287-24.054 13.692-34.057 27.407-34.057 4.883 0 8.52.981 10.531 1.952l-2.202 11.09c-1.819-.979-4.212-1.471-7.372-1.471-8.534 0-15.343 5.992-15.343 23.27 0 15.903 6.042 21.602 11.892 21.602 1.152 0 2.016-.098 2.494-.296V55.977h-5.753v-10.49H190v35.328Zm-57-44.422c0-5.508-2.24-9.466-7.982-9.66-1.07 0-2.337.097-3.018.385v19.417h2.24c5.548 0 8.76-4.442 8.76-10.142ZM89 63.464c0-6.506-4.38-9.903-9.333-9.999H77v19.607c.764.195 1.62.195 2.763.195 5.047 0 9.237-3.107 9.237-9.803Zm-1-29.203c0-4.798-2.279-8.518-7.63-8.518-1.386 0-2.575.098-3.37.39v17.431h2.776c4.656 0 8.224-3.916 8.224-9.303Zm146.65 33.066v11.447c0 2.665-.69 3.372-1.664 3.372-.869 0-1.639-.785-1.639-3.372V67.327H228v10.872c0 4.416 1.406 6.95 5.013 6.95 3.324 0 4.987-2.456 4.987-6.975V67.327h-3.35Zm.299-17.82v-.098c1.703-.716 2.492-2.148 2.492-3.63 0-1.16-.382-2.27-1.297-3.01-1.195-.988-2.749-1.185-4.354-1.185-1.451 0-2.773.1-3.79.321v16.338c.763.097 1.83.173 3.102.173 2.878 0 4.61-.593 5.627-1.677.813-.813 1.271-1.876 1.271-3.26 0-1.827-1.068-3.43-3.051-3.973ZM234 45.93c0 1.496-.974 2.584-2.243 2.584H231v-4.842c.216-.082.541-.109.918-.109 1.462 0 2.082 1.034 2.082 2.367Zm1 8.053c0 1.674-1.047 2.452-2.31 2.452-.285 0-.5 0-.69-.05v-4.9h.667c1.238.024 2.333.872 2.333 2.498Zm111 30.174h3V67.327h-3v16.831Zm-11.04-10.737-1.334-6.094h-3.413L329 84.158h2.795l.273-5.843c.098-1.675.197-3.798.246-5.622h.074c.248 1.824.694 3.923 1.014 5.27l1.386 5.921h2.3l1.436-6.019c.32-1.299.766-3.372 1.063-5.172h.074c-.05 1.8.073 3.972.148 5.57l.297 5.895H343l-1.015-16.831h-3.413l-1.31 6.094c-.446 2.12-.817 4.02-1.063 5.893h-.051c-.297-1.898-.718-3.772-1.188-5.893Zm-7.277-6.094H320v16.831h8v-2.843h-4.565v-4.55h4.04v-2.719h-4.04V70.17h4.248v-2.843ZM316.257 14.85c-1.272 0-2.449.13-3.257.34v17.3c.637.077 1.642.182 2.645.182 2.305 0 3.95-.546 5.052-1.696 1.446-1.358 2.303-3.893 2.303-7.449 0-3.426-.734-5.752-2.157-7.11-1.052-1.043-2.499-1.567-4.586-1.567ZM316 17.897c.227-.075.482-.075.738-.075 2.242 0 3.262 2.123 3.262 5.611 0 4.701-1.561 6.27-3.347 6.27-.199 0-.482 0-.653-.051V17.897Zm4.128 27.41c0 3.096.224 6.017.325 7.79h-.05c-.475-1.449-1.302-3.62-1.801-4.92l-2.603-6.593H313v16.832h2.872v-3.797c0-3.37-.124-5.966-.198-7.665h.05c.374 1.523 1.15 3.646 1.7 5.07l2.58 6.392H323V41.584h-2.872v3.722Zm-5.475 22.02c-3.608 0-5.45 2.336-5.45 5.142 0 1.586.895 3.43 3.246 4.887 1.46.962 2.23 1.585 2.23 2.859 0 1.144-.77 1.974-2.356 1.974-.972 0-2.148-.285-2.837-.675L309 84.448c.561.337 1.917.7 3.296.7 3.38 0 5.704-2.102 5.704-5.298 0-1.844-.843-3.611-3.117-5.014-1.869-1.145-2.382-1.691-2.382-2.73 0-.938.691-1.82 2.126-1.82.971 0 1.712.286 2.198.598l.537-2.934c-.51-.312-1.585-.623-2.709-.623ZM304 84.158h3V67.327h-3v16.831Zm-2.742-69.307c-1.274 0-2.45.13-3.258.34v17.3c.638.077 1.642.182 2.646.182 2.305 0 3.948-.546 5.051-1.696 1.445-1.358 2.303-3.893 2.303-7.449 0-3.426-.736-5.752-2.157-7.11-1.052-1.043-2.5-1.567-4.585-1.567ZM301 17.897c.228-.075.483-.075.737-.075 2.243 0 3.263 2.123 3.263 5.611 0 4.701-1.56 6.27-3.346 6.27-.199 0-.483 0-.654-.051V17.897Zm0 23.687h-7v16.832h3.128v-6.943h3.633v-2.72h-3.633V44.43H301v-2.845Zm-1.92 42.574V70.345H302v-3.018h-9v3.018h2.895v13.813h3.185ZM291 41.584h-7v16.832h3.128v-6.943h3.633v-2.72h-3.633V44.43H291v-2.845Zm-7.002 25.743H281v16.831h2.873v-3.796c0-3.37-.124-5.967-.2-7.667h.05c.376 1.524 1.15 3.648 1.702 5.07l2.577 6.393H291V67.327h-2.873v3.721c0 3.096.226 6.019.324 7.792h-.05c-.474-1.45-1.3-3.622-1.8-4.92l-2.603-6.593ZM275.7 14.85 272 31.683h3.22l.759-3.847h3.067l.735 3.847H283l-3.32-16.832H275.7ZM277 25.743l.52-3.771c.146-1.05.355-2.936.501-4.15h.063c.124 1.214.311 3.018.458 4.123l.458 3.798h-2Zm-6 23.71c0 4.781 1.53 8.963 5.435 8.963 3.269 0 5.565-2.659 5.565-9.221 0-3.98-1.173-8.6-5.334-8.6-3.804 0-5.666 4.104-5.666 8.858Zm4 .052c0-3.73.734-5.94 2.05-5.94 1.495 0 1.95 2.75 1.95 5.786 0 3.524-.532 6.095-1.925 6.095-1.341 0-2.075-2.006-2.075-5.941Zm-3.299 17.822L268 84.158h3.22l.759-3.847h3.067l.735 3.847H279l-3.32-16.831h-3.979ZM273 78.217l.521-3.771c.146-1.052.355-2.937.5-4.149h.062c.126 1.212.313 3.017.458 4.121l.459 3.8h-2Zm-9.4-36.633c-1.26 0-2.568.125-3.6.323v16.509h3.297v-6.69h.48c1.11 0 1.64.597 1.942 2.686.252 1.84.632 3.53.831 4.004H270c-.302-.623-.755-2.687-1.083-4.55-.327-1.792-.907-2.86-2.063-3.306v-.05c1.736-.794 2.617-2.411 2.617-4.202 0-1.444-.302-2.562-1.335-3.48-1.106-.995-2.72-1.244-4.535-1.244Zm.4 3.068c.187-.072.532-.098.824-.098 1.565.049 2.176 1.039 2.176 2.415 0 1.424-.875 2.536-2.389 2.536H264v-4.853Zm-2.154 24.241c-1.054-1.045-2.503-1.566-4.589-1.566-1.274 0-2.448.13-3.257.339v17.302c.635.078 1.641.18 2.646.18 2.306 0 3.949-.546 5.052-1.696 1.444-1.357 2.302-3.894 2.302-7.45 0-3.425-.734-5.752-2.154-7.109ZM261 75.91c0 4.702-1.56 6.27-3.347 6.27-.199 0-.482 0-.653-.051V70.373c.227-.076.481-.076.738-.076 2.24 0 3.262 2.124 3.262 5.612Zm-3-34.325h-9v3.02h2.894v13.812h3.185V44.605H258v-3.02Zm-7 25.743h-2.872v3.721c0 3.096.226 6.019.325 7.792h-.05c-.475-1.45-1.3-3.622-1.801-4.92l-2.604-6.593H241v16.831h2.873v-3.796c0-3.37-.125-5.967-.199-7.667h.05c.376 1.524 1.15 3.648 1.702 5.07l2.576 6.393H251V67.327Zm-7.565-38.487v-4.55h4.041V21.57h-4.041v-3.874h4.25v-2.844H240v16.832h8V28.84h-4.565Zm0 26.731v-4.548h4.04v-2.719h-4.04v-3.875h4.25v-2.845H240v16.832h8V55.57h-4.566Zm13.419-31.745v-.05c1.737-.794 2.617-2.41 2.617-4.2 0-1.444-.302-2.563-1.334-3.482-1.106-.994-2.72-1.243-4.537-1.243-1.259 0-2.567.124-3.6.324v16.508h3.298v-6.69h.479c1.11 0 1.64.597 1.942 2.686.252 1.84.63 3.532.833 4.004H260c-.302-.623-.755-2.687-1.082-4.55-.327-1.791-.906-2.86-2.064-3.307ZM256 20.237c0 1.424-.877 2.535-2.39 2.535H253v-4.855c.186-.072.53-.095.822-.095 1.567.048 2.178 1.037 2.178 2.415Zm11.949 3.003v-.104c1.703-.757 2.491-2.274 2.491-3.843 0-1.229-.38-2.406-1.297-3.188-1.195-1.044-2.747-1.254-4.353-1.254-1.45 0-2.773.105-3.79.34v17.3c.764.104 1.832.182 3.102.182 2.878 0 4.61-.626 5.627-1.774.814-.861 1.271-1.986 1.271-3.452 0-1.935-1.068-3.633-3.051-4.207ZM268 20.19c0 1.496-.973 2.583-2.243 2.583H265v-4.841c.216-.083.54-.11.92-.11 1.458 0 2.08 1.033 2.08 2.368Zm0 7.063c0 1.674-1.049 2.451-2.309 2.451-.287 0-.5 0-.691-.05v-4.9h.666c1.239.025 2.334.873 2.334 2.5Zm24.127-8.68c0 3.096.225 6.02.324 7.791h-.05c-.474-1.448-1.299-3.621-1.8-4.918l-2.603-6.594H285v16.832h2.873v-3.796c0-3.372-.126-5.967-.2-7.667h.05c.374 1.525 1.15 3.645 1.702 5.07l2.577 6.393H295V14.851h-2.873v3.72Zm14.307 37v-4.55h4.042v-2.718h-4.042v-3.875h4.252v-2.845H303v16.832h8V55.57h-4.566Zm22.999-26.732v-4.55h4.042V21.57h-4.042v-3.874h4.252v-2.844H326v16.832h8V28.84h-4.567Zm.001 26.731v-4.548h4.042v-2.719h-4.042v-3.875h4.252v-2.845H326v16.832h8V55.57h-4.566Zm13.418-31.745v-.05c1.737-.794 2.617-2.41 2.617-4.2 0-1.444-.3-2.563-1.333-3.482-1.107-.994-2.72-1.243-4.536-1.243-1.26 0-2.568.124-3.6.324v16.508h3.296v-6.69h.481c1.109 0 1.64.597 1.942 2.686.251 1.84.63 3.532.83 4.004H346c-.302-.623-.757-2.687-1.083-4.55-.328-1.791-.907-2.86-2.065-3.307ZM342 20.237c0 1.424-.877 2.535-2.39 2.535H339v-4.855c.188-.072.532-.095.824-.095 1.565.048 2.176 1.037 2.176 2.415Zm4.854 30.323v-.05c1.736-.794 2.617-2.411 2.617-4.202 0-1.444-.302-2.562-1.334-3.48-1.108-.995-2.721-1.244-4.536-1.244-1.26 0-2.569.125-3.601.323v16.509h3.298v-6.69h.48c1.109 0 1.638.597 1.942 2.686.252 1.84.63 3.53.83 4.004H350c-.302-.623-.755-2.687-1.083-4.55-.327-1.792-.907-2.86-2.063-3.306ZM346 46.97c0 1.423-.876 2.535-2.389 2.535H343v-4.853c.187-.072.531-.098.823-.098 1.566.049 2.177 1.039 2.177 2.415Zm195.685-5.386H534v16.832h8V55.57h-4.565v-4.548h4.04v-2.719h-4.04v-3.875h4.25v-2.845ZM536 14.851h-7v16.832h3.128v-6.945h3.632V22.02h-3.632v-4.325H536v-2.844Zm-11.987 66.337c-1.046 0-2.013.841-2.013 1.98 0 1.207.915 1.98 1.987 1.98 1.202 0 2.013-.773 2.013-1.98 0-1.228-.888-1.98-1.987-1.98ZM511 49.765c0 4.963 2.032 8.65 6.297 8.65 1.14 0 2.058-.182 2.529-.415l-.323-2.854c-.396.13-1.016.26-1.561.26-1.985 0-3.498-1.638-3.498-5.823 0-4.34 1.662-6.004 3.498-6.004.718 0 1.14.158 1.512.338l.546-2.855c-.322-.235-1.116-.468-2.257-.468-3.249 0-6.743 2.57-6.743 9.171Zm3.529 17.562H511l3.675 16.831h3.577L522 67.327h-3.505l-1.12 7.192c-.292 1.9-.56 3.922-.778 5.92h-.048c-.22-1.972-.56-4.045-.852-5.844l-1.168-7.268Zm-5.516 13.861c-1.046 0-2.013.841-2.013 1.98 0 1.207.915 1.98 1.987 1.98 1.202 0 2.013-.773 2.013-1.98 0-1.228-.888-1.98-1.987-1.98Zm-3.328-13.861H498v16.831h8v-2.843h-4.567v-4.55h4.042v-2.719h-4.042V70.17h4.252v-2.843ZM495 58.416h3V41.584h-3v16.832Zm.446-43.565H492v16.832h8v-2.769h-4.554V14.851ZM493 41.584h-9v3.02h2.896v13.812h3.183V44.605H493v-3.02Zm-6.556-26.733H483v16.832h8v-2.769h-4.556V14.851ZM476 84.158h8V81.39h-4.554V67.327H476v16.831Zm14.08 0V70.345H493v-3.018h-9v3.018h2.895v13.813h3.184Zm-16.08 0-3.32-16.831h-3.979L463 84.158h3.22l.759-3.847h3.067l.735 3.847H474Zm-4-5.94h-2l.521-3.772c.146-1.052.355-2.937.5-4.149h.064c.124 1.212.311 3.017.457 4.121l.458 3.8Zm-1-19.802h3V41.584h-3v16.832Zm2-43.565h-9v3.019h2.896v13.813h3.184V17.87H471V14.85Zm-7.347 25.743c-3.609 0-5.449 2.337-5.449 5.142 0 1.587.895 3.431 3.245 4.887 1.461.962 2.23 1.585 2.23 2.859 0 1.144-.769 1.975-2.358 1.975-.97 0-2.145-.286-2.837-.676L458 57.715c.561.338 1.916.7 3.297.7 3.377 0 5.703-2.101 5.703-5.297 0-1.846-.843-3.613-3.117-5.017-1.87-1.143-2.38-1.689-2.38-2.728 0-.936.69-1.82 2.123-1.82.971 0 1.713.286 2.198.598l.538-2.933c-.51-.311-1.584-.624-2.709-.624Zm-13.322 26.733H447l2.817 16.831h3.185l1.104-5.491c.342-1.649.612-3.523.906-5.546h.05c.22 2.05.465 3.971.734 5.521l.981 5.516h3.307L463 67.327h-3.136l-.81 6.668c-.22 1.95-.416 3.747-.636 5.946h-.049c-.196-2.199-.49-4.071-.784-5.97l-1.102-6.644h-2.597l-1.178 6.693c-.343 2.025-.711 3.848-.931 5.921h-.074c-.194-2.049-.342-3.973-.562-5.895l-.81-6.72Zm3.321-26.733c-3.608 0-5.448 2.337-5.448 5.142 0 1.587.895 3.431 3.245 4.887 1.46.962 2.228 1.585 2.228 2.859 0 1.144-.768 1.975-2.356 1.975-.97 0-2.145-.286-2.837-.676L448 57.715c.561.338 1.916.7 3.295.7 3.38 0 5.705-2.101 5.705-5.297 0-1.846-.844-3.613-3.118-5.017-1.87-1.143-2.382-1.689-2.382-2.728 0-.936.693-1.82 2.126-1.82.971 0 1.713.286 2.198.598l.538-2.933c-.51-.311-1.586-.624-2.71-.624Zm-12.219 40.72v-4.55h4.042v-2.718h-4.042V70.17h4.253v-2.843H438v16.831h8v-2.843h-4.567Zm2.247-39.73H439.7L436 58.416h3.22l.759-3.847h3.066l.736 3.847H447l-3.32-16.832ZM442 52.475h-2l.52-3.77c.147-1.052.355-2.938.5-4.15h.064c.124 1.212.311 3.017.457 4.12l.459 3.8Zm-9.972 25.477v4.237c-.122.052-.343.079-.637.079-1.502 0-3.05-1.508-3.05-5.718 0-4.574 1.746-6.16 3.934-6.16.81 0 1.425.13 1.89.39l.565-2.937c-.515-.256-1.449-.516-2.702-.516-3.516 0-6.954 2.648-7.026 9.016-.048 3.012.711 5.614 2.136 7.068 1.105 1.167 2.53 1.738 4.425 1.738 1.203 0 2.724-.311 3.437-.624v-9.352h-4.447v2.779h1.475ZM428.6 41.584c-1.259 0-2.568.125-3.6.323v16.509h3.298v-6.69h.479c1.11 0 1.64.597 1.941 2.686.254 1.84.632 3.53.833 4.004H435c-.303-.623-.756-2.687-1.084-4.55-.325-1.792-.905-2.86-2.063-3.306v-.05c1.738-.794 2.619-2.411 2.619-4.202 0-1.444-.304-2.562-1.335-3.48-1.109-.995-2.72-1.244-4.537-1.244Zm-.6 3.068c.185-.072.53-.098.822-.098 1.568.049 2.178 1.039 2.178 2.415 0 1.424-.876 2.536-2.39 2.536H428v-4.853Zm-11.324 10.055c-.276 1.984-.951 4.595-1.676 6.68l2.1-.226c1.101-1.808 2.15-4.445 2.9-6.706l-3.324.252Zm-2.378 29.451v-6.687h.478c1.11 0 1.64.596 1.943 2.683.252 1.842.63 3.532.83 4.004H421c-.302-.62-.756-2.684-1.083-4.55-.327-1.791-.906-2.858-2.065-3.307v-.048c1.738-.795 2.618-2.413 2.618-4.203 0-1.444-.302-2.563-1.334-3.482-1.108-.993-2.72-1.241-4.536-1.241-1.259 0-2.568.124-3.6.322v16.51h3.298Zm-.298-8.91v-4.854c.186-.072.532-.097.824-.097 1.565.048 2.176 1.039 2.176 2.414 0 1.426-.875 2.537-2.388 2.537H414Zm-6.4-33.664c-1.258 0-2.57.125-3.6.323v16.509h3.296v-6.69h.48c1.11 0 1.641.597 1.943 2.686.252 1.84.63 3.53.833 4.004H414c-.302-.623-.755-2.687-1.083-4.55-.327-1.792-.907-2.86-2.064-3.306v-.05c1.737-.794 2.618-2.411 2.618-4.202 0-1.444-.302-2.562-1.335-3.48-1.107-.995-2.719-1.244-4.536-1.244Zm-.6 3.068c.187-.072.531-.098.823-.098 1.566.049 2.177 1.039 2.177 2.415 0 1.424-.875 2.536-2.389 2.536H407v-4.853Zm1.685 22.675H401v16.831h8v-2.843h-4.566v-4.55h4.04v-2.719h-4.04V70.17h4.251v-2.843ZM404 14.85h-9v3.019h2.896v13.813h3.184V17.87H404V14.85Zm-2.316 26.733H394v16.832h8V55.57h-4.566v-4.548h4.04v-2.719h-4.04v-3.875h4.25v-2.845ZM387.7 14.851 384 31.683h3.22l.76-3.847h3.066l.736 3.847H395l-3.32-16.832h-3.98ZM388 25.743l.521-3.771c.146-1.05.355-2.936.5-4.15h.063c.125 1.214.312 3.018.457 4.123l.459 3.798h-2Zm3.28 58.415v-7.043h3.44v7.043H398V67.327h-3.28v6.743h-3.44v-6.743H388v16.831h3.28Zm.72-42.574h-9v3.02h2.895v13.812h3.185V44.605H392v-3.02Zm-8.257 25.743c-3.25 0-6.743 2.57-6.743 9.171 0 4.963 2.031 8.65 6.297 8.65 1.14 0 2.06-.181 2.53-.415l-.323-2.856a5.508 5.508 0 0 1-1.562.262c-1.985 0-3.497-1.638-3.497-5.823 0-4.34 1.66-6.004 3.497-6.004.718 0 1.14.156 1.513.338l.545-2.855c-.322-.235-1.117-.468-2.257-.468Zm-9.462-25.743H371v16.832h3.281v-7.044h3.438v7.044H381V41.584h-3.281v6.744h-3.438v-6.744Zm-1.63 25.743c-3.607 0-5.447 2.336-5.447 5.142 0 1.586.895 3.43 3.246 4.887 1.459.962 2.227 1.585 2.227 2.859 0 1.144-.768 1.974-2.354 1.974-.972 0-2.149-.285-2.837-.675L367 84.448c.561.337 1.917.7 3.296.7 3.378 0 5.704-2.102 5.704-5.298 0-1.844-.843-3.611-3.119-5.014-1.868-1.145-2.38-1.691-2.38-2.73 0-.938.69-1.82 2.124-1.82.972 0 1.713.286 2.199.598l.536-2.934c-.51-.312-1.584-.623-2.708-.623ZM362 84.158h3V67.327h-3v16.831Zm-2-34.393c0 4.963 2.034 8.65 6.297 8.65 1.14 0 2.058-.182 2.53-.415l-.322-2.854a5.5 5.5 0 0 1-1.563.26c-1.983 0-3.498-1.638-3.498-5.823 0-4.34 1.662-6.004 3.498-6.004.72 0 1.14.158 1.514.338l.544-2.855c-.322-.235-1.116-.468-2.257-.468-3.249 0-6.743 2.57-6.743 9.171Zm-5.566 5.806v-4.548h4.041v-2.719h-4.04v-3.875h4.25v-2.845H351v16.832h8V55.57h-4.566Zm2.645 28.587V70.345H360v-3.018h-9v3.018h2.895v13.813h3.184Zm.87-60.918v-.104c1.702-.757 2.491-2.274 2.491-3.843 0-1.229-.382-2.406-1.297-3.188-1.195-1.044-2.748-1.254-4.354-1.254-1.45 0-2.771.105-3.789.34v17.3c.762.104 1.83.182 3.103.182 2.878 0 4.608-.626 5.625-1.774.813-.861 1.272-1.986 1.272-3.452 0-1.935-1.068-3.633-3.052-4.207ZM357 20.19c0 1.496-.973 2.583-2.244 2.583H354v-4.841c.214-.083.54-.11.919-.11 1.459 0 2.081 1.033 2.081 2.368Zm0 7.063c0 1.674-1.048 2.451-2.31 2.451-.286 0-.501 0-.69-.05v-4.9h.666c1.24.025 2.334.873 2.334 2.5Zm9.435 1.588v-4.55h4.041V21.57h-4.041v-3.874h4.25v-2.844H363v16.832h8V28.84h-4.565Zm13.419-5.014v-.05c1.736-.794 2.617-2.41 2.617-4.2 0-1.444-.302-2.563-1.334-3.482-1.106-.994-2.72-1.243-4.537-1.243-1.26 0-2.567.124-3.6.324v16.508h3.298v-6.69h.479c1.11 0 1.64.597 1.942 2.686.252 1.84.63 3.532.833 4.004H383c-.302-.623-.755-2.687-1.083-4.55-.327-1.791-.905-2.86-2.063-3.307ZM379 20.237c0 1.424-.877 2.535-2.39 2.535H376v-4.855c.186-.072.53-.095.822-.095 1.567.048 2.178 1.037 2.178 2.415Zm33.65-5.386V26.3c0 2.666-.69 3.373-1.662 3.373-.872 0-1.64-.785-1.64-3.373V14.85H406v10.875c0 4.416 1.405 6.947 5.013 6.947 3.326 0 4.987-2.454 4.987-6.975V14.85h-3.35Zm12.478 3.72c0 3.097.224 6.02.324 7.792h-.05c-.475-1.448-1.301-3.621-1.801-4.918l-2.602-6.594H418v16.832h2.874v-3.796c0-3.372-.126-5.967-.201-7.667h.05c.376 1.525 1.15 3.645 1.703 5.07l2.576 6.393H428V14.851h-2.872v3.72Zm11.901 6.904v4.24c-.123.05-.343.077-.638.077-1.5 0-3.05-1.51-3.05-5.719 0-4.572 1.746-6.159 3.934-6.159.81 0 1.424.13 1.891.39l.564-2.936c-.516-.257-1.448-.517-2.7-.517-3.517 0-6.954 2.649-7.028 9.015-.048 3.014.712 5.614 2.136 7.067 1.106 1.17 2.53 1.74 4.425 1.74 1.203 0 2.725-.31 3.437-.623v-9.352h-4.447v2.777h1.476Zm8.473-5.846c0-.935.69-1.818 2.125-1.818.971 0 1.712.285 2.198.597l.536-2.933c-.51-.313-1.583-.624-2.708-.624-3.608 0-5.447 2.337-5.447 5.142 0 1.585.894 3.431 3.244 4.887 1.46.96 2.228 1.585 2.228 2.86 0 1.141-.769 1.974-2.356 1.974-.972 0-2.147-.286-2.836-.676L442 31.973c.563.337 1.918.7 3.296.7 3.38 0 5.704-2.101 5.704-5.297 0-1.847-.842-3.615-3.116-5.018-1.87-1.144-2.382-1.688-2.382-2.729Zm10 0c0-.935.691-1.818 2.125-1.818.97 0 1.713.285 2.197.597l.537-2.933c-.511-.313-1.584-.624-2.709-.624-3.607 0-5.446 2.337-5.446 5.142 0 1.585.894 3.431 3.244 4.887 1.459.96 2.23 1.585 2.23 2.86 0 1.141-.771 1.974-2.358 1.974-.97 0-2.146-.286-2.836-.676L452 31.973c.563.337 1.917.7 3.297.7 3.378 0 5.703-2.101 5.703-5.297 0-1.847-.843-3.615-3.117-5.018-1.87-1.144-2.382-1.688-2.382-2.729Zm20.933 9.21V24.29h4.042V21.57h-4.042v-3.874h4.25v-2.844H473v16.832h8V28.84h-4.565Zm1.066 16.534c0-.936.692-1.82 2.127-1.82.971 0 1.711.286 2.198.598l.536-2.933c-.512-.311-1.584-.624-2.71-.624-3.608 0-5.448 2.337-5.448 5.142 0 1.587.895 3.431 3.247 4.887 1.459.962 2.228 1.585 2.228 2.859 0 1.144-.769 1.975-2.356 1.975-.972 0-2.147-.286-2.837-.676L474 57.715c.563.338 1.916.7 3.297.7 3.377 0 5.703-2.101 5.703-5.297 0-1.846-.843-3.613-3.117-5.017-1.87-1.143-2.382-1.689-2.382-2.728Zm28.178 8.109c0 1.144-.769 1.975-2.356 1.975-.971 0-2.146-.286-2.836-.676L500 57.715c.564.338 1.918.7 3.297.7 3.379 0 5.703-2.101 5.703-5.297 0-1.846-.844-3.613-3.116-5.017-1.87-1.143-2.382-1.689-2.382-2.728 0-.936.691-1.82 2.126-1.82.972 0 1.712.286 2.198.598l.536-2.933c-.512-.311-1.585-.624-2.71-.624-3.606 0-5.448 2.337-5.448 5.142 0 1.587.895 3.431 3.247 4.887 1.46.962 2.228 1.585 2.228 2.859Zm-.245-24.642v-4.55h4.04V21.57h-4.04v-3.874h4.251v-2.844H502v16.832h8V28.84h-4.566Zm13.692-10.269c0 3.097.224 6.02.326 7.792h-.05c-.475-1.448-1.301-3.621-1.802-4.918l-2.603-6.594H512v16.832h2.872v-3.796c0-3.372-.124-5.967-.2-7.667h.05c.377 1.525 1.15 3.645 1.702 5.07L519 31.683H522V14.851h-2.874v3.72Zm8.595 23.013v6.744h-3.44v-6.744H521v16.832h3.281v-7.044h3.44v7.044H531V41.584h-3.28Zm12.778-28.713c.815 0 1.501-.65 1.501-1.485 0-.836-.686-1.485-1.498-1.485-.791 0-1.502.649-1.502 1.485 0 .835.687 1.485 1.5 1.485Zm5.013 0a1.486 1.486 0 1 0 0-2.97c-.806 0-1.512.649-1.512 1.485-.002.835.68 1.485 1.512 1.485Zm2.488 1.98h-3.347V26.3c0 2.666-.693 3.373-1.666 3.373-.871 0-1.638-.785-1.638-3.373V14.85H538v10.875c0 4.416 1.405 6.947 5.012 6.947 3.326 0 4.988-2.454 4.988-6.975V14.85Zm2.852 35.709v-.05c1.738-.794 2.619-2.411 2.619-4.202 0-1.444-.303-2.562-1.335-3.48-1.108-.995-2.72-1.244-4.536-1.244-1.26 0-2.569.125-3.6.323v16.509h3.298v-6.69h.479c1.11 0 1.64.597 1.941 2.686.253 1.84.63 3.53.832 4.004H554c-.304-.623-.757-2.687-1.084-4.55-.326-1.792-.905-2.86-2.064-3.306ZM550 46.97c0 1.423-.877 2.535-2.39 2.535H547v-4.853c.184-.072.53-.098.822-.098 1.567.049 2.178 1.039 2.178 2.415ZM227 98.02c0 1.093.953 1.98 2.128 1.98h328.744c1.175 0 2.128-.887 2.128-1.98 0-1.095-.953-1.98-2.128-1.98H229.128c-1.175 0-2.128.885-2.128 1.98Z" fill="#fff" fill-rule="evenodd"/></svg>