<svg viewBox="0 0 828 218" xmlns="http://www.w3.org/2000/svg"><g fill="none" fill-rule="evenodd"><path d="M42.092 82.689c0-5.174-1.751-9.852-12.121-9.852-10.37 0-12.12 4.606-12.12 9.852 0 5.315 1.818 9.994 12.12 9.994 10.303 0 12.12-4.75 12.12-9.995m-41.748 0c0-17.222 8.889-25.444 29.628-25.444 20.673 0 29.629 8.293 29.629 25.445 0 17.224-8.956 25.587-29.63 25.587-20.738 0-29.627-8.293-29.627-25.587M100.131 76.947c0-3.402-2.155-3.402-3.906-3.402h-16.16v6.804h16.16c1.751 0 3.906 0 3.906-3.402m17.507 0c0 11.057-7.339 18.995-18.046 18.995H80.065v11.624H62.557V57.952h37.035c10.707 0 18.046 7.938 18.046 18.995M137.297 73.544v5.317h28.28v15.593h-28.28v13.112h-17.508V57.952h49.83v15.593zM189.883 72.127v4.608h32.322v12.049h-32.322v4.606h32.322v14.175h-49.831V57.953h49.83v14.175zM243.882 80.35h16.161c1.751 0 3.905 0 3.905-3.402 0-3.403-2.154-3.403-3.905-3.403h-16.16v6.805Zm29.224 12.97 8.35 14.247h-20.74l-6.532-11.624h-10.302v11.624h-17.508V57.953h37.036c10.706 0 18.046 7.938 18.046 18.995 0 7.229-3.165 13.183-8.35 16.373Z" fill="#FFF"/><path fill="#F2E518" d="M347.378 57.953v49.614H329.87v-17.01h-27.608v17.01h-17.508V57.953h17.508v17.01h27.608v-17.01zM351.883 107.567h17.508V57.953h-17.508zM422.248 91.974v15.593h-48.483V57.953h17.508v34.02zM441.57 73.544v5.317h28.283v15.593H441.57v13.112h-17.51V57.952h49.832v15.593zM494.156 72.127v4.608h32.32v12.049h-32.32v4.606h32.32v14.175h-49.828V57.953h49.829v14.175z"/><path fill="#FFF" d="M548.293 73.544v5.317h28.28v15.593h-28.28v13.112h-17.508V57.952h49.829v15.593zM623.503 82.689c0-5.174-1.75-9.852-12.12-9.852s-12.121 4.606-12.121 9.852c0 5.315 1.818 9.994 12.12 9.994 10.304 0 12.12-4.75 12.12-9.995m-41.747 0c0-17.222 8.888-25.444 29.628-25.444 20.673 0 29.628 8.293 29.628 25.445 0 17.224-8.955 25.587-29.628 25.587-20.74 0-29.628-8.293-29.628-25.587M704.708 57.953v49.614h-22.895l-20.335-29.272v29.272H643.97V57.953h22.894L687.2 87.225V57.953zM748.807 82.76c0-9.215-6.194-9.215-9.966-9.215h-12.12v18.429h12.12c3.772 0 9.966 0 9.966-9.214m17.508 0c0 16.868-10.706 24.807-22.086 24.807h-35.016V57.952h35.016c11.38 0 22.086 7.939 22.086 24.808M785.03 90.06c0 2.41 2.154 4.04 13.265 4.04 10.37 0 11.92-.71 11.92-2.552 0-2.126-1.55-2.41-12.593-2.763-21.28-.71-29.427-4.395-29.427-15.948 0-10.915 10.168-15.592 28.753-15.592 18.383 0 28.753 4.677 28.753 17.364h-17.508c0-2.622-4.04-3.19-12.592-3.19-8.215 0-9.898.426-9.898 2.339 0 1.914 1.683 1.843 11.92 2.269 18.584.779 30.098 2.126 30.098 15.096 0 13.679-10.774 17.153-30.099 17.153-19.326 0-30.1-3.474-30.1-18.216h17.507Z"/><path d="M233.124 137.768h4.875v4.818h-4.92v9.638h-5.494v-9.638h-2.77v-4.818h2.77v-.795c0-2.892 1.648-4.265 6.363-4.265 1.35 0 2.06 0 4.05.242v3.613a34.425 34.425 0 0 0-2.814-.12c-1.328 0-1.9.409-2.06 1.325M249.148 136.081h4.578v-4.337h-4.578v4.337Zm-5.951 0h4.578v-4.337h-4.578v4.337Zm14.626 1.687v14.456h-5.493v-1.928c-1.648 1.205-3.754 2.169-6.638 2.169-3.09 0-6.592-1.012-6.592-6.24v-8.457h5.493v6.095c0 2.482.847 3.542 3.319 3.542 1.626 0 3.342-.747 4.418-1.831v-7.806h5.493ZM274.238 138.009v4.818c-1.282-.337-2.312-.481-3.32-.481-1.945 0-4.073.24-5.653 2.07v7.808h-5.493v-14.456h5.493v2.409c1.214-1.903 3.09-2.65 5.333-2.65 1.603 0 2.724.24 3.64.482M299.145 146.754c0-.891-.732-.891-1.328-.891h-6.637v1.783h6.637c.596 0 1.328 0 1.328-.892Zm-7.965-5.47h5.493c.595 0 1.327 0 1.327-.915s-.732-.915-1.327-.915h-5.493v1.83Zm13.916 5.952c0 2.77-1.579 4.988-5.219 4.988h-14.648v-16.866h13.961c3.64 0 4.761 1.735 4.761 4.289 0 1.085-.48 2.192-1.259 3.156 1.396 1.06 2.404 2.602 2.404 4.433ZM311.92 143.068h6.913c-.618-1.302-1.991-1.446-3.456-1.446-1.465 0-2.838.144-3.456 1.446m7.164 3.734h5.378c-.686 3.831-3.64 5.662-9.292 5.662-5.38 0-9.11-2.12-9.11-7.469s3.73-7.469 9.339-7.469c5.653 0 9.292 2.12 9.292 8.433h-13.023c.458 1.542 1.99 1.927 3.502 1.927 1.99 0 2.792-.144 3.914-1.084M333.783 142.586v2.988c0 1.373.503 2.072 2.105 2.072 1.236 0 1.923 0 3.502-.241v4.699c-1.304.24-2.929.36-4.737.36-4.258 0-6.363-1.373-6.363-4.505v-5.373h-2.77v-4.818h2.77v-2.41l5.493-1.446v3.856h5.607v4.818h-5.607ZM355.644 138.009v4.818c-1.282-.337-2.312-.481-3.319-.481-1.946 0-4.074.24-5.654 2.07v7.808h-5.493v-14.456h5.493v2.409c1.214-1.903 3.091-2.65 5.333-2.65 1.603 0 2.724.24 3.64.482M369.723 144.995c0-2.12-1.396-2.649-3.845-2.649-2.449 0-3.845.53-3.845 2.65s1.396 2.65 3.845 2.65c2.45 0 3.845-.53 3.845-2.65m-13.184 0c0-5.35 3.502-7.47 9.34-7.47 5.835 0 9.337 2.12 9.337 7.47s-3.502 7.47-9.338 7.47c-5.837 0-9.339-2.12-9.339-7.47M384.421 137.768h4.875v4.818h-4.92v9.638h-5.494v-9.638h-2.769v-4.818h2.77v-.795c0-2.892 1.647-4.265 6.362-4.265 1.351 0 2.06 0 4.051.242v3.613a34.425 34.425 0 0 0-2.815-.12c-1.328 0-1.9.409-2.06 1.325M398.592 137.768h4.875v4.818h-4.92v9.638h-5.494v-9.638h-2.77v-4.818h2.77v-.795c0-2.892 1.648-4.265 6.363-4.265 1.35 0 2.06 0 4.05.242v3.613a34.425 34.425 0 0 0-2.814-.12c-1.328 0-1.9.409-2.06 1.325M410.2 143.068h6.911c-.618-1.302-1.99-1.446-3.456-1.446-1.465 0-2.838.144-3.456 1.446m7.164 3.734h5.38c-.688 3.831-3.64 5.662-9.294 5.662-5.379 0-9.109-2.12-9.109-7.469s3.73-7.469 9.338-7.469c5.654 0 9.292 2.12 9.292 8.433h-13.023c.458 1.542 1.991 1.927 3.502 1.927 1.991 0 2.793-.144 3.914-1.084M443.048 143.767v8.457h-5.493v-6.096c0-2.481-.847-3.542-3.32-3.542-1.624 0-3.34.747-4.416 1.83v7.808h-5.494v-14.456h5.494v1.928c1.648-1.205 3.753-2.17 6.637-2.17 3.09 0 6.592 1.012 6.592 6.24M450.284 143.068h6.913c-.618-1.302-1.992-1.446-3.457-1.446-1.465 0-2.838.144-3.456 1.446m7.164 3.734h5.38c-.688 3.831-3.64 5.662-9.293 5.662-5.379 0-9.11-2.12-9.11-7.469s3.731-7.469 9.338-7.469c5.654 0 9.293 2.12 9.293 8.433h-13.023c.457 1.542 1.991 1.927 3.502 1.927 1.991 0 2.792-.144 3.913-1.084M488.468 138.009v4.818c-1.281-.337-2.312-.481-3.318-.481-1.946 0-4.075.24-5.654 2.07v7.808h-5.493v-14.456h5.493v2.409c1.213-1.903 3.09-2.65 5.333-2.65 1.602 0 2.724.24 3.639.482M495.223 143.068h6.912c-.617-1.302-1.991-1.446-3.456-1.446-1.465 0-2.838.144-3.456 1.446m7.164 3.734h5.379c-.687 3.831-3.64 5.662-9.293 5.662-5.378 0-9.11-2.12-9.11-7.469s3.732-7.469 9.339-7.469c5.654 0 9.292 2.12 9.292 8.433h-13.022c.457 1.542 1.99 1.927 3.5 1.927 1.993 0 2.794-.144 3.915-1.084M518.321 137.526c5.425 0 8.835 1.831 9.292 6.385h-5.607c-.435-1.229-1.717-1.566-3.685-1.566-2.449 0-3.846.53-3.846 2.65 0 2.121 1.397 2.65 3.846 2.65 1.968 0 3.25-.337 3.685-1.565h5.607c-.457 4.553-3.867 6.384-9.292 6.384-5.837 0-9.339-2.12-9.339-7.469s3.502-7.469 9.34-7.469M547.76 143.767v8.457h-5.493v-6.096c0-2.481-.848-3.542-3.32-3.542-1.625 0-3.341.747-4.416 1.83v7.808h-5.494V132.95h5.494v6.746c1.647-1.205 3.752-2.17 6.637-2.17 3.09 0 6.592 1.012 6.592 6.24M557.124 142.586v2.988c0 1.373.504 2.072 2.106 2.072 1.236 0 1.922 0 3.502-.241v4.699c-1.304.24-2.929.36-4.738.36-4.257 0-6.363-1.373-6.363-4.505v-5.373h-2.77v-4.818h2.77v-2.41l5.493-1.446v3.856h5.608v4.818h-5.608ZM569.692 143.068h6.913c-.618-1.302-1.992-1.446-3.457-1.446-1.465 0-2.838.144-3.456 1.446m7.164 3.734h5.38c-.688 3.831-3.64 5.662-9.293 5.662-5.379 0-9.11-2.12-9.11-7.469s3.731-7.469 9.338-7.469c5.654 0 9.293 2.12 9.293 8.433h-13.023c.457 1.542 1.991 1.927 3.502 1.927 1.991 0 2.792-.144 3.913-1.084M598.284 138.009v4.818c-1.28-.337-2.312-.481-3.318-.481-1.946 0-4.075.24-5.654 2.07v7.808h-5.493v-14.456h5.493v2.409c1.213-1.903 3.09-2.65 5.333-2.65 1.602 0 2.724.24 3.64.482M602.705 147.887v4.337l-2.587 5.3h-2.448l1.556-5.3h-2.014v-4.337zM284.402 170.614v4.818c-1.282-.337-2.312-.48-3.32-.48-1.945 0-4.073.24-5.653 2.07v7.807h-5.493v-14.456h5.493v2.41c1.214-1.904 3.09-2.65 5.333-2.65 1.603 0 2.724.24 3.64.481M297.61 179.505c-.87-.241-2.06-.362-3.638-.362-2.541 0-3.64.24-3.64 1.157 0 .795.64.915 2.038.915 1.853 0 3.868-.481 5.24-1.108v-.602Zm5.494-1.832v7.156h-5.493v-1.76c-2.128 1.64-4.51 2-6.89 2-3.135 0-5.881-1.18-5.881-4.312 0-3.758 4.119-4.746 8.125-4.746 1.922 0 3.387.265 4.646.747 0-1.734-1.74-1.807-3.57-1.807-1.763 0-3.777.168-6.295.746l-1.785-4.095c2.747-.94 5.722-1.47 8.262-1.47 5.63 0 8.835 2.024 8.88 7.54ZM309.929 179.842c0 .819.732 1.133 4.05 1.133 3.068 0 3.595-.146 3.595-.772 0-.722-.527-.65-3.823-.795-6.317-.265-9.086-.771-9.086-4.457 0-4.12 4.234-4.82 9.315-4.82 5.08 0 8.629.7 8.629 4.868h-5.493c0-.771-.916-.771-3.365-.771-2.792 0-3.593 0-3.593.554 0 .603.572.579 4.05.77 5.403.29 8.859.628 8.859 4.41 0 4.409-3.662 5.109-8.858 5.109-5.196 0-9.773-.7-9.773-5.23h5.493ZM329.617 179.842c0 .819.732 1.133 4.05 1.133 3.068 0 3.595-.146 3.595-.772 0-.722-.527-.65-3.823-.795-6.317-.265-9.087-.771-9.087-4.457 0-4.12 4.235-4.82 9.316-4.82 5.08 0 8.629.7 8.629 4.868h-5.493c0-.771-.916-.771-3.365-.771-2.792 0-3.593 0-3.593.554 0 .603.572.579 4.05.77 5.403.29 8.859.628 8.859 4.41 0 4.409-3.662 5.109-8.858 5.109-5.196 0-9.773-.7-9.773-5.23h5.493ZM344.269 184.829h5.493v-14.456h-5.493v14.456Zm0-15.42h5.493v-3.854h-5.493v3.854ZM356.722 179.842c0 .819.732 1.133 4.05 1.133 3.068 0 3.595-.146 3.595-.772 0-.722-.527-.65-3.823-.795-6.317-.265-9.086-.771-9.086-4.457 0-4.12 4.234-4.82 9.315-4.82 5.08 0 8.629.7 8.629 4.868h-5.493c0-.771-.916-.771-3.365-.771-2.792 0-3.593 0-3.593.554 0 .603.572.579 4.05.77 5.403.29 8.859.628 8.859 4.41 0 4.409-3.662 5.109-8.858 5.109-5.196 0-9.773-.7-9.773-5.23h5.493ZM378.881 175.191v2.988c0 1.373.503 2.072 2.105 2.072 1.236 0 1.923 0 3.502-.24v4.698c-1.304.24-2.929.361-4.737.361-4.258 0-6.363-1.374-6.363-4.506v-5.373h-2.77v-4.818h2.77v-2.41l5.493-1.446v3.856h5.607v4.818h-5.607ZM386.277 184.829h5.493v-14.456h-5.493v14.456Zm0-15.42h5.493v-3.854h-5.493v3.854ZM398.73 179.842c0 .819.732 1.133 4.051 1.133 3.067 0 3.594-.146 3.594-.772 0-.722-.527-.65-3.823-.795-6.317-.265-9.087-.771-9.087-4.457 0-4.12 4.235-4.82 9.316-4.82s8.629.7 8.629 4.868h-5.493c0-.771-.916-.771-3.365-.771-2.792 0-3.593 0-3.593.554 0 .603.572.579 4.051.77 5.402.29 8.858.628 8.858 4.41 0 4.409-3.662 5.109-8.858 5.109-5.196 0-9.773-.7-9.773-5.23h5.493ZM422.148 170.132c5.425 0 8.835 1.83 9.293 6.385h-5.607c-.436-1.23-1.717-1.566-3.686-1.566-2.449 0-3.845.53-3.845 2.65s1.396 2.65 3.845 2.65c1.97 0 3.25-.337 3.686-1.565h5.607c-.458 4.553-3.868 6.384-9.293 6.384-5.836 0-9.338-2.12-9.338-7.47 0-5.348 3.502-7.468 9.338-7.468M451.588 176.372v8.457h-5.493v-6.096c0-2.48-.848-3.542-3.32-3.542-1.625 0-3.341.747-4.416 1.831v7.807h-5.494v-19.274h5.494v6.746c1.647-1.205 3.752-2.169 6.637-2.169 3.09 0 6.592 1.011 6.592 6.24M458.823 175.674h6.913c-.618-1.302-1.992-1.446-3.457-1.446-1.465 0-2.838.144-3.456 1.446m7.164 3.734h5.38c-.688 3.83-3.64 5.662-9.293 5.662-5.379 0-9.11-2.12-9.11-7.47 0-5.348 3.731-7.468 9.338-7.468 5.654 0 9.293 2.12 9.293 8.433h-13.023c.457 1.542 1.991 1.927 3.502 1.927 1.991 0 2.792-.144 3.913-1.084M487.438 170.614v4.818c-1.281-.337-2.313-.48-3.318-.48-1.947 0-4.075.24-5.654 2.07v7.807h-5.493v-14.456h5.493v2.41c1.212-1.904 3.09-2.65 5.332-2.65 1.603 0 2.725.24 3.64.481M517.129 170.373v14.456h-5.493v-1.928c-1.65 1.205-3.754 2.169-6.638 2.169-3.09 0-6.592-1.011-6.592-6.24v-8.457h5.494v6.096c0 2.481.846 3.542 3.318 3.542 1.625 0 3.342-.747 4.418-1.831v-7.807h5.493ZM537.8 176.372v8.457h-5.492v-6.096c0-2.48-.848-3.542-3.32-3.542-1.625 0-3.341.747-4.416 1.831v7.807h-5.494v-14.456h5.494v1.928c1.647-1.205 3.752-2.169 6.637-2.169 3.09 0 6.592 1.011 6.592 6.24M552.407 177.6c0-2.12-1.396-2.648-3.845-2.648-2.449 0-3.845.529-3.845 2.649s1.396 2.65 3.845 2.65c2.45 0 3.845-.53 3.845-2.65Zm5.493-12.045v19.275h-5.493v-1.976c-1.44 1.542-3.547 2.217-5.676 2.217-3.548 0-7.508-1.64-7.508-7.47s3.96-7.47 7.508-7.47c2.13 0 4.235.676 5.676 2.218v-6.794h5.493ZM237.06 212.107c-.87-.24-2.06-.362-3.639-.362-2.54 0-3.639.241-3.639 1.157 0 .795.64.915 2.037.915 1.853 0 3.868-.48 5.241-1.108v-.602Zm5.493-1.832v7.156h-5.493v-1.759c-2.128 1.64-4.509 2-6.889 2-3.136 0-5.882-1.18-5.882-4.313 0-3.758 4.12-4.746 8.125-4.746 1.922 0 3.387.265 4.646.747 0-1.734-1.739-1.807-3.57-1.807-1.763 0-3.777.168-6.295.746l-1.785-4.095c2.747-.94 5.722-1.47 8.262-1.47 5.631 0 8.835 2.024 8.881 7.541ZM263.156 208.975v8.457h-5.493v-6.096c0-2.481-.847-3.542-3.319-3.542-1.625 0-3.34.747-4.417 1.83v7.808h-5.493v-14.456h5.493v1.928c1.647-1.205 3.753-2.17 6.637-2.17 3.09 0 6.592 1.012 6.592 6.24M272.522 207.794v2.988c0 1.373.502 2.072 2.105 2.072 1.236 0 1.923 0 3.502-.241v4.699c-1.305.24-2.93.36-4.738.36-4.257 0-6.363-1.373-6.363-4.505v-5.373h-2.77v-4.818h2.77v-2.41l5.493-1.446v3.856h5.608v4.818h-5.608ZM279.918 217.432h5.493v-14.456h-5.493v14.456Zm0-15.42h5.493v-3.855h-5.493v3.855ZM292.37 212.444c0 .82.732 1.132 4.051 1.132 3.067 0 3.594-.145 3.594-.77 0-.723-.527-.65-3.823-.796-6.317-.265-9.086-.77-9.086-4.457 0-4.12 4.234-4.819 9.315-4.819 5.081 0 8.63.7 8.63 4.867h-5.494c0-.77-.916-.77-3.365-.77-2.792 0-3.593 0-3.593.553 0 .603.572.58 4.051.771 5.402.29 8.858.627 8.858 4.41 0 4.408-3.662 5.108-8.858 5.108-5.196 0-9.773-.7-9.773-5.229h5.493ZM312.31 208.276h6.912c-.618-1.302-1.991-1.446-3.456-1.446-1.465 0-2.838.144-3.456 1.446m7.164 3.734h5.378c-.686 3.831-3.64 5.662-9.292 5.662-5.38 0-9.11-2.12-9.11-7.469s3.73-7.469 9.339-7.469c5.653 0 9.292 2.12 9.292 8.433h-13.023c.458 1.542 1.99 1.927 3.502 1.927 1.99 0 2.792-.144 3.914-1.084M355.664 208.733v8.698h-5.493v-6.095c0-2.482-.618-3.542-2.632-3.542-1.396 0-2.564.627-3.73 1.831v7.806h-5.494v-6.095c0-2.482-.618-3.542-2.632-3.542-1.396 0-2.564.627-3.73 1.831v7.806h-5.495v-14.456h5.494v2.41c1.213-1.206 2.838-2.65 6.18-2.65 1.716 0 3.891.53 4.967 2.65 1.441-1.446 3.547-2.65 6.89-2.65 2.402 0 5.675 1.011 5.675 5.998M357.638 217.432h5.493v-14.456h-5.493v14.456Zm0-15.42h5.493v-3.855h-5.493v3.855ZM372.655 207.794v2.988c0 1.373.503 2.072 2.105 2.072 1.236 0 1.923 0 3.502-.241v4.699c-1.304.24-2.93.36-4.737.36-4.258 0-6.363-1.373-6.363-4.505v-5.373h-2.77v-4.818h2.77v-2.41l5.493-1.446v3.856h5.607v4.818h-5.607ZM380.05 217.432h5.493v-14.456h-5.493v14.456Zm0-15.42h5.493v-3.855h-5.493v3.855ZM392.503 212.444c0 .82.732 1.132 4.051 1.132 3.067 0 3.594-.145 3.594-.77 0-.723-.527-.65-3.823-.796-6.317-.265-9.087-.77-9.087-4.457 0-4.12 4.235-4.819 9.316-4.819s8.63.7 8.63 4.867h-5.494c0-.77-.916-.77-3.365-.77-2.792 0-3.593 0-3.593.553 0 .603.572.58 4.051.771 5.402.29 8.858.627 8.858 4.41 0 4.408-3.662 5.108-8.858 5.108-5.196 0-9.773-.7-9.773-5.229h5.493ZM415.922 202.734c5.425 0 8.835 1.831 9.293 6.385h-5.607c-.436-1.229-1.717-1.566-3.686-1.566-2.45 0-3.845.53-3.845 2.65 0 2.121 1.396 2.65 3.845 2.65 1.969 0 3.25-.337 3.686-1.565h5.607c-.458 4.553-3.868 6.384-9.293 6.384-5.836 0-9.338-2.12-9.338-7.469s3.502-7.469 9.338-7.469M445.36 208.975v8.457h-5.493v-6.096c0-2.481-.847-3.542-3.319-3.542-1.625 0-3.34.747-4.417 1.83v7.808h-5.494v-19.275h5.494v6.747c1.648-1.205 3.753-2.17 6.637-2.17 3.09 0 6.592 1.012 6.592 6.24M452.597 208.276h6.913c-.618-1.302-1.992-1.446-3.457-1.446-1.465 0-2.838.144-3.456 1.446m7.164 3.734h5.379c-.687 3.831-3.64 5.662-9.292 5.662-5.38 0-9.11-2.12-9.11-7.469s3.73-7.469 9.338-7.469c5.654 0 9.293 2.12 9.293 8.433h-13.023c.457 1.542 1.99 1.927 3.502 1.927 1.99 0 2.792-.144 3.913-1.084M481.21 203.217v4.818c-1.28-.337-2.311-.481-3.317-.481-1.946 0-4.075.24-5.654 2.07v7.808h-5.493v-14.456h5.493v2.409c1.213-1.903 3.09-2.65 5.333-2.65 1.602 0 2.724.24 3.639.482M501.632 208.252h10.392v9.18h-3.434l-.435-2.434c-1.35 1.662-3.456 2.675-6.82 2.675-5.905 0-9.385-2.819-9.385-8.698 0-5.855 3.48-8.65 10.072-8.65 6.408 0 9.75 2.362 10.002 6.963h-6.088c-.23-.867-1.397-1.662-3.914-1.662-3.526 0-4.12 1.565-4.12 3.59 0 2.048.618 3.879 4.12 3.879 2.289 0 3.684-.337 3.914-1.47h-4.304v-3.373ZM519.215 208.276h6.912c-.617-1.302-1.991-1.446-3.456-1.446-1.465 0-2.838.144-3.456 1.446m7.164 3.734h5.379c-.687 3.831-3.64 5.662-9.293 5.662-5.378 0-9.11-2.12-9.11-7.469s3.732-7.469 9.339-7.469c5.654 0 9.292 2.12 9.292 8.433h-13.022c.457 1.542 1.99 1.927 3.5 1.927 1.993 0 2.794-.144 3.915-1.084M562.408 202.976l-5.722 14.456h-6.661l-2.86-7.542-2.861 7.542h-6.661l-5.722-14.456h6.18l3.18 9.106 3.023-9.106h5.72l3.023 9.106 3.18-9.106zM575.53 212.107c-.87-.24-2.06-.362-3.64-.362-2.54 0-3.639.241-3.639 1.157 0 .795.641.915 2.037.915 1.854 0 3.868-.48 5.241-1.108v-.602Zm5.493-1.832v7.156h-5.494v-1.759c-2.128 1.64-4.509 2-6.889 2-3.135 0-5.882-1.18-5.882-4.313 0-3.758 4.12-4.746 8.125-4.746 1.922 0 3.387.265 4.646.747 0-1.734-1.739-1.807-3.57-1.807-1.762 0-3.777.168-6.294.746l-1.785-4.095c2.746-.94 5.721-1.47 8.262-1.47 5.63 0 8.835 2.024 8.881 7.541ZM582.927 217.433h5.493v-19.276h-5.493zM597.942 207.794v2.988c0 1.373.504 2.072 2.106 2.072 1.236 0 1.922 0 3.502-.241v4.699c-1.304.24-2.929.36-4.738.36-4.257 0-6.363-1.373-6.363-4.505v-5.373h-2.77v-4.818h2.77v-2.41l5.493-1.446v3.856h5.608v4.818h-5.608Z" fill="#F2E518"/><path d="M177 0h-62c-11.046 0-20 8.954-20 20 0 11.045 8.954 20 20 20h62c11.045 0 20-8.955 20-20 0-11.046-8.955-20-20-20Zm-47.198 10.267-6.813 19.466h-4.205L112 10.267h4.474l4.406 14.64 4.434-14.64h4.488Zm12.733 9.453c1.002.249 1.793.752 2.371 1.51.578.757.866 1.684.866 2.78 0 1.872-.6 3.29-1.8 4.252-1.2.962-2.911 1.452-5.132 1.47h-7.604V10.268h6.852c2.373 0 4.173.452 5.4 1.357 1.228.905 1.841 2.231 1.841 3.977 0 .954-.247 1.794-.74 2.52-.492.727-1.177 1.26-2.054 1.599Zm20.534 10.013h-4.326l-3.667-7.126h-3.212v7.126h-4.03V10.267h7.269c2.31 0 4.093.513 5.346 1.538 1.254 1.025 1.881 2.473 1.881 4.344 0 1.329-.288 2.436-.866 3.323-.578.887-1.453 1.593-2.627 2.119l4.232 7.954v.188Zm16.93-2.46c-.725.864-1.75 1.535-3.076 2.012-1.325.476-2.794.714-4.406.714-1.694 0-3.178-.367-4.455-1.102-1.276-.735-2.26-1.802-2.955-3.202-.694-1.4-1.05-3.044-1.068-4.933v-1.323c0-1.943.33-3.625.987-5.047.659-1.422 1.608-2.51 2.849-3.263 1.24-.752 2.693-1.13 4.36-1.13 2.318 0 4.132.551 5.44 1.652 1.308 1.101 2.083 2.703 2.325 4.806h-3.923c-.18-1.114-.576-1.93-1.19-2.446-.613-.517-1.457-.776-2.532-.776-1.37 0-2.414.513-3.13 1.538-.717 1.025-1.08 2.55-1.089 4.572v1.243c0 2.041.39 3.583 1.17 4.626.778 1.043 1.92 1.564 3.425 1.564 1.513 0 2.593-.321 3.238-.962V22.46H172.3v-2.955H180v7.768Zm-22.532-8.684c.555-.512.833-1.218.833-2.119 0-.917-.262-1.64-.786-2.166-.524-.525-1.328-.788-2.411-.788h-3.239v5.842h3.252c1.012 0 1.796-.256 2.351-.769Zm-16.525 7.246c.534-.45.8-1.071.8-1.864 0-1.783-.927-2.688-2.781-2.715h-3.695v5.255h3.453c.949 0 1.69-.226 2.223-.676Zm.357-9.832c0-.883-.258-1.518-.773-1.905-.515-.388-1.328-.582-2.438-.582h-2.822v4.907h2.982c2.034-.036 3.05-.843 3.05-2.42Z" fill="#FFF" fill-rule="nonzero"/></g></svg>