<svg viewBox="0 0 600 100" xmlns="http://www.w3.org/2000/svg"><path d="M599.998 36.548v-.11l-2.411-4.635c.669-.307 1.168-.718 1.496-1.235.33-.517.494-1.162.494-1.937 0-1.09-.357-1.935-1.071-2.533-.714-.596-1.73-.894-3.046-.894h-4.142v11.344h2.297v-4.152h1.829l2.09 4.152h2.464Zm-2.718-7.73c0 .526-.157.937-.474 1.235-.316.3-.762.448-1.34.448h-1.851v-3.404h1.845c.617 0 1.074.153 1.374.458.298.307.446.729.446 1.263ZM255 50C255 22.385 232.612 0 204.999 0h-155C22.385 0 0 22.385 0 50c0 27.613 22.385 50 50 50h154.999c27.613 0 50-22.387 50-50ZM87.004 25.67l-17.03 48.663H59.46L42.499 25.668h11.185L64.7 62.265l11.084-36.597h11.219Zm31.833 23.63c2.506.623 4.483 1.882 5.928 3.776 1.445 1.893 2.166 4.21 2.166 6.952 0 4.678-1.501 8.221-4.501 10.627-3 2.406-7.278 3.632-12.83 3.678H90.59V25.668h17.129c5.933 0 10.433 1.13 13.502 3.392 3.068 2.263 4.602 5.577 4.602 9.943 0 2.385-.617 4.486-1.848 6.3-1.231 1.817-2.944 3.15-5.138 3.996Zm51.336 25.033h-10.815l-9.168-17.815h-8.03v17.815h-10.075V25.668h18.172c5.776 0 10.232 1.282 13.366 3.844 3.135 2.563 4.703 6.182 4.703 10.862 0 3.321-.722 6.089-2.166 8.306-1.445 2.217-3.634 3.983-6.567 5.297l10.58 19.886v.469Zm42.326-6.15c-1.813 2.16-4.378 3.837-7.692 5.03-3.313 1.19-6.985 1.787-11.016 1.787-4.233 0-7.944-.92-11.135-2.757-3.191-1.838-5.654-4.505-7.39-8.005-1.735-3.498-2.626-7.61-2.67-12.333v-3.307c0-4.858.824-9.063 2.47-12.617 1.645-3.554 4.018-6.273 7.12-8.156 3.101-1.883 6.735-2.824 10.9-2.824 5.797 0 10.332 1.375 13.603 4.127 3.268 2.753 5.205 6.758 5.81 12.016h-9.807c-.448-2.786-1.44-4.825-2.972-6.116-1.535-1.293-3.646-1.938-6.333-1.938-3.425 0-6.034 1.28-7.826 3.843-1.79 2.563-2.699 6.373-2.72 11.43v3.108c0 5.103.974 8.957 2.923 11.564 1.947 2.607 4.803 3.91 8.563 3.91 3.784 0 6.483-.802 8.095-2.405v-8.39h-9.169v-7.386H212.5V68.18Zm-56.332-21.709c1.389-1.28 2.084-3.046 2.084-5.297 0-2.295-.657-4.1-1.965-5.415-1.311-1.314-3.322-1.97-6.03-1.97h-8.096v14.605h8.13c2.53 0 4.49-.64 5.877-1.923Zm-41.312 18.115c1.334-1.125 1.999-2.68 1.999-4.662 0-4.457-2.318-6.718-6.952-6.785h-9.237v13.135h8.632c2.373 0 4.227-.562 5.558-1.688Zm.891-24.581c0-2.207-.644-3.794-1.931-4.763-1.288-.97-3.32-1.453-6.096-1.453h-7.054v12.266h7.456c5.083-.09 7.625-2.106 7.625-6.05Zm184.302-14.803h-2.55l3.865 11.344h2.398l3.88-11.344h-2.556l-2.527 8.53-2.51-8.53Zm1.354 19.147H297.5v11.344h4.332c1.266-.01 2.24-.295 2.924-.856.685-.56 1.025-1.388 1.025-2.478 0-.639-.164-1.18-.492-1.621-.33-.441-.78-.734-1.351-.88.5-.198.889-.508 1.171-.932.28-.423.42-.911.42-1.467 0-1.02-.35-1.792-1.048-2.32-.7-.525-1.725-.79-3.078-.79Zm-1.607 6.405h2.105c1.056.016 1.585.543 1.585 1.582 0 .462-.153.824-.456 1.087-.304.262-.725.393-1.267.393h-1.967v-3.062Zm0-4.51h1.607c.634 0 1.096.112 1.39.338.293.226.44.596.44 1.11 0 .919-.58 1.39-1.738 1.41h-1.699v-2.858Zm0 17.254H297.5v7.556c.016 1.226.406 2.191 1.171 2.891.766.702 1.8 1.052 3.1 1.052 1.322 0 2.365-.36 3.127-1.082.763-.723 1.144-1.703 1.144-2.945V63.5h-2.303v7.55c-.021 1.38-.678 2.072-1.969 2.072-.617 0-1.1-.17-1.45-.51-.349-.34-.524-.882-.524-1.624V63.5Zm117.1 0h-9.08v1.893h3.368v9.45h2.297v-9.45h3.415V63.5Zm-12.967 11.343h2.297V63.5h-2.297v11.343Zm-8.299-3.116-2.863-8.227h-3v11.343h2.297v-3.1l-.23-5.345 3 8.445h1.577l3.008-8.452-.23 5.352v3.1h2.304V63.5h-3.016l-2.847 8.227Zm-7.687-8.227h-7.456v11.343h7.47v-1.876h-5.173v-3.04h4.408v-1.83h-4.408v-2.704h5.16V63.5Zm-3.738-19.149h-2.287v7.48l-4.479-7.48h-2.296v11.344h2.296v-7.463l4.47 7.463h2.296V44.35Zm-5.836-19.147h-3.43v11.344h3.453c.975-.006 1.85-.235 2.626-.686a4.626 4.626 0 0 0 1.803-1.909c.425-.82.638-1.759.638-2.813v-.52c0-1.056-.217-1.997-.65-2.826-.435-.828-1.038-1.468-1.81-1.916-.773-.45-1.65-.674-2.63-.674Zm-1.133 1.893h1.133c.903 0 1.589.298 2.06.892.47.595.704 1.468.704 2.621v.6c-.01 1.111-.253 1.967-.727 2.563-.474.598-1.162.896-2.06.896h-1.11v-7.572Zm-2.757 36.246c-.792 0-1.504.136-2.14.406-.634.27-1.123.645-1.462 1.125a2.784 2.784 0 0 0-.51 1.64c0 1.18.634 2.117 1.9 2.814.464.254 1.094.513 1.891.774.796.263 1.346.512 1.653.748.307.236.459.575.459 1.018 0 .404-.152.72-.459.947-.307.226-.732.339-1.279.339-1.47 0-2.205-.627-2.205-1.879h-2.303c0 .732.185 1.378.555 1.932.37.557.907.994 1.61 1.314.706.319 1.486.478 2.343.478 1.235 0 2.217-.279 2.948-.836.73-.56 1.095-1.329 1.095-2.311 0-.884-.3-1.621-.896-2.214-.598-.59-1.549-1.086-2.856-1.487-.709-.218-1.247-.451-1.61-.702-.365-.248-.549-.557-.549-.926 0-.395.157-.714.468-.956.312-.24.748-.361 1.309-.361.582 0 1.033.144 1.354.432.323.289.483.693.483 1.212h2.297c0-.681-.173-1.288-.517-1.823-.345-.536-.829-.95-1.451-1.243-.623-.293-1.332-.441-2.128-.441Zm-8.623 11.5h2.296V63.5h-2.296v11.343Zm-1.44-49.639h-3.43v11.344h3.453c.974-.006 1.849-.235 2.625-.686a4.626 4.626 0 0 0 1.803-1.909c.427-.82.638-1.759.638-2.813v-.52c0-1.056-.217-1.997-.649-2.826-.434-.828-1.037-1.468-1.811-1.916-.773-.45-1.65-.674-2.629-.674Zm-1.134 1.893h1.134c.903 0 1.59.298 2.059.892.469.595.704 1.468.704 2.621v.6c-.011 1.111-.253 1.967-.727 2.563-.475.598-1.16.896-2.06.896h-1.11v-7.572Zm1.046 17.254h-7.256v11.344h2.296v-4.636h4.408v-1.885h-4.408v-2.928h4.96V44.35Zm-3.484 30.492v-9.45h3.415V63.5h-9.078v1.893h3.369v9.45h2.294Zm-5.309-30.492h-7.256v11.344h2.296v-4.636h4.41v-1.885h-4.41v-2.928h4.96V44.35Zm-4.17 26.628-4.476-7.48h-2.297v11.344h2.297V67.38l4.47 7.463h2.296V63.5h-2.29v7.479Zm-9.488-45.775-4.148 11.344h2.441l.766-2.337h4.026l.773 2.337h2.441l-4.171-11.344h-2.128Zm-.32 7.112 1.384-4.246 1.4 4.246h-2.785Zm-4.142 14.517c-.395.848-.593 1.833-.593 2.95v.56c.004 1.09.206 2.055.603 2.895.399.84.96 1.483 1.685 1.935.725.453 1.549.679 2.473.679.933 0 1.762-.23 2.483-.686.724-.457 1.277-1.106 1.666-1.948.388-.841.582-1.82.582-2.937v-.506c0-1.113-.198-2.094-.593-2.942-.397-.848-.954-1.501-1.678-1.956-.721-.454-1.546-.681-2.476-.681-.928 0-1.753.227-2.477.68-.72.456-1.28 1.109-1.675 1.957Zm1.734 2.894c.005-1.178.217-2.074.635-2.684.418-.61 1.012-.916 1.783-.916.776 0 1.372.31 1.792.928.418.618.628 1.522.628 2.711v.554c-.005 1.178-.215 2.076-.628 2.692-.414.615-1.005.922-1.776.922-.787 0-1.388-.319-1.806-.957-.42-.639-.628-1.539-.628-2.696v-.554ZM336.906 63.5l-4.149 11.343h2.441l.766-2.337h4.027l.772 2.337h2.442L339.033 63.5h-2.127Zm-.323 7.114 1.386-4.248 1.4 4.248h-2.786Zm-5.405-26.263h-4.141v11.344h2.296v-4.152h1.83l2.09 4.152h2.464v-.108l-2.411-4.637c.668-.305 1.167-.718 1.497-1.235.328-.517.494-1.16.494-1.935 0-1.092-.358-1.935-1.072-2.533-.715-.596-1.73-.896-3.047-.896Zm-1.845 1.895h1.845c.618 0 1.076.153 1.375.458.298.307.448.729.448 1.263 0 .524-.16.937-.475 1.235-.317.298-.764.448-1.34.448h-1.853v-3.404Zm-1.72 19.843a4.674 4.674 0 0 0-1.81-1.915c-.773-.45-1.65-.674-2.63-.674h-3.428v11.343h3.452c.974-.005 1.85-.232 2.625-.686a4.604 4.604 0 0 0 1.802-1.908c.427-.82.64-1.759.64-2.812v-.522c0-1.055-.216-1.997-.65-2.826Zm-1.677 3.417c-.009 1.113-.252 1.967-.727 2.565-.474.596-1.16.896-2.058.896h-1.11v-7.574h1.133c.903 0 1.59.298 2.058.892.47.595.704 1.468.704 2.621v.6Zm-.42-25.155h-9.078v1.895h3.367v9.449h2.296v-9.45h3.415v-1.894Zm-17.744 11.344h7.472v-1.877h-5.176v-3.04h4.41v-1.83h-4.41v-2.702h5.16V44.35h-7.456v11.344Zm2.845 19.148V67.38l4.47 7.463h2.296V63.5h-2.288v7.479l-4.478-7.48h-2.297v11.344h2.297Zm.714-40.174v-3.037h4.408V29.8h-4.408v-2.704h5.16v-1.893h-7.456v11.344h7.47v-1.879h-5.174Zm15.664 1.77-2.412-4.636c.669-.307 1.168-.718 1.496-1.235.33-.517.494-1.162.494-1.937 0-1.09-.356-1.935-1.07-2.533-.715-.596-1.731-.894-3.047-.894h-4.142v11.344h2.297v-4.152h1.83l2.09 4.152h2.464v-.11Zm-2.719-7.62c0 .525-.157.936-.474 1.234-.316.3-.762.448-1.339.448h-1.852v-3.404h1.845c.617 0 1.074.153 1.374.458.298.307.446.729.446 1.263Zm12.116 2.774c-.33-.443-.78-.736-1.35-.882.499-.196.89-.506 1.17-.93a2.6 2.6 0 0 0 .422-1.469c0-1.018-.35-1.79-1.05-2.318-.698-.527-1.724-.79-3.077-.79h-3.904v11.344h4.332c1.267-.01 2.242-.297 2.925-.858.684-.56 1.026-1.386 1.026-2.478 0-.638-.165-1.178-.494-1.619Zm-2.054-3.046c0 .919-.58 1.388-1.738 1.41h-1.7v-2.86h1.607c.633 0 1.097.113 1.39.338.292.226.44.597.44 1.112Zm.252 4.642c0 .462-.152.826-.455 1.087-.305.263-.727.393-1.269.393H330.9v-3.062h2.106c1.055.016 1.584.543 1.584 1.582Zm21.745-7.985v7.479l-4.477-7.479h-2.296v11.344h2.296v-7.465l4.47 7.465h2.297V25.204h-2.29Zm11.823 28.614v-3.04h4.41v-1.83h-4.41v-2.702h5.16V44.35h-7.456v11.344h7.472v-1.877h-5.176Zm19.534-19.149v-3.037h4.408V29.8h-4.408v-2.704h5.159v-1.893h-7.456v11.344h7.47v-1.879h-5.173Zm1.17 19.149v-3.04h4.409v-1.83h-4.408v-2.702h5.16V44.35h-7.457v11.344h7.47v-1.877h-5.173Zm14.493-17.38-2.411-4.635c.668-.307 1.167-.718 1.497-1.235.328-.517.494-1.162.494-1.937 0-1.09-.358-1.935-1.072-2.533-.715-.596-1.73-.894-3.047-.894h-4.141v11.344h2.296v-4.152h1.83l2.09 4.152h2.464v-.11Zm-2.716-7.62c0 .526-.16.937-.475 1.235-.317.3-.764.448-1.34.448h-1.853v-3.404h1.845c.618 0 1.076.153 1.375.458.298.307.448.729.448 1.263Zm7.19 26.77-2.41-4.638c.668-.305 1.167-.718 1.495-1.235.33-.517.494-1.16.494-1.935 0-1.092-.356-1.935-1.07-2.533-.715-.596-1.73-.896-3.047-.896h-4.141v11.344h2.296v-4.152h1.83l2.09 4.152h2.464v-.108Zm-2.717-7.62c0 .523-.157.936-.475 1.234-.315.298-.762.448-1.339.448h-1.852v-3.404h1.845c.618 0 1.075.153 1.373.458.3.307.448.729.448 1.263Zm11.121-16.375c-.328-.443-.78-.736-1.351-.882.5-.196.89-.506 1.171-.93a2.6 2.6 0 0 0 .422-1.469c0-1.018-.35-1.79-1.05-2.318-.698-.527-1.723-.79-3.076-.79h-3.904v11.344h4.333c1.264-.01 2.24-.297 2.924-.858.683-.56 1.025-1.386 1.025-2.478 0-.638-.164-1.178-.494-1.619Zm-2.055-3.046c0 .919-.578 1.388-1.737 1.41h-1.699v-2.86h1.607c.633 0 1.095.113 1.39.338.293.226.44.597.44 1.112Zm.252 4.642c0 .462-.151.826-.455 1.087-.303.263-.725.393-1.266.393h-1.967v-3.062h2.104c1.057.016 1.584.543 1.584 1.582Zm-2.695 20.629v-3.04h4.41v-1.83h-4.41v-2.702h5.16V44.35h-7.456v11.344h7.471v-1.877h-5.175Zm155.29 19.046c-.237-.222-.537-.335-.899-.335-.358 0-.654.113-.892.335-.237.224-.355.515-.355.873 0 .353.117.64.351.861.235.22.533.332.896.332.367 0 .669-.111.903-.332.235-.22.353-.508.353-.86 0-.359-.12-.65-.356-.874Zm-.82-24.664c-.121-1.267-.576-2.25-1.363-2.953-.785-.7-1.82-1.051-3.106-1.051-.93 0-1.744.222-2.446.667-.703.442-1.242 1.08-1.62 1.912-.377.83-.566 1.792-.566 2.882v.693c0 1.71.41 3.053 1.23 4.032.818.98 1.942 1.47 3.37 1.47 1.307 0 2.36-.351 3.158-1.052.799-.702 1.241-1.663 1.328-2.884h-2.297c-.05.692-.25 1.202-.6 1.532-.35.33-.88.495-1.589.495-.785 0-1.361-.284-1.725-.85-.365-.566-.548-1.462-.548-2.688v-.857c.01-1.173.206-2.04.585-2.599.381-.557.954-.836 1.72-.836.704 0 1.228.164 1.572.494.345.33.545.86.601 1.593h2.297ZM557.5 63.5h-2.549l3.867 11.343h2.395l3.88-11.343h-2.555l-2.526 8.532-2.512-8.532Zm-3.653 9.03c-.356 0-.654.112-.89.334-.239.224-.357.515-.357.873 0 .353.117.64.351.861.236.22.535.332.896.332.369 0 .669-.111.903-.332.235-.22.353-.508.353-.86 0-.359-.118-.65-.356-.874-.237-.222-.536-.335-.9-.335Zm-2.896-9.03h-7.454v11.343h7.47v-1.876h-5.176v-3.04h4.41v-1.83h-4.41v-2.704h5.16V63.5Zm-8.008-7.805h2.296V44.35h-2.296v11.344Zm-1.699-30.49h-2.296v11.343h7.173v-1.879h-4.877v-9.465Zm.102 19.146h-9.078v1.895h3.367v9.449h2.297v-9.45h3.414v-1.894Zm-8.798-19.147h-2.295v11.344h7.172v-1.879h-4.877v-9.465Zm-9.87 49.64h7.171v-1.877h-4.875V63.5h-2.296v11.343Zm12.33 0v-9.451h3.414V63.5h-9.079v1.893h3.368v9.45h2.296Zm-5.894-30.209c-.623-.293-1.334-.44-2.13-.44-.79 0-1.504.137-2.139.407-.635.27-1.121.645-1.462 1.125a2.774 2.774 0 0 0-.508 1.64c0 1.179.632 2.117 1.898 2.812.464.254 1.095.513 1.89.776.796.261 1.349.512 1.654.748.307.236.46.575.46 1.016 0 .406-.153.721-.46.947-.305.226-.732.339-1.277.339-1.471 0-2.205-.626-2.205-1.879h-2.304c0 .734.184 1.378.554 1.934.37.555.907.993 1.612 1.312.704.32 1.485.48 2.343.48 1.234 0 2.217-.279 2.945-.838.73-.56 1.096-1.328 1.096-2.31 0-.883-.298-1.622-.896-2.213-.597-.592-1.55-1.088-2.854-1.488-.711-.217-1.247-.452-1.613-.7-.365-.251-.546-.56-.546-.929 0-.395.155-.712.465-.954.313-.241.748-.361 1.31-.361.581 0 1.033.142 1.356.432.32.287.481.691.481 1.212h2.297c0-.681-.173-1.29-.517-1.824-.344-.535-.827-.95-1.45-1.244Zm-7.823 30.208L517.12 63.5h-2.128l-4.148 11.343h2.44l.766-2.337h4.027l.773 2.337h2.441Zm-3.835-4.23h-2.785l1.385-4.247 1.4 4.248Zm.905-14.918h2.297V44.35h-2.297v11.344Zm1.09-30.49h-9.078v1.892h3.367v9.45h2.296v-9.45h3.415v-1.893Zm-10.793 20.522a2.774 2.774 0 0 0-.508 1.64c0 1.179.633 2.117 1.898 2.812.464.254 1.095.513 1.891.776.795.261 1.348.512 1.653.748.307.236.46.575.46 1.016 0 .406-.153.721-.46.947-.305.226-.732.339-1.277.339-1.471 0-2.205-.626-2.205-1.879h-2.304c0 .734.184 1.378.554 1.934.37.555.907.993 1.612 1.312.704.32 1.485.48 2.343.48 1.234 0 2.217-.279 2.945-.838.73-.56 1.096-1.328 1.096-2.31 0-.883-.298-1.622-.896-2.213-.596-.592-1.549-1.088-2.854-1.488-.711-.217-1.247-.452-1.612-.7-.366-.251-.547-.56-.547-.929 0-.395.155-.712.467-.954.31-.241.746-.361 1.309-.361.58 0 1.032.142 1.355.432.32.287.481.691.481 1.212h2.297c0-.681-.173-1.29-.517-1.824-.344-.535-.827-.95-1.45-1.244-.623-.293-1.332-.44-2.129-.44-.79 0-1.505.137-2.14.407-.635.27-1.121.645-1.462 1.125ZM500.02 63.5h-2.29l2.474 11.343h2.31l1.816-7.588 1.813 7.588h2.312l2.473-11.343h-2.29l-1.499 8.071-1.83-8.071h-1.944l-1.838 8.056-1.507-8.056Zm-1.32-17.773a2.776 2.776 0 0 0-.51 1.64c0 1.179.633 2.117 1.9 2.812.463.254 1.093.513 1.89.776.796.261 1.346.512 1.653.748.307.236.458.575.458 1.016 0 .406-.151.721-.458.947-.307.226-.732.339-1.279.339-1.47 0-2.205-.626-2.205-1.879h-2.303c0 .734.185 1.378.555 1.934.369.555.907.993 1.61 1.312.706.32 1.486.48 2.343.48 1.235 0 2.217-.279 2.947-.838.73-.56 1.096-1.328 1.096-2.31 0-.883-.3-1.622-.896-2.213-.598-.592-1.549-1.088-2.856-1.488-.709-.217-1.247-.452-1.61-.7-.365-.251-.549-.56-.549-.929 0-.395.157-.712.467-.954.31-.241.748-.361 1.31-.361.581 0 1.033.142 1.354.432.323.287.483.691.483 1.212h2.297c0-.681-.173-1.29-.517-1.824-.346-.535-.829-.95-1.452-1.244-.622-.293-1.331-.44-2.127-.44-.792 0-1.504.137-2.14.407-.634.27-1.123.645-1.462 1.125Zm-7.316 27.24v-3.04h4.41v-1.83h-4.41v-2.704h5.16V63.5h-7.456v11.343h7.472v-1.876h-5.176Zm-.522-28.616-4.148 11.344h2.44l.768-2.337h4.025l.773 2.337h2.443L492.99 44.35h-2.129Zm-.32 7.114 1.384-4.246 1.402 4.246h-2.787Zm-5.957 19.14v1.956c-.367.374-.983.56-1.845.56-.858 0-1.509-.302-1.951-.911-.445-.607-.667-1.506-.667-2.695v-.725c.005-1.178.212-2.067.62-2.665.408-.597 1.003-.896 1.784-.896.612 0 1.094.151 1.443.451.35.302.575.778.677 1.427h2.235c-.137-1.226-.578-2.159-1.324-2.801-.745-.642-1.778-.963-3.1-.963-.949 0-1.778.22-2.485.66-.705.439-1.247 1.072-1.623 1.9-.374.828-.562 1.81-.562 2.941v.771c.01 1.103.213 2.06.61 2.875.395.815.956 1.438 1.683 1.867.726.428 1.573.642 2.538.642.919 0 1.755-.138 2.51-.417.755-.277 1.34-.668 1.753-1.173v-4.526h-4.387v1.722h2.09ZM481.11 44.35h-4.14v11.344h2.295v-4.152h1.83l2.089 4.152h2.466v-.108l-2.411-4.637c.668-.305 1.167-.718 1.495-1.235.33-.517.494-1.16.494-1.935 0-1.092-.356-1.935-1.07-2.533-.715-.596-1.73-.896-3.048-.896Zm-1.845 1.895h1.845c.617 0 1.076.153 1.374.458.3.307.448.729.448 1.263 0 .524-.16.937-.475 1.235-.316.298-.762.448-1.339.448h-1.853v-3.404Zm-9.536 7.533v1.745c-.01.63-.187 1.259-.53 1.894l-.274.506 1.155.616c.44-.385.799-.87 1.08-1.457.28-.587.423-1.17.428-1.746l.009-1.558h-1.868Zm-1.297 9.72h-4.141v11.344h2.296v-4.152h1.83l2.09 4.152h2.464v-.109l-2.411-4.635c.668-.307 1.167-.718 1.497-1.235.328-.517.494-1.163.494-1.937 0-1.09-.358-1.935-1.072-2.531-.715-.598-1.73-.896-3.047-.896Zm-1.845 1.894h1.845c.618 0 1.076.153 1.375.46.298.307.448.727.448 1.261 0 .526-.16.937-.475 1.235-.317.3-.764.448-1.34.448h-1.853v-3.404Zm-4.12-1.893h-7.456v11.343h7.47v-1.876h-5.173v-3.04h4.408v-1.83h-4.408v-2.704h5.159V63.5Zm-5.844-38.296h-9.078v1.893h3.369v9.45h2.296v-9.45h3.413v-1.893Zm-14.733 0-4.15 11.344h2.442l.766-2.337h4.027l.772 2.337h2.443l-4.173-11.344h-2.127Zm-.321 7.112 1.384-4.246 1.4 4.246h-2.784Zm1.442 23.379h2.297v-9.45h3.415v-1.894h-9.079v1.895h3.367v9.449Zm2.86 19.148v-4.86h4.478v4.86h2.297V63.5h-2.297v4.597h-4.478V63.5h-2.297v11.343h2.297Zm-10.892-5.29v-.857c.01-1.173.206-2.04.585-2.598.381-.559.953-.838 1.718-.838.706 0 1.23.166 1.574.496.344.328.545.86.601 1.593h2.297c-.124-1.269-.577-2.253-1.364-2.953-.785-.702-1.822-1.053-3.108-1.053-.928 0-1.742.222-2.444.667-.703.444-1.242 1.08-1.62 1.913-.377.831-.566 1.79-.566 2.883v.693c0 1.71.41 3.053 1.228 4.032.82.98 1.944 1.468 3.372 1.468 1.307 0 2.359-.35 3.158-1.052.799-.7 1.241-1.661 1.328-2.882h-2.297c-.05.69-.25 1.201-.6 1.531-.35.33-.88.494-1.589.494-.786 0-1.361-.282-1.725-.848-.365-.566-.548-1.463-.548-2.688Zm3.134-25.202h-2.297v4.597h-4.478V44.35h-2.297v11.344h2.297v-4.862h4.478v4.862h2.297V44.35Zm-8.872 19.433c-.623-.293-1.332-.441-2.128-.441-.792 0-1.504.136-2.14.406-.636.27-1.123.645-1.461 1.125a2.771 2.771 0 0 0-.51 1.64c0 1.18.633 2.117 1.898 2.814.465.254 1.095.513 1.89.774.798.263 1.348.512 1.655.748.305.236.459.575.459 1.018 0 .404-.154.72-.459.947-.307.226-.732.339-1.279.339-1.469 0-2.204-.627-2.204-1.879h-2.304c0 .732.185 1.378.556 1.932.368.557.906.994 1.61 1.314.704.319 1.485.478 2.342.478 1.235 0 2.218-.279 2.948-.836.73-.56 1.093-1.329 1.093-2.311 0-.884-.298-1.621-.894-2.214-.598-.59-1.55-1.086-2.856-1.487-.709-.218-1.247-.451-1.612-.702-.363-.248-.547-.557-.547-.926 0-.395.156-.714.468-.956.31-.24.748-.361 1.309-.361.582 0 1.033.144 1.354.432.321.289.484.693.484 1.212h2.294c0-.681-.17-1.288-.516-1.823-.344-.536-.828-.95-1.45-1.243Zm-10.751 11.06h2.296V63.5h-2.296v11.343Zm8.731-26.644c-.123-1.267-.577-2.25-1.363-2.953-.785-.7-1.823-1.051-3.108-1.051-.928 0-1.743.222-2.445.667-.702.442-1.242 1.08-1.62 1.912-.377.83-.566 1.792-.566 2.882v.693c0 1.71.41 3.053 1.228 4.032.82.98 1.944 1.47 3.373 1.47 1.307 0 2.358-.351 3.157-1.052.799-.702 1.242-1.663 1.328-2.884h-2.296c-.052.692-.25 1.202-.6 1.532-.351.33-.88.495-1.59.495-.786 0-1.361-.284-1.726-.85-.364-.566-.547-1.462-.547-2.688v-.857c.01-1.173.206-2.04.586-2.599.38-.557.952-.836 1.718-.836.705 0 1.229.164 1.573.494.346.33.545.86.601 1.593h2.297Zm-6.207-13.53v-3.038h4.41V29.8h-4.41v-2.704h5.16v-1.893h-7.457v11.344h7.472v-1.879h-5.175Zm15.665 1.768-2.411-4.635c.668-.307 1.166-.718 1.496-1.235.33-.517.493-1.162.493-1.937 0-1.09-.358-1.935-1.072-2.533-.714-.596-1.729-.894-3.046-.894h-4.142v11.344h2.297v-4.152h1.829l2.09 4.152h2.466v-.11Zm-2.718-7.62c0 .526-.159.937-.475 1.235-.315.3-.763.448-1.34.448h-1.852v-3.404h1.845c.617 0 1.076.153 1.374.458.298.307.448.729.448 1.263Zm18.579 25v-3.04h4.41v-1.83h-4.41v-2.702h5.16V44.35h-7.457v11.344h7.472v-1.877h-5.175Zm11.791-28.614v7.55c-.019 1.38-.675 2.072-1.966 2.072-.618 0-1.1-.17-1.452-.511-.35-.339-.524-.88-.524-1.625v-7.486h-2.296v7.557c.015 1.226.405 2.189 1.17 2.89.766.7 1.8 1.052 3.102 1.052 1.32 0 2.363-.36 3.127-1.083.762-.722 1.143-1.704 1.143-2.944v-7.472h-2.304Zm3.874 30.383-2.413-4.637c.668-.305 1.168-.718 1.497-1.235.33-.517.494-1.16.494-1.935 0-1.092-.358-1.935-1.072-2.533-.714-.596-1.729-.896-3.046-.896h-4.142v11.344h2.297v-4.152h1.829l2.09 4.152h2.466v-.108Zm-2.718-7.62c0 .524-.159.937-.475 1.235-.317.298-.763.448-1.34.448h-1.852v-3.404h1.845c.617 0 1.076.153 1.374.458.298.307.448.729.448 1.263Zm10.202-22.763v7.479l-4.478-7.479h-2.297v11.344h2.297v-7.465l4.471 7.465h2.297V25.204h-2.29Zm11.086 7.105v1.956c-.369.374-.982.561-1.845.561-.857 0-1.508-.303-1.953-.912-.444-.608-.664-1.506-.664-2.695v-.725c.003-1.18.211-2.067.619-2.665.407-.596 1.003-.896 1.783-.896.612 0 1.094.151 1.443.451.349.302.575.778.677 1.427h2.235c-.138-1.226-.579-2.16-1.323-2.8-.746-.643-1.78-.964-3.1-.964-.95 0-1.777.22-2.484.66-.708.437-1.25 1.072-1.623 1.9-.376.829-.563 1.81-.563 2.942v.77c.01 1.101.214 2.06.609 2.876.395.815.956 1.437 1.684 1.866.727.429 1.572.642 2.537.642.919 0 1.755-.138 2.511-.416.755-.277 1.34-.669 1.752-1.173v-4.526h-4.385v1.721h2.09Zm7.086-3.155c-.364-.25-.547-.558-.547-.928 0-.394.157-.713.467-.955.31-.241.748-.361 1.31-.361.581 0 1.033.144 1.354.432.32.29.483.691.483 1.212h2.295c0-.681-.171-1.288-.515-1.824-.346-.535-.83-.949-1.452-1.242-.622-.294-1.332-.44-2.127-.44-.792 0-1.505.135-2.14.405-.635.27-1.123.645-1.462 1.125a2.771 2.771 0 0 0-.51 1.64c0 1.18.634 2.117 1.9 2.814.464.254 1.094.512 1.89.774.796.263 1.347.512 1.654.748.305.237.458.575.458 1.018 0 .404-.153.72-.458.945-.307.226-.732.34-1.28.34-1.468 0-2.204-.625-2.204-1.878h-2.304c0 .732.186 1.376.556 1.932.369.555.907.993 1.61 1.314.704.32 1.486.478 2.343.478 1.235 0 2.217-.279 2.947-.838.73-.557 1.094-1.328 1.094-2.309 0-.884-.298-1.62-.894-2.214-.598-.59-1.55-1.088-2.856-1.486-.71-.22-1.247-.454-1.612-.702Zm9.96 0c-.365-.25-.546-.558-.546-.928 0-.394.155-.713.465-.955.312-.241.748-.361 1.31-.361.581 0 1.033.144 1.355.432.321.29.482.691.482 1.212h2.297c0-.681-.173-1.288-.517-1.824-.344-.535-.828-.949-1.45-1.242-.623-.294-1.332-.44-2.13-.44-.79 0-1.504.135-2.139.405-.635.27-1.122.645-1.462 1.125a2.782 2.782 0 0 0-.508 1.64c0 1.18.631 2.117 1.898 2.814.464.254 1.095.512 1.89.774.796.263 1.348.512 1.654.748.306.237.46.575.46 1.018 0 .404-.154.72-.46.945-.306.226-.732.34-1.28.34-1.469 0-2.202-.625-2.202-1.878h-2.306c0 .732.185 1.376.556 1.932.37.555.906.993 1.612 1.314.704.32 1.483.478 2.34.478 1.237 0 2.22-.279 2.948-.838.73-.557 1.096-1.328 1.096-2.309 0-.884-.299-1.62-.896-2.214-.597-.59-1.55-1.088-2.856-1.486-.71-.22-1.246-.454-1.61-.702Zm19.445 5.515v-3.037h4.41V29.8h-4.41v-2.704h5.16v-1.893h-7.454v11.344h7.47v-1.879h-5.176Zm26.672 0v-3.037h4.41V29.8h-4.41v-2.704h5.16v-1.893h-7.456v11.344h7.47v-1.879h-5.174Zm.36 13.633c-.365-.25-.549-.559-.549-.928 0-.395.157-.712.468-.954.31-.241.748-.361 1.309-.361.582 0 1.033.142 1.354.432.323.287.484.691.484 1.212h2.296c0-.681-.173-1.29-.517-1.824-.345-.535-.829-.95-1.451-1.244-.623-.293-1.332-.44-2.128-.44-.792 0-1.504.137-2.14.407-.634.27-1.123.645-1.461 1.125a2.776 2.776 0 0 0-.51 1.64c0 1.179.633 2.117 1.9 2.812.463.254 1.093.513 1.89.776.796.261 1.346.512 1.653.748.307.236.459.575.459 1.016 0 .406-.152.721-.459.947-.307.226-.732.339-1.279.339-1.469 0-2.204-.626-2.204-1.879h-2.304c0 .734.185 1.378.555 1.934.37.555.907.993 1.61 1.312.706.32 1.486.48 2.343.48 1.235 0 2.218-.279 2.948-.838.73-.56 1.095-1.328 1.095-2.31 0-.883-.3-1.622-.896-2.213-.598-.592-1.549-1.088-2.856-1.488-.709-.217-1.247-.452-1.61-.7Zm13.398-23.098v7.479l-4.478-7.479h-2.297v11.344h2.297v-7.465l4.47 7.465h2.296V25.204h-2.288Zm15.316 0h-7.256v11.344h2.296v-4.636h4.408v-1.885h-4.408v-2.93h4.96v-1.893Zm-8.69 30.49v-4.86h4.478v4.86h2.297V44.352H574.8v4.597h-4.478V44.35h-2.295v11.344h2.295Zm11.437-1.876v-3.04h4.41v-1.83h-4.41v-2.702h5.159V44.35h-7.456v11.344h7.472v-1.877h-5.175Zm1.11-29.339c.31 0 .565-.095.765-.286a.93.93 0 0 0 .298-.7.956.956 0 0 0-.295-.7c-.196-.196-.453-.293-.769-.293-.317 0-.571.097-.765.293a.96.96 0 0 0-.291.7c0 .272.097.503.29.697.195.192.449.29.766.29Zm3.735.007c.316 0 .572-.097.766-.293a.96.96 0 0 0 .29-.7.938.938 0 0 0-.303-.704 1.042 1.042 0 0 0-.753-.289c-.296 0-.549.095-.755.286a.923.923 0 0 0-.31.707c0 .272.098.505.294.7.198.196.454.293.771.293Zm2.434.718h-2.305v7.55c-.02 1.38-.676 2.072-1.967 2.072-.617 0-1.1-.17-1.45-.511-.35-.339-.525-.88-.525-1.625v-7.486h-2.295v7.557c.014 1.226.405 2.189 1.17 2.89.766.7 1.798 1.052 3.1 1.052 1.321 0 2.364-.36 3.127-1.083.762-.722 1.145-1.704 1.145-2.944v-7.472Zm8.384 30.383-2.411-4.637c.668-.305 1.167-.718 1.497-1.235.328-.517.494-1.16.494-1.935 0-1.092-.358-1.935-1.072-2.533-.715-.596-1.729-.896-3.047-.896h-4.141v11.344h2.296v-4.152h1.83l2.09 4.152h2.464v-.108Zm-2.716-7.62c0 .524-.16.937-.475 1.235-.317.298-.764.448-1.34.448h-1.853v-3.404h1.845c.618 0 1.076.153 1.375.458.298.307.448.729.448 1.263Z" fill="#282828" fill-rule="evenodd"/></svg>