<?xml version="1.0" encoding="UTF-8"?>
<svg width="480px" height="80px" viewBox="0 0 480 80" version="1.1" xmlns="http://www.w3.org/2000/svg" xmlns:xlink="http://www.w3.org/1999/xlink">
    <title>VBRG - logo</title>
    <g id="VBRG" stroke="none" stroke-width="1" fill="none" fill-rule="evenodd">
        <g id="open" transform="translate(-720, -80)" fill="#FFFFFF">
            <path d="M1199.99859,109.238178 L1199.99859,109.150689 L1198.0696,105.442294 C1198.60441,105.196762 1199.00376,104.867973 1199.26622,104.454518 C1199.5301,104.041063 1199.66133,103.524597 1199.66133,102.905121 C1199.66133,102.033055 1199.37629,101.357134 1198.80479,100.878768 C1198.23329,100.401813 1197.42049,100.163336 1196.36781,100.163336 L1193.05452,100.163336 L1193.05452,109.238178 L1194.89179,109.238178 L1194.89179,105.916427 L1196.35511,105.916427 L1198.02727,109.238178 L1199.99859,109.238178 Z M1197.82407,103.054698 C1197.82407,103.475209 1197.69848,103.803997 1197.44448,104.042474 C1197.19189,104.282363 1196.83488,104.400896 1196.37345,104.400896 L1194.89179,104.400896 L1194.89179,101.677456 L1196.36781,101.677456 C1196.86169,101.677456 1197.22717,101.800222 1197.46706,102.044344 C1197.70554,102.289877 1197.82407,102.627132 1197.82407,103.054698 L1197.82407,103.054698 Z M923.999788,119.999294 C923.999788,97.9083838 906.089993,80 883.999083,80 L759.999294,80 C737.908384,80 720,97.9083838 720,119.999294 C720,142.090205 737.908384,160 759.999294,160 L883.999083,160 C906.089993,160 923.999788,142.090205 923.999788,119.999294 L923.999788,119.999294 Z M789.602949,100.534458 L775.978692,139.465542 L767.568483,139.465542 L753.999259,100.534458 L762.947101,100.534458 L771.760888,129.812146 L780.628296,100.534458 L789.602949,100.534458 Z M815.069233,119.439084 C817.074418,119.937206 818.656271,120.944737 819.81197,122.460268 C820.967668,123.974388 821.544812,125.828586 821.544812,128.021449 C821.544812,131.76371 820.343958,134.598628 817.943661,136.52338 C815.543365,138.448133 812.121426,139.428854 807.679255,139.465542 L792.471734,139.465542 L792.471734,100.534458 L806.175013,100.534458 C810.921983,100.534458 814.521722,101.438978 816.977052,103.24802 C819.43097,105.058473 820.658635,107.709947 820.658635,111.202441 C820.658635,113.110261 820.164747,114.790891 819.179793,116.242922 C818.194839,117.696365 816.824652,118.761752 815.069233,119.439084 L815.069233,119.439084 Z M856.138148,139.465542 L847.486639,139.465542 L840.151694,125.213342 L833.728326,125.213342 L833.728326,139.465542 L825.668072,139.465542 L825.668072,100.534458 L840.205316,100.534458 C844.826698,100.534458 848.391159,101.560334 850.8987,103.609264 C853.406241,105.659605 854.660716,108.555201 854.660716,112.298873 C854.660716,114.955991 854.083573,117.170021 852.927875,118.943785 C851.772176,120.717549 850.02099,122.130069 847.674316,123.181345 L856.138148,139.090188 L856.138148,139.465542 Z M889.999118,134.545006 C888.548498,136.273614 886.496746,137.615579 883.845272,138.569488 C881.195209,139.521987 878.25728,139.998942 875.032896,139.998942 C871.646235,139.998942 868.677262,139.263754 866.124566,137.793378 C863.57187,136.323003 861.601961,134.189406 860.21343,131.389766 C858.824899,128.591537 858.112289,125.302242 858.077011,121.523292 L858.077011,118.877463 C858.077011,114.991269 858.735999,111.627185 860.052564,108.7838 C861.369128,105.940416 863.26707,103.765897 865.749211,102.258833 C868.22994,100.753179 871.136825,99.9996472 874.468453,99.9996472 C879.106768,99.9996472 882.734729,101.100312 885.350925,103.301642 C887.96571,105.504383 889.515108,108.707601 889.999118,112.914116 L882.153352,112.914116 C881.794931,110.685975 881.001887,109.054733 879.775634,108.021802 C878.547969,106.987459 876.858871,106.470993 874.709753,106.470993 C871.969379,106.470993 869.882349,107.495458 868.448662,109.545799 C867.016387,111.596141 866.289665,114.644136 866.272732,118.689785 L866.272732,121.176159 C866.272732,125.258498 867.051664,128.341771 868.61094,130.42739 C870.168804,132.513009 872.453389,133.555818 875.461874,133.555818 C878.488702,133.555818 880.647699,132.913764 881.937453,131.631066 L881.937453,124.919831 L874.602508,124.919831 L874.602508,119.010107 L889.999118,119.010107 L889.999118,134.545006 Z M844.933942,117.178488 C846.044485,116.154023 846.600462,114.741502 846.600462,112.940927 C846.600462,111.105075 846.07553,109.66151 845.028487,108.608823 C843.980033,107.557547 842.371369,107.032614 840.205316,107.032614 L833.728326,107.032614 L833.728326,118.716596 L840.232127,118.716596 C842.255658,118.716596 843.8234,118.204364 844.933942,117.178488 L844.933942,117.178488 Z M811.88436,131.670577 C812.951158,130.770289 813.483146,129.527102 813.483146,127.941016 C813.483146,124.375143 811.628949,122.566102 807.921966,122.512479 L800.531988,122.512479 L800.531988,133.021008 L807.437955,133.021008 C809.335897,133.021008 810.818972,132.570864 811.88436,131.670577 L811.88436,131.670577 Z M812.59697,112.005362 C812.59697,110.240065 812.081915,108.970067 811.051805,108.195368 C810.021696,107.419258 808.396098,107.032614 806.175013,107.032614 L800.531988,107.032614 L800.531988,116.845466 L806.496746,116.845466 C810.563562,116.773499 812.59697,115.160602 812.59697,112.005362 L812.59697,112.005362 Z M960.0381,100.163336 L957.999048,100.163336 L961.090787,109.238178 L963.008484,109.238178 L966.112924,100.163336 L964.068227,100.163336 L962.046108,106.987459 L960.0381,100.163336 Z M961.121832,115.480924 L957.999048,115.480924 L957.999048,124.555765 L961.464731,124.555765 C962.477907,124.54871 963.256839,124.32011 963.80435,123.871377 C964.35186,123.422645 964.624204,122.760835 964.624204,121.888769 C964.624204,121.377948 964.492971,120.944737 964.230505,120.59196 C963.966627,120.239183 963.606794,120.004939 963.149595,119.887817 C963.548939,119.729773 963.860794,119.481417 964.086572,119.142751 C964.310938,118.804085 964.422415,118.413208 964.422415,117.968709 C964.422415,117.153088 964.143016,116.535022 963.584217,116.1131 C963.024006,115.69259 962.204152,115.480924 961.121832,115.480924 L961.121832,115.480924 Z M959.836311,120.60466 L961.519764,120.60466 C962.365019,120.61736 962.788351,121.039282 962.788351,121.870425 C962.788351,122.240135 962.665585,122.529413 962.422874,122.739668 C962.180163,122.949923 961.842908,123.054345 961.409698,123.054345 L959.836311,123.054345 L959.836311,120.60466 Z M959.836311,116.996455 L961.121832,116.996455 C961.62842,116.996455 961.99813,117.086766 962.233785,117.267388 C962.46803,117.448009 962.585152,117.744342 962.585152,118.154975 C962.585152,118.890163 962.122308,119.266929 961.195209,119.283862 L959.836311,119.283862 L959.836311,116.996455 Z M959.836311,130.799922 L957.999048,130.799922 L957.999048,136.845113 C958.011747,137.825834 958.323603,138.59771 958.936024,139.157921 C959.548445,139.719542 960.375355,139.998942 961.415342,139.998942 C962.473674,139.998942 963.307639,139.711075 963.917238,139.133932 C964.528249,138.555377 964.833048,137.770801 964.833048,136.77738 L964.833048,130.799922 L962.99014,130.799922 L962.99014,136.839469 C962.973207,137.944367 962.448274,138.497522 961.415342,138.497522 C960.921454,138.497522 960.53481,138.362055 960.255411,138.089711 C959.976011,137.817367 959.836311,137.384157 959.836311,136.79008 L959.836311,130.799922 Z M1053.5156,130.799922 L1046.25262,130.799922 L1046.25262,132.314042 L1048.94643,132.314042 L1048.94643,139.874764 L1050.78369,139.874764 L1050.78369,132.314042 L1053.5156,132.314042 L1053.5156,130.799922 Z M1043.14254,139.874764 L1044.9798,139.874764 L1044.9798,130.799922 L1043.14254,130.799922 L1043.14254,139.874764 Z M1036.50327,137.381335 L1034.21304,130.799922 L1031.81275,130.799922 L1031.81275,139.874764 L1033.65001,139.874764 L1033.65001,137.394035 L1033.46657,133.118374 L1035.86686,139.874764 L1037.12839,139.874764 L1039.53433,133.11273 L1039.35089,137.394035 L1039.35089,139.874764 L1041.1938,139.874764 L1041.1938,130.799922 L1038.7808,130.799922 L1036.50327,137.381335 Z M1030.35366,130.799922 L1024.3889,130.799922 L1024.3889,139.874764 L1030.36495,139.874764 L1030.36495,138.373344 L1026.22617,138.373344 L1026.22617,135.942003 L1029.75253,135.942003 L1029.75253,134.477272 L1026.22617,134.477272 L1026.22617,132.314042 L1030.35366,132.314042 L1030.35366,130.799922 Z M1027.36352,115.480924 L1025.53331,115.480924 L1025.53331,121.465437 L1021.95051,115.480924 L1020.11324,115.480924 L1020.11324,124.555765 L1021.95051,124.555765 L1021.95051,118.585363 L1025.52626,124.555765 L1027.36352,124.555765 L1027.36352,115.480924 Z M1022.69416,100.163336 L1019.95096,100.163336 L1019.95096,109.238178 L1022.7125,109.238178 C1023.49285,109.233944 1024.19276,109.0505 1024.81365,108.689256 C1025.43453,108.328012 1025.91431,107.818602 1026.2558,107.162436 C1026.59588,106.506271 1026.76662,105.755561 1026.76662,104.911717 L1026.76662,104.49544 C1026.76662,103.651597 1026.59305,102.898065 1026.24592,102.234844 C1025.89879,101.573034 1025.41619,101.060801 1024.79812,100.702379 C1024.18006,100.342547 1023.47874,100.163336 1022.69416,100.163336 L1022.69416,100.163336 Z M1021.78823,101.677456 L1022.69416,101.677456 C1023.41665,101.677456 1023.96557,101.915933 1024.34234,102.391477 C1024.71769,102.867021 1024.90537,103.56552 1024.90537,104.488385 L1024.90537,104.968162 C1024.8969,105.85716 1024.70358,106.541548 1024.32399,107.018503 C1023.9444,107.496869 1023.39407,107.735347 1022.67582,107.735347 L1021.78823,107.735347 L1021.78823,101.677456 Z M1019.58266,130.674334 C1018.94908,130.674334 1018.37899,130.782989 1017.87099,130.998889 C1017.36299,131.214788 1016.97211,131.515355 1016.70118,131.899176 C1016.43025,132.284409 1016.29337,132.721853 1016.29337,133.211508 C1016.29337,134.155539 1016.79996,134.904838 1017.81313,135.462226 C1018.18426,135.665426 1018.68802,135.872859 1019.32584,136.081703 C1019.96225,136.291958 1020.40252,136.490925 1020.64805,136.680013 C1020.89358,136.869102 1021.01494,137.140035 1021.01494,137.494223 C1021.01494,137.817367 1020.89358,138.069956 1020.64805,138.251989 C1020.40252,138.432611 1020.06244,138.522922 1019.625,138.522922 C1018.44954,138.522922 1017.86111,138.021978 1017.86111,137.020091 L1016.0182,137.020091 C1016.0182,137.605701 1016.16637,138.122167 1016.4627,138.565255 C1016.75904,139.011165 1017.18801,139.36112 1017.75105,139.616531 C1018.31549,139.871942 1018.9392,139.998942 1019.625,139.998942 C1020.61277,139.998942 1021.39876,139.775986 1021.98296,139.330076 C1022.56716,138.882754 1022.85926,138.267511 1022.85926,137.481523 C1022.85926,136.774558 1022.61937,136.184714 1022.14242,135.710582 C1021.66405,135.23786 1020.90346,134.841338 1019.85783,134.521017 C1019.29056,134.346039 1018.86018,134.159773 1018.56949,133.959395 C1018.27739,133.760429 1018.13063,133.513485 1018.13063,133.218563 C1018.13063,132.902475 1018.25622,132.647064 1018.50458,132.453742 C1018.75434,132.261831 1019.10289,132.164465 1019.55162,132.164465 C1020.01729,132.164465 1020.37853,132.280176 1020.63535,132.510186 C1020.89358,132.741608 1021.022,133.064752 1021.022,133.479618 L1022.85926,133.479618 C1022.85926,132.93493 1022.72097,132.449509 1022.4458,132.021943 C1022.16923,131.592966 1021.78258,131.261355 1021.28446,131.027111 C1020.78634,130.792867 1020.21907,130.674334 1019.58266,130.674334 L1019.58266,130.674334 Z M1012.68375,139.874764 L1014.52102,139.874764 L1014.52102,130.799922 L1012.68375,130.799922 L1012.68375,139.874764 Z M1011.53229,100.163336 L1008.78768,100.163336 L1008.78768,109.238178 L1011.55063,109.238178 C1012.32956,109.233944 1013.02947,109.0505 1013.65036,108.689256 C1014.27125,108.328012 1014.75103,107.818602 1015.09252,107.162436 C1015.434,106.506271 1015.60334,105.755561 1015.60334,104.911717 L1015.60334,104.49544 C1015.60334,103.651597 1015.42977,102.898065 1015.08405,102.234844 C1014.73692,101.573034 1014.25432,101.060801 1013.63484,100.702379 C1013.01677,100.342547 1012.31545,100.163336 1011.53229,100.163336 L1011.53229,100.163336 Z M1010.62494,101.677456 L1011.53229,101.677456 C1012.25478,101.677456 1012.8037,101.915933 1013.17905,102.391477 C1013.55441,102.867021 1013.74208,103.56552 1013.74208,104.488385 L1013.74208,104.968162 C1013.73362,105.85716 1013.5403,106.541548 1013.16071,107.018503 C1012.78112,107.496869 1012.2322,107.735347 1011.51253,107.735347 L1010.62494,107.735347 L1010.62494,101.677456 Z M1011.46173,115.480924 L1005.65643,115.480924 L1005.65643,124.555765 L1007.49369,124.555765 L1007.49369,120.847371 L1011.02006,120.847371 L1011.02006,119.338895 L1007.49369,119.338895 L1007.49369,116.996455 L1011.46173,116.996455 L1011.46173,115.480924 Z M1008.67479,139.874764 L1008.67479,132.314042 L1011.4067,132.314042 L1011.4067,130.799922 L1004.14372,130.799922 L1004.14372,132.314042 L1006.83894,132.314042 L1006.83894,139.874764 L1008.67479,139.874764 Z M1004.42735,115.480924 L998.622052,115.480924 L998.622052,124.555765 L1000.45932,124.555765 L1000.45932,120.847371 L1003.98709,120.847371 L1003.98709,119.338895 L1000.45932,119.338895 L1000.45932,116.996455 L1004.42735,116.996455 L1004.42735,115.480924 Z M1001.09149,136.783024 L997.510098,130.799922 L995.672834,130.799922 L995.672834,139.874764 L997.510098,139.874764 L997.510098,133.904362 L1001.08585,139.874764 L1002.92311,139.874764 L1002.92311,130.799922 L1001.09149,130.799922 L1001.09149,136.783024 Z M993.501138,100.163336 L990.182209,109.238178 L992.135184,109.238178 L992.747606,107.368458 L995.969167,107.368458 L996.587233,109.238178 L998.540208,109.238178 L995.202935,100.163336 L993.501138,100.163336 Z M993.244316,105.852927 L994.352036,102.456388 L995.472457,105.852927 L993.244316,105.852927 Z M989.931032,117.466354 C989.614944,118.145097 989.456899,118.932496 989.456899,119.825728 L989.456899,120.274461 C989.459722,121.146526 989.621999,121.918403 989.939499,122.59009 C990.258409,123.261778 990.707142,123.776833 991.287108,124.138077 C991.867074,124.500732 992.526061,124.681354 993.265483,124.681354 C994.011959,124.681354 994.67518,124.49791 995.252324,124.132433 C995.830879,123.766955 996.273967,123.247667 996.584411,122.574568 C996.894855,121.901469 997.050077,121.118304 997.050077,120.225072 L997.050077,119.820084 C997.050077,118.929674 996.892033,118.145097 996.575944,117.466354 C996.258445,116.78761 995.812534,116.2655 995.23398,115.901434 C994.656836,115.538779 993.996437,115.356746 993.252783,115.356746 C992.510539,115.356746 991.85014,115.538779 991.271586,115.901434 C990.694442,116.2655 990.24712,116.78761 989.931032,117.466354 L989.931032,117.466354 Z M991.318152,119.781984 C991.322385,118.839363 991.491719,118.12252 991.826151,117.634276 C992.160584,117.146032 992.636128,116.90191 993.252783,116.90191 C993.87367,116.90191 994.350625,117.150265 994.686469,117.644154 C995.020902,118.138042 995.188824,118.861941 995.188824,119.813028 L995.188824,120.256116 C995.184591,121.198737 995.016669,121.916992 994.686469,122.409469 C994.354859,122.901946 993.882137,123.147479 993.265483,123.147479 C992.636128,123.147479 992.15494,122.892068 991.820507,122.381246 C991.484663,121.870425 991.318152,121.150759 991.318152,120.225072 L991.318152,119.781984 Z M989.524633,130.799922 L986.205704,139.874764 L988.158679,139.874764 L988.7711,138.005045 L991.992662,138.005045 L992.610728,139.874764 L994.563703,139.874764 L991.22643,130.799922 L989.524633,130.799922 Z M989.2664,136.490925 L990.375531,133.092974 L991.495952,136.490925 L989.2664,136.490925 Z M984.942762,115.480924 L981.629478,115.480924 L981.629478,124.555765 L983.466742,124.555765 L983.466742,121.234015 L984.930062,121.234015 L986.602226,124.555765 L988.573545,124.555765 L988.573545,124.469688 L986.644559,120.759882 C987.17937,120.51576 987.578713,120.185561 987.842591,119.772106 C988.105057,119.358651 988.237701,118.843596 988.237701,118.224119 C988.237701,117.350643 987.951246,116.676133 987.379747,116.197767 C986.808248,115.720812 985.995449,115.480924 984.942762,115.480924 L984.942762,115.480924 Z M983.466742,116.996455 L984.942762,116.996455 C985.43665,116.996455 985.803538,117.119221 986.042016,117.363343 C986.280493,117.608876 986.400437,117.946131 986.400437,118.373697 C986.400437,118.792796 986.273438,119.122996 986.020849,119.361473 C985.76685,119.599951 985.409839,119.719895 984.948406,119.719895 L983.466742,119.719895 L983.466742,116.996455 Z M982.090911,132.87143 C981.743778,132.20962 981.261179,131.698799 980.643113,131.338966 C980.023636,130.979133 979.322315,130.799922 978.539149,130.799922 L975.795954,130.799922 L975.795954,139.874764 L978.557494,139.874764 C979.336426,139.870531 980.037747,139.688498 980.657224,139.325843 C981.278112,138.964599 981.7593,138.4566 982.099377,137.799023 C982.440866,137.142857 982.61161,136.392147 982.61161,135.549715 L982.61161,135.132027 C982.61161,134.288184 982.438043,133.534652 982.090911,132.87143 L982.090911,132.87143 Z M980.748946,135.604748 C980.741891,136.495158 980.547157,137.178135 980.167569,137.656501 C979.787981,138.133456 979.239059,138.373344 978.520805,138.373344 L977.633218,138.373344 L977.633218,132.314042 L978.539149,132.314042 C979.261637,132.314042 979.810559,132.55252 980.185914,133.028063 C980.561269,133.503607 980.748946,134.202106 980.748946,135.124971 L980.748946,135.604748 Z M980.413102,115.480924 L973.150124,115.480924 L973.150124,116.996455 L975.843931,116.996455 L975.843931,124.555765 L977.681195,124.555765 L977.681195,116.996455 L980.413102,116.996455 L980.413102,115.480924 Z M966.217346,124.555765 L972.194804,124.555765 L972.194804,123.054345 L968.05461,123.054345 L968.05461,120.623005 L971.582382,120.623005 L971.582382,119.158274 L968.05461,119.158274 L968.05461,116.996455 L972.182104,116.996455 L972.182104,115.480924 L966.217346,115.480924 L966.217346,124.555765 Z M968.493465,139.874764 L968.493465,133.904362 L972.069215,139.874764 L973.906479,139.874764 L973.906479,130.799922 L972.07627,130.799922 L972.07627,136.783024 L968.493465,130.799922 L966.656201,130.799922 L966.656201,139.874764 L968.493465,139.874764 Z M969.064964,107.735347 L969.064964,105.305417 L972.591325,105.305417 L972.591325,103.840686 L969.064964,103.840686 L969.064964,101.677456 L973.192458,101.677456 L973.192458,100.163336 L967.2277,100.163336 L967.2277,109.238178 L973.203746,109.238178 L973.203746,107.735347 L969.064964,107.735347 Z M981.595611,109.150689 L979.666626,105.442294 C980.201436,105.196762 980.60078,104.867973 980.863246,104.454518 C981.127123,104.041063 981.258356,103.524597 981.258356,102.905121 C981.258356,102.033055 980.973312,101.357134 980.401813,100.878768 C979.830314,100.401813 979.017515,100.163336 977.964828,100.163336 L974.651544,100.163336 L974.651544,109.238178 L976.488808,109.238178 L976.488808,105.916427 L977.952128,105.916427 L979.624292,109.238178 L981.595611,109.238178 L981.595611,109.150689 Z M979.421093,103.054698 C979.421093,103.475209 979.295504,103.803997 979.041504,104.042474 C978.788916,104.282363 978.431905,104.400896 977.970473,104.400896 L976.488808,104.400896 L976.488808,101.677456 L977.964828,101.677456 C978.458716,101.677456 978.824193,101.800222 979.064082,102.044344 C979.302559,102.289877 979.421093,102.627132 979.421093,103.054698 L979.421093,103.054698 Z M989.114,105.274372 C988.850123,104.920184 988.49029,104.68594 988.033091,104.568818 C988.432434,104.412185 988.745701,104.16383 988.970067,103.825164 C989.194433,103.486497 989.307322,103.094209 989.307322,102.64971 C989.307322,101.8355 989.026511,101.217434 988.467712,100.795513 C987.908913,100.373591 987.087648,100.163336 986.005327,100.163336 L982.882543,100.163336 L982.882543,109.238178 L986.348226,109.238178 C987.361403,109.229711 988.141746,109.001111 988.687845,108.552379 C989.235355,108.103646 989.50911,107.443247 989.50911,106.569771 C989.50911,106.058949 989.376466,105.62715 989.114,105.274372 L989.114,105.274372 Z M987.470058,102.837387 C987.470058,103.572575 987.005803,103.94793 986.080116,103.964863 L984.719807,103.964863 L984.719807,101.677456 L986.005327,101.677456 C986.511915,101.677456 986.883037,101.767767 987.117281,101.948389 C987.351525,102.129011 987.470058,102.425344 987.470058,102.837387 L987.470058,102.837387 Z M987.671847,106.551426 C987.671847,106.921137 987.550491,107.211825 987.307781,107.420669 C987.063659,107.630924 986.726404,107.735347 986.293193,107.735347 L984.719807,107.735347 L984.719807,105.285661 L986.404671,105.285661 C987.248514,105.298361 987.671847,105.720283 987.671847,106.551426 L987.671847,106.551426 Z M1005.068,100.163336 L1005.068,106.146438 L1001.4866,100.163336 L999.649339,100.163336 L999.649339,109.238178 L1001.4866,109.238178 L1001.4866,103.266364 L1005.06235,109.238178 L1006.89962,109.238178 L1006.89962,100.163336 L1005.068,100.163336 Z M1014.52666,123.054345 L1014.52666,120.623005 L1018.05443,120.623005 L1018.05443,119.158274 L1014.52666,119.158274 L1014.52666,116.996455 L1018.65415,116.996455 L1018.65415,115.480924 L1012.6894,115.480924 L1012.6894,124.555765 L1018.66685,124.555765 L1018.66685,123.054345 L1014.52666,123.054345 Z M1030.15328,107.735347 L1030.15328,105.305417 L1033.67964,105.305417 L1033.67964,103.840686 L1030.15328,103.840686 L1030.15328,101.677456 L1034.28078,101.677456 L1034.28078,100.163336 L1028.31602,100.163336 L1028.31602,109.238178 L1034.29206,109.238178 L1034.29206,107.735347 L1030.15328,107.735347 Z M1031.09026,123.054345 L1031.09026,120.623005 L1034.61662,120.623005 L1034.61662,119.158274 L1031.09026,119.158274 L1031.09026,116.996455 L1035.21775,116.996455 L1035.21775,115.480924 L1029.25299,115.480924 L1029.25299,124.555765 L1035.22904,124.555765 L1035.22904,123.054345 L1031.09026,123.054345 Z M1042.68393,109.150689 L1040.75494,105.442294 C1041.28975,105.196762 1041.6891,104.867973 1041.95297,104.454518 C1042.21544,104.041063 1042.34809,103.524597 1042.34809,102.905121 C1042.34809,102.033055 1042.06163,101.357134 1041.49013,100.878768 C1040.91863,100.401813 1040.10583,100.163336 1039.05315,100.163336 L1035.73986,100.163336 L1035.73986,109.238178 L1037.57713,109.238178 L1037.57713,105.916427 L1039.04045,105.916427 L1040.71261,109.238178 L1042.68393,109.238178 L1042.68393,109.150689 Z M1040.51082,103.054698 C1040.51082,103.475209 1040.38382,103.803997 1040.13123,104.042474 C1039.87723,104.282363 1039.52022,104.400896 1039.05879,104.400896 L1037.57713,104.400896 L1037.57713,101.677456 L1039.05315,101.677456 C1039.54703,101.677456 1039.91392,101.800222 1040.1524,102.044344 C1040.39088,102.289877 1040.51082,102.627132 1040.51082,103.054698 L1040.51082,103.054698 Z M1046.26391,124.469688 L1044.33493,120.759882 C1044.86974,120.51576 1045.26908,120.185561 1045.53155,119.772106 C1045.79542,119.358651 1045.92666,118.843596 1045.92666,118.224119 C1045.92666,117.350643 1045.64161,116.676133 1045.07011,116.197767 C1044.49862,115.720812 1043.68582,115.480924 1042.63313,115.480924 L1039.31985,115.480924 L1039.31985,124.555765 L1041.15711,124.555765 L1041.15711,121.234015 L1042.62043,121.234015 L1044.29259,124.555765 L1046.26391,124.555765 L1046.26391,124.469688 Z M1044.08939,118.373697 C1044.08939,118.792796 1043.96381,119.122996 1043.70981,119.361473 C1043.45722,119.599951 1043.10021,119.719895 1042.63877,119.719895 L1041.15711,119.719895 L1041.15711,116.996455 L1042.63313,116.996455 C1043.12702,116.996455 1043.49249,117.119221 1043.73097,117.363343 C1043.97086,117.608876 1044.08939,117.946131 1044.08939,118.373697 L1044.08939,118.373697 Z M1052.98644,105.274372 C1052.72397,104.920184 1052.36273,104.68594 1051.90553,104.568818 C1052.30628,104.412185 1052.61814,104.16383 1052.8425,103.825164 C1053.06687,103.486497 1053.17976,103.094209 1053.17976,102.64971 C1053.17976,101.8355 1052.90036,101.217434 1052.34015,100.795513 C1051.78135,100.373591 1050.96149,100.163336 1049.87917,100.163336 L1046.75639,100.163336 L1046.75639,109.238178 L1050.22207,109.238178 C1051.23384,109.229711 1052.01418,109.001111 1052.56169,108.552379 C1053.10779,108.103646 1053.38155,107.443247 1053.38155,106.569771 C1053.38155,106.058949 1053.25031,105.62715 1052.98644,105.274372 L1052.98644,105.274372 Z M1051.34249,102.837387 C1051.34249,103.572575 1050.87965,103.94793 1049.95255,103.964863 L1048.59365,103.964863 L1048.59365,101.677456 L1049.87917,101.677456 C1050.38576,101.677456 1050.75547,101.767767 1050.99113,101.948389 C1051.22537,102.129011 1051.34249,102.425344 1051.34249,102.837387 L1051.34249,102.837387 Z M1051.54428,106.551426 C1051.54428,106.921137 1051.42293,107.211825 1051.18022,107.420669 C1050.93751,107.630924 1050.60025,107.735347 1050.16704,107.735347 L1048.59365,107.735347 L1048.59365,105.285661 L1050.27711,105.285661 C1051.12236,105.298361 1051.54428,105.720283 1051.54428,106.551426 L1051.54428,106.551426 Z M1049.38811,123.054345 L1049.38811,120.623005 L1052.91588,120.623005 L1052.91588,119.158274 L1049.38811,119.158274 L1049.38811,116.996455 L1053.5156,116.996455 L1053.5156,115.480924 L1047.55084,115.480924 L1047.55084,124.555765 L1053.5283,124.555765 L1053.5283,123.054345 L1049.38811,123.054345 Z M1173.62073,138.2915 C1173.43023,138.1137 1173.19034,138.023389 1172.90106,138.023389 C1172.61461,138.023389 1172.37754,138.1137 1172.18704,138.2915 C1171.99795,138.470711 1171.90341,138.703544 1171.90341,138.989999 C1171.90341,139.272221 1171.99654,139.502231 1172.18422,139.67862 C1172.3719,139.855009 1172.61038,139.943908 1172.90106,139.943908 C1173.19457,139.943908 1173.43587,139.855009 1173.62355,139.67862 C1173.81123,139.502231 1173.90577,139.272221 1173.90577,138.989999 C1173.90577,138.703544 1173.80982,138.470711 1173.62073,138.2915 L1173.62073,138.2915 Z M1172.96456,118.559963 C1172.8672,117.546787 1172.50313,116.759388 1171.87378,116.197767 C1171.24583,115.637557 1170.41751,115.356746 1169.38881,115.356746 C1168.64516,115.356746 1167.99323,115.534546 1167.43161,115.890145 C1166.86998,116.244334 1166.43818,116.755155 1166.13621,117.419787 C1165.83423,118.08442 1165.68324,118.853474 1165.68324,119.725539 L1165.68324,120.280105 C1165.68324,121.64747 1166.01062,122.722735 1166.66678,123.5059 C1167.32154,124.289066 1168.22042,124.681354 1169.36341,124.681354 C1170.40905,124.681354 1171.25148,124.400543 1171.8893,123.840333 C1172.52853,123.278712 1172.88272,122.509657 1172.95186,121.53317 L1171.1146,121.53317 C1171.07509,122.086325 1170.91422,122.494135 1170.63482,122.758012 C1170.35401,123.02189 1169.93068,123.154534 1169.36341,123.154534 C1168.73547,123.154534 1168.27404,122.927346 1167.98335,122.47438 C1167.69125,122.021414 1167.54449,121.30457 1167.54449,120.32385 L1167.54449,119.638051 C1167.55296,118.699663 1167.70959,118.006809 1168.01298,117.559487 C1168.31778,117.113577 1168.77639,116.890621 1169.38881,116.890621 C1169.95185,116.890621 1170.37095,117.021855 1170.64611,117.285732 C1170.92269,117.549609 1171.08214,117.974353 1171.1273,118.559963 L1172.96456,118.559963 Z M1165.99933,130.799922 L1163.96028,130.799922 L1167.05343,139.874764 L1168.96971,139.874764 L1172.07415,130.799922 L1170.02946,130.799922 L1168.00875,137.625456 L1165.99933,130.799922 Z M1163.07692,138.023389 C1162.79188,138.023389 1162.5534,138.1137 1162.36431,138.2915 C1162.17381,138.470711 1162.07927,138.703544 1162.07927,138.989999 C1162.07927,139.272221 1162.1724,139.502231 1162.36008,139.67862 C1162.54917,139.855009 1162.78765,139.943908 1163.07692,139.943908 C1163.37184,139.943908 1163.61173,139.855009 1163.79941,139.67862 C1163.98709,139.502231 1164.08163,139.272221 1164.08163,138.989999 C1164.08163,138.703544 1163.98709,138.470711 1163.79659,138.2915 C1163.6075,138.1137 1163.36761,138.023389 1163.07692,138.023389 L1163.07692,138.023389 Z M1160.75988,130.799922 L1154.79654,130.799922 L1154.79654,139.874764 L1160.77258,139.874764 L1160.77258,138.373344 L1156.63239,138.373344 L1156.63239,135.942003 L1160.16016,135.942003 L1160.16016,134.477272 L1156.63239,134.477272 L1156.63239,132.314042 L1160.75988,132.314042 L1160.75988,130.799922 Z M1154.35345,124.555765 L1156.19071,124.555765 L1156.19071,115.480924 L1154.35345,115.480924 L1154.35345,124.555765 Z M1152.99455,100.163336 L1151.15729,100.163336 L1151.15729,109.238178 L1156.89627,109.238178 L1156.89627,107.735347 L1152.99455,107.735347 L1152.99455,100.163336 Z M1153.07639,115.480924 L1145.81342,115.480924 L1145.81342,116.996455 L1148.50722,116.996455 L1148.50722,124.555765 L1150.34449,124.555765 L1150.34449,116.996455 L1153.07639,116.996455 L1153.07639,115.480924 Z M1146.03778,100.163336 L1144.20193,100.163336 L1144.20193,109.238178 L1149.9395,109.238178 L1149.9395,107.735347 L1146.03778,107.735347 L1146.03778,100.163336 Z M1138.14122,139.874764 L1143.87879,139.874764 L1143.87879,138.373344 L1139.97848,138.373344 L1139.97848,130.799922 L1138.14122,130.799922 L1138.14122,139.874764 Z M1148.00487,139.874764 L1148.00487,132.314042 L1150.73678,132.314042 L1150.73678,130.799922 L1143.4738,130.799922 L1143.4738,132.314042 L1146.1676,132.314042 L1146.1676,139.874764 L1148.00487,139.874764 Z M1143.29035,115.708112 C1142.79223,115.473868 1142.22355,115.356746 1141.58714,115.356746 C1140.95497,115.356746 1140.38347,115.465401 1139.87547,115.681301 C1139.36747,115.897201 1138.978,116.197767 1138.70566,116.581589 C1138.43473,116.96541 1138.29926,117.402854 1138.29926,117.89392 C1138.29926,118.836541 1138.80444,119.587251 1139.81761,120.143228 C1140.18874,120.346427 1140.69391,120.55386 1141.33032,120.764115 C1141.96673,120.97296 1142.40841,121.173337 1142.65253,121.362426 C1142.89807,121.551514 1143.02083,121.822447 1143.02083,122.175224 C1143.02083,122.49978 1142.89807,122.752368 1142.65253,122.93299 C1142.40841,123.113612 1142.06692,123.203923 1141.63089,123.203923 C1140.45402,123.203923 1139.867,122.702979 1139.867,121.701092 L1138.02409,121.701092 C1138.02409,122.288113 1138.17085,122.803168 1138.46718,123.247667 C1138.76352,123.692167 1139.19249,124.042122 1139.75694,124.297532 C1140.31997,124.552943 1140.94509,124.681354 1141.63089,124.681354 C1142.61867,124.681354 1143.40465,124.458399 1143.98744,124.011077 C1144.57164,123.563756 1144.86374,122.948512 1144.86374,122.162524 C1144.86374,121.45697 1144.62526,120.865715 1144.1469,120.392994 C1143.66994,119.918861 1142.90794,119.52234 1141.86372,119.202018 C1141.29505,119.028451 1140.86607,118.840774 1140.57397,118.641808 C1140.28187,118.44143 1140.13652,118.194486 1140.13652,117.899564 C1140.13652,117.583476 1140.2607,117.329476 1140.50906,117.136154 C1140.75882,116.942832 1141.10737,116.846877 1141.5561,116.846877 C1142.02177,116.846877 1142.38301,116.961177 1142.64124,117.192599 C1142.89807,117.422609 1143.02648,117.745753 1143.02648,118.162031 L1144.86374,118.162031 C1144.86374,117.617343 1144.72545,117.13051 1144.45028,116.702944 C1144.17512,116.275378 1143.78847,115.943767 1143.29035,115.708112 L1143.29035,115.708112 Z M1137.03209,139.874764 L1133.69481,130.799922 L1131.99302,130.799922 L1128.67409,139.874764 L1130.62706,139.874764 L1131.23948,138.005045 L1134.46104,138.005045 L1135.07911,139.874764 L1137.03209,139.874764 Z M1133.96433,136.490925 L1131.73619,136.490925 L1132.84391,133.092974 L1133.96433,136.490925 Z M1134.68823,124.555765 L1136.5255,124.555765 L1136.5255,115.480924 L1134.68823,115.480924 L1134.68823,124.555765 Z M1135.5603,100.163336 L1128.29732,100.163336 L1128.29732,101.677456 L1130.99113,101.677456 L1130.99113,109.238178 L1132.82839,109.238178 L1132.82839,101.677456 L1135.5603,101.677456 L1135.5603,100.163336 Z M1126.92572,116.581589 C1126.65479,116.96541 1126.51932,117.402854 1126.51932,117.89392 C1126.51932,118.836541 1127.02591,119.587251 1128.03768,120.143228 C1128.4088,120.346427 1128.91398,120.55386 1129.55039,120.764115 C1130.1868,120.97296 1130.62847,121.173337 1130.87259,121.362426 C1131.11813,121.551514 1131.24089,121.822447 1131.24089,122.175224 C1131.24089,122.49978 1131.11813,122.752368 1130.87259,122.93299 C1130.62847,123.113612 1130.28698,123.203923 1129.85095,123.203923 C1128.67409,123.203923 1128.08707,122.702979 1128.08707,121.701092 L1126.24416,121.701092 C1126.24416,122.288113 1126.39091,122.803168 1126.68725,123.247667 C1126.98358,123.692167 1127.41256,124.042122 1127.977,124.297532 C1128.54003,124.552943 1129.16515,124.681354 1129.85095,124.681354 C1130.83873,124.681354 1131.62472,124.458399 1132.2075,124.011077 C1132.7917,123.563756 1133.0838,122.948512 1133.0838,122.162524 C1133.0838,121.45697 1132.84532,120.865715 1132.36696,120.392994 C1131.89,119.918861 1131.12801,119.52234 1130.08378,119.202018 C1129.51511,119.028451 1129.08613,118.840774 1128.79403,118.641808 C1128.50193,118.44143 1128.35659,118.194486 1128.35659,117.899564 C1128.35659,117.583476 1128.48076,117.329476 1128.73053,117.136154 C1128.97889,116.942832 1129.32743,116.846877 1129.77757,116.846877 C1130.24183,116.846877 1130.60307,116.961177 1130.86131,117.192599 C1131.11813,117.422609 1131.24654,117.745753 1131.24654,118.162031 L1133.0838,118.162031 C1133.0838,117.617343 1132.94551,117.13051 1132.67035,116.702944 C1132.39518,116.275378 1132.00854,115.943767 1131.51042,115.708112 C1131.01229,115.473868 1130.44503,115.356746 1129.80721,115.356746 C1129.17503,115.356746 1128.60353,115.465401 1128.09553,115.681301 C1127.58753,115.897201 1127.19807,116.197767 1126.92572,116.581589 L1126.92572,116.581589 Z M1120.01552,130.799922 L1118.1839,130.799922 L1120.16228,139.874764 L1122.01083,139.874764 L1123.46286,133.804173 L1124.91348,139.874764 L1126.76345,139.874764 L1128.74182,130.799922 L1126.9102,130.799922 L1125.71076,137.257157 L1124.24603,130.799922 L1122.69098,130.799922 L1121.22061,137.244457 L1120.01552,130.799922 Z M1118.9586,116.581589 C1118.68767,116.96541 1118.55079,117.402854 1118.55079,117.89392 C1118.55079,118.836541 1119.05738,119.587251 1120.07056,120.143228 C1120.44168,120.346427 1120.94544,120.55386 1121.58326,120.764115 C1122.21967,120.97296 1122.65994,121.173337 1122.90547,121.362426 C1123.15101,121.551514 1123.27236,121.822447 1123.27236,122.175224 C1123.27236,122.49978 1123.15101,122.752368 1122.90547,122.93299 C1122.65994,123.113612 1122.31986,123.203923 1121.88242,123.203923 C1120.70697,123.203923 1120.11853,122.702979 1120.11853,121.701092 L1118.27562,121.701092 C1118.27562,122.288113 1118.42379,122.803168 1118.72012,123.247667 C1119.01505,123.692167 1119.44543,124.042122 1120.00847,124.297532 C1120.57291,124.552943 1121.19662,124.681354 1121.88242,124.681354 C1122.8702,124.681354 1123.65618,124.458399 1124.24038,124.011077 C1124.82458,123.563756 1125.11668,122.948512 1125.11668,122.162524 C1125.11668,121.45697 1124.87679,120.865715 1124.39984,120.392994 C1123.92147,119.918861 1123.16088,119.52234 1122.11525,119.202018 C1121.54799,119.028451 1121.1176,118.840774 1120.82691,118.641808 C1120.53481,118.44143 1120.38805,118.194486 1120.38805,117.899564 C1120.38805,117.583476 1120.51364,117.329476 1120.762,117.136154 C1121.01035,116.942832 1121.36031,116.846877 1121.80904,116.846877 C1122.27471,116.846877 1122.63595,116.961177 1122.89277,117.192599 C1123.15101,117.422609 1123.27942,117.745753 1123.27942,118.162031 L1125.11668,118.162031 C1125.11668,117.617343 1124.97839,117.13051 1124.70323,116.702944 C1124.42665,116.275378 1124.04,115.943767 1123.54188,115.708112 C1123.04376,115.473868 1122.4765,115.356746 1121.84009,115.356746 C1121.2065,115.356746 1120.63641,115.465401 1120.12841,115.681301 C1119.62041,115.897201 1119.22953,116.197767 1118.9586,116.581589 L1118.9586,116.581589 Z M1113.10673,138.373344 L1113.10673,135.942003 L1116.63451,135.942003 L1116.63451,134.477272 L1113.10673,134.477272 L1113.10673,132.314042 L1117.23423,132.314042 L1117.23423,130.799922 L1111.26947,130.799922 L1111.26947,139.874764 L1117.24693,139.874764 L1117.24693,138.373344 L1113.10673,138.373344 Z M1112.68904,115.480924 L1109.37012,124.555765 L1111.32309,124.555765 L1111.93692,122.686046 L1115.15707,122.686046 L1115.77514,124.555765 L1117.72953,124.555765 L1114.39225,115.480924 L1112.68904,115.480924 Z M1112.43222,121.171926 L1113.53994,117.775387 L1114.66177,121.171926 L1112.43222,121.171926 Z M1107.66691,136.483869 L1107.66691,138.048789 C1107.3734,138.347944 1106.88092,138.497522 1106.19089,138.497522 C1105.50509,138.497522 1104.98439,138.254811 1104.6302,137.767978 C1104.2746,137.282557 1104.0968,136.562891 1104.0968,135.611804 L1104.0968,135.031838 C1104.10104,134.089217 1104.26614,133.378018 1104.59351,132.899653 C1104.91948,132.422698 1105.39502,132.182809 1106.02014,132.182809 C1106.5098,132.182809 1106.89503,132.304165 1107.17443,132.544053 C1107.45383,132.785353 1107.63445,133.166352 1107.7163,133.68564 L1109.50417,133.68564 C1109.39411,132.704919 1109.04133,131.958443 1108.44443,131.444799 C1107.84894,130.931156 1107.02203,130.674334 1105.96511,130.674334 C1105.20593,130.674334 1104.54271,130.850722 1103.97686,131.202088 C1103.41241,131.553455 1102.9792,132.060043 1102.67864,132.721853 C1102.37948,133.385074 1102.22849,134.169651 1102.22849,135.075583 L1102.22849,135.692237 C1102.23696,136.57418 1102.39924,137.340412 1102.71674,137.992345 C1103.03283,138.644277 1103.48156,139.142399 1104.06294,139.485298 C1104.64431,139.828197 1105.32164,139.998942 1106.09352,139.998942 C1106.82871,139.998942 1107.49757,139.888875 1108.10153,139.66592 C1108.70548,139.444376 1109.17397,139.13111 1109.50417,138.727532 L1109.50417,135.106627 L1105.99474,135.106627 L1105.99474,136.483869 L1107.66691,136.483869 Z M1104.88843,115.480924 L1101.57656,115.480924 L1101.57656,124.555765 L1103.41241,124.555765 L1103.41241,121.234015 L1104.87715,121.234015 L1106.5479,124.555765 L1108.52063,124.555765 L1108.52063,124.469688 L1106.59164,120.759882 C1107.12645,120.51576 1107.5258,120.185561 1107.78826,119.772106 C1108.05214,119.358651 1108.18337,118.843596 1108.18337,118.224119 C1108.18337,117.350643 1107.89833,116.676133 1107.32683,116.197767 C1106.75533,115.720812 1105.94253,115.480924 1104.88843,115.480924 L1104.88843,115.480924 Z M1103.41241,116.996455 L1104.88843,116.996455 C1105.38232,116.996455 1105.74921,117.119221 1105.98769,117.363343 C1106.22758,117.608876 1106.34611,117.946131 1106.34611,118.373697 C1106.34611,118.792796 1106.21911,119.122996 1105.96652,119.361473 C1105.71393,119.599951 1105.35692,119.719895 1104.89549,119.719895 L1103.41241,119.719895 L1103.41241,116.996455 Z M1095.78396,123.023301 L1095.78396,124.418888 C1095.77549,124.922654 1095.63438,125.426419 1095.36063,125.934419 L1095.14049,126.339407 L1096.06477,126.831884 C1096.41614,126.524262 1096.704,126.136207 1096.92837,125.666308 C1097.15273,125.196409 1097.26703,124.730743 1097.27127,124.26931 L1097.27832,123.023301 L1095.78396,123.023301 Z M1094.74679,130.799922 L1091.43351,130.799922 L1091.43351,139.874764 L1093.27077,139.874764 L1093.27077,136.553014 L1094.73409,136.553014 L1096.40626,139.874764 L1098.37758,139.874764 L1098.37758,139.787275 L1096.44859,136.078881 C1096.9834,135.833348 1097.38275,135.50456 1097.64662,135.091105 C1097.90909,134.67765 1098.04173,134.161184 1098.04173,133.541707 C1098.04173,132.669642 1097.75528,131.993721 1097.18378,131.516766 C1096.61228,131.0384 1095.79948,130.799922 1094.74679,130.799922 L1094.74679,130.799922 Z M1093.27077,132.314042 L1094.74679,132.314042 C1095.24068,132.314042 1095.60757,132.436809 1095.84605,132.682342 C1096.08453,132.927875 1096.20447,133.263719 1096.20447,133.691285 C1096.20447,134.111795 1096.07747,134.440583 1095.82488,134.679061 C1095.57088,134.918949 1095.21387,135.037483 1094.75244,135.037483 L1093.27077,135.037483 L1093.27077,132.314042 Z M1089.97442,130.799922 L1084.00967,130.799922 L1084.00967,139.874764 L1089.98571,139.874764 L1089.98571,138.373344 L1085.84693,138.373344 L1085.84693,135.942003 L1089.37329,135.942003 L1089.37329,134.477272 L1085.84693,134.477272 L1085.84693,132.314042 L1089.97442,132.314042 L1089.97442,130.799922 Z M1085.29942,100.163336 L1078.03644,100.163336 L1078.03644,101.677456 L1080.73166,101.677456 L1080.73166,109.238178 L1082.56892,109.238178 L1082.56892,101.677456 L1085.29942,101.677456 L1085.29942,100.163336 Z M1073.51243,100.163336 L1070.1935,109.238178 L1072.14647,109.238178 L1072.75889,107.368458 L1075.98046,107.368458 L1076.59852,109.238178 L1078.55291,109.238178 L1075.21422,100.163336 L1073.51243,100.163336 Z M1073.2556,105.852927 L1074.36333,102.456388 L1075.48375,105.852927 L1073.2556,105.852927 Z M1074.40989,124.555765 L1076.24716,124.555765 L1076.24716,116.996455 L1078.97906,116.996455 L1078.97906,115.480924 L1071.71608,115.480924 L1071.71608,116.996455 L1074.40989,116.996455 L1074.40989,124.555765 Z M1076.6973,139.874764 L1076.6973,135.985748 L1080.28011,135.985748 L1080.28011,139.874764 L1082.11737,139.874764 L1082.11737,130.799922 L1080.28011,130.799922 L1080.28011,134.477272 L1076.6973,134.477272 L1076.6973,130.799922 L1074.86004,130.799922 L1074.86004,139.874764 L1076.6973,139.874764 Z M1067.9837,135.642848 L1067.9837,134.957049 C1067.99217,134.018662 1068.1488,133.324396 1068.45219,132.878486 C1068.75699,132.431164 1069.21419,132.208209 1069.82661,132.208209 C1070.39105,132.208209 1070.81015,132.340853 1071.08532,132.604731 C1071.36049,132.867197 1071.52135,133.293352 1071.56651,133.878962 L1073.40377,133.878962 C1073.30499,132.864375 1072.94234,132.076976 1072.31298,131.516766 C1071.68504,130.955144 1070.85531,130.674334 1069.82661,130.674334 C1069.08437,130.674334 1068.43243,130.852133 1067.87081,131.207733 C1067.30919,131.563332 1066.87739,132.072743 1066.57541,132.738786 C1066.27344,133.403418 1066.12245,134.171062 1066.12245,135.044538 L1066.12245,135.599104 C1066.12245,136.966469 1066.44983,138.041734 1067.10458,138.824899 C1067.76075,139.608064 1068.65962,139.998942 1069.80262,139.998942 C1070.84825,139.998942 1071.68927,139.719542 1072.32851,139.157921 C1072.96774,138.59771 1073.32193,137.828656 1073.39107,136.852169 L1071.55381,136.852169 C1071.51289,137.403912 1071.35343,137.813134 1071.07403,138.077011 C1070.79322,138.340889 1070.36989,138.472122 1069.80262,138.472122 C1069.17327,138.472122 1068.71325,138.246344 1068.42256,137.793378 C1068.13046,137.340412 1067.9837,136.623569 1067.9837,135.642848 L1067.9837,135.642848 Z M1070.49124,115.480924 L1068.65398,115.480924 L1068.65398,119.158274 L1065.07117,119.158274 L1065.07117,115.480924 L1063.23391,115.480924 L1063.23391,124.555765 L1065.07117,124.555765 L1065.07117,120.666749 L1068.65398,120.666749 L1068.65398,124.555765 L1070.49124,124.555765 L1070.49124,115.480924 Z M1063.39336,131.027111 C1062.89524,130.792867 1062.32798,130.674334 1061.69157,130.674334 C1061.05798,130.674334 1060.48789,130.782989 1059.97989,130.998889 C1059.47048,131.214788 1059.08102,131.515355 1058.81008,131.899176 C1058.53774,132.284409 1058.40227,132.721853 1058.40227,133.211508 C1058.40227,134.155539 1058.90886,134.904838 1059.92063,135.462226 C1060.29316,135.665426 1060.79692,135.872859 1061.43333,136.081703 C1062.07116,136.291958 1062.51142,136.490925 1062.75695,136.680013 C1063.00108,136.869102 1063.12384,137.140035 1063.12384,137.494223 C1063.12384,137.817367 1063.00108,138.069956 1062.75695,138.251989 C1062.51142,138.432611 1062.17134,138.522922 1061.7339,138.522922 C1060.55845,138.522922 1059.97001,138.021978 1059.97001,137.020091 L1058.12711,137.020091 C1058.12711,137.605701 1058.27527,138.122167 1058.5716,138.565255 C1058.86653,139.011165 1059.29691,139.36112 1059.85995,139.616531 C1060.42298,139.871942 1061.0481,139.998942 1061.7339,139.998942 C1062.72168,139.998942 1063.50766,139.775986 1064.09186,139.330076 C1064.67606,138.882754 1064.96675,138.267511 1064.96675,137.481523 C1064.96675,136.774558 1064.72827,136.184714 1064.25132,135.710582 C1063.77295,135.23786 1063.01095,134.841338 1061.96673,134.521017 C1061.39947,134.346039 1060.96908,134.159773 1060.67698,133.959395 C1060.38629,133.760429 1060.23954,133.513485 1060.23954,133.218563 C1060.23954,132.902475 1060.36371,132.647064 1060.61348,132.453742 C1060.86183,132.261831 1061.21179,132.164465 1061.66052,132.164465 C1062.12619,132.164465 1062.48743,132.280176 1062.74425,132.510186 C1063.00108,132.741608 1063.1309,133.064752 1063.1309,133.479618 L1064.96675,133.479618 C1064.96675,132.93493 1064.82987,132.449509 1064.5533,132.021943 C1064.27813,131.592966 1063.89149,131.261355 1063.39336,131.027111 L1063.39336,131.027111 Z M1054.79266,139.874764 L1056.62992,139.874764 L1056.62992,130.799922 L1054.79266,130.799922 L1054.79266,139.874764 Z M1061.77764,118.559963 C1061.67887,117.546787 1061.31621,116.759388 1060.68686,116.197767 C1060.05891,115.637557 1059.22918,115.356746 1058.20048,115.356746 C1057.45824,115.356746 1056.80631,115.534546 1056.24469,115.890145 C1055.68306,116.244334 1055.25127,116.755155 1054.94929,117.419787 C1054.64731,118.08442 1054.49632,118.853474 1054.49632,119.725539 L1054.49632,120.280105 C1054.49632,121.64747 1054.8237,122.722735 1055.47845,123.5059 C1056.13462,124.289066 1057.0335,124.681354 1058.17649,124.681354 C1059.22213,124.681354 1060.06315,124.400543 1060.70238,123.840333 C1061.34161,123.278712 1061.6958,122.509657 1061.76494,121.53317 L1059.92768,121.53317 C1059.88676,122.086325 1059.7273,122.494135 1059.4479,122.758012 C1059.16709,123.02189 1058.74376,123.154534 1058.17649,123.154534 C1057.54714,123.154534 1057.08712,122.927346 1056.79502,122.47438 C1056.50433,122.021414 1056.35758,121.30457 1056.35758,120.32385 L1056.35758,119.638051 C1056.36604,118.699663 1056.52267,118.006809 1056.82606,117.559487 C1057.13086,117.113577 1057.58806,116.890621 1058.20048,116.890621 C1058.76493,116.890621 1059.18403,117.021855 1059.45919,117.285732 C1059.73577,117.549609 1059.89523,117.974353 1059.94038,118.559963 L1061.77764,118.559963 Z M1056.81195,107.735347 L1056.81195,105.305417 L1060.33972,105.305417 L1060.33972,103.840686 L1056.81195,103.840686 L1056.81195,101.677456 L1060.93945,101.677456 L1060.93945,100.163336 L1054.97469,100.163336 L1054.97469,109.238178 L1060.95215,109.238178 L1060.95215,107.735347 L1056.81195,107.735347 Z M1069.34401,109.150689 L1067.41502,105.442294 C1067.94984,105.196762 1068.34777,104.867973 1068.61165,104.454518 C1068.87552,104.041063 1069.00676,103.524597 1069.00676,102.905121 C1069.00676,102.033055 1068.7203,101.357134 1068.1488,100.878768 C1067.5773,100.401813 1066.76591,100.163336 1065.71182,100.163336 L1062.39853,100.163336 L1062.39853,109.238178 L1064.2358,109.238178 L1064.2358,105.916427 L1065.69912,105.916427 L1067.37128,109.238178 L1069.34401,109.238178 L1069.34401,109.150689 Z M1067.16949,103.054698 C1067.16949,103.475209 1067.04249,103.803997 1066.7899,104.042474 C1066.53732,104.282363 1066.17889,104.400896 1065.71746,104.400896 L1064.2358,104.400896 L1064.2358,101.677456 L1065.71182,101.677456 C1066.2057,101.677456 1066.57259,101.800222 1066.81107,102.044344 C1067.04955,102.289877 1067.16949,102.627132 1067.16949,103.054698 L1067.16949,103.054698 Z M1082.0327,123.054345 L1082.0327,120.623005 L1085.56047,120.623005 L1085.56047,119.158274 L1082.0327,119.158274 L1082.0327,116.996455 L1086.1602,116.996455 L1086.1602,115.480924 L1080.19544,115.480924 L1080.19544,124.555765 L1086.1729,124.555765 L1086.1729,123.054345 L1082.0327,123.054345 Z M1091.46597,100.163336 L1091.46597,106.202882 C1091.45044,107.307781 1090.92551,107.860935 1089.89258,107.860935 C1089.39869,107.860935 1089.01205,107.724058 1088.73124,107.451714 C1088.45184,107.180781 1088.31214,106.74757 1088.31214,106.152082 L1088.31214,100.163336 L1086.47487,100.163336 L1086.47487,106.208527 C1086.48757,107.189247 1086.79943,107.959713 1087.41185,108.521334 C1088.02427,109.081544 1088.85118,109.362355 1089.89258,109.362355 C1090.9495,109.362355 1091.78347,109.074489 1092.39448,108.495934 C1093.00407,107.918791 1093.30887,107.132803 1093.30887,106.140793 L1093.30887,100.163336 L1091.46597,100.163336 Z M1094.56476,124.469688 L1092.63436,120.759882 C1093.16917,120.51576 1093.56852,120.185561 1093.8324,119.772106 C1094.09627,119.358651 1094.22751,118.843596 1094.22751,118.224119 C1094.22751,117.350643 1093.94105,116.676133 1093.36955,116.197767 C1092.79805,115.720812 1091.98667,115.480924 1090.93257,115.480924 L1087.61928,115.480924 L1087.61928,124.555765 L1089.45655,124.555765 L1089.45655,121.234015 L1090.91987,121.234015 L1092.59203,124.555765 L1094.56476,124.555765 L1094.56476,124.469688 Z M1092.39024,118.373697 C1092.39024,118.792796 1092.26324,119.122996 1092.01065,119.361473 C1091.75665,119.599951 1091.39964,119.719895 1090.93821,119.719895 L1089.45655,119.719895 L1089.45655,116.996455 L1090.93257,116.996455 C1091.42645,116.996455 1091.79334,117.119221 1092.03182,117.363343 C1092.2703,117.608876 1092.39024,117.946131 1092.39024,118.373697 L1092.39024,118.373697 Z M1100.5521,100.163336 L1100.5521,106.146438 L1096.96929,100.163336 L1095.13203,100.163336 L1095.13203,109.238178 L1096.96929,109.238178 L1096.96929,103.266364 L1100.54645,109.238178 L1102.38372,109.238178 L1102.38372,100.163336 L1100.5521,100.163336 Z M1109.42092,105.847283 L1109.42092,107.412203 C1109.12599,107.711358 1108.63493,107.860935 1107.9449,107.860935 C1107.2591,107.860935 1106.7384,107.618224 1106.3828,107.131392 C1106.0272,106.644559 1105.85081,105.926305 1105.85081,104.975217 L1105.85081,104.395252 C1105.85363,103.45122 1106.02014,102.741432 1106.34611,102.263066 C1106.67208,101.786111 1107.14903,101.546223 1107.77274,101.546223 C1108.2624,101.546223 1108.64763,101.667578 1108.92703,101.907467 C1109.20643,102.148766 1109.38705,102.529766 1109.46889,103.049054 L1111.25677,103.049054 C1111.1467,102.068333 1110.79393,101.320445 1110.19844,100.808213 C1109.60154,100.294569 1108.77463,100.037747 1107.71771,100.037747 C1106.95853,100.037747 1106.29672,100.214136 1105.73087,100.565502 C1105.16501,100.915457 1104.7318,101.423456 1104.43265,102.085266 C1104.13208,102.748487 1103.9825,103.533064 1103.9825,104.438996 L1103.9825,105.055651 C1103.99097,105.936183 1104.15325,106.703826 1104.46933,107.355758 C1104.78542,108.007691 1105.23416,108.505812 1105.81694,108.848711 C1106.39832,109.191611 1107.07424,109.362355 1107.84612,109.362355 C1108.58131,109.362355 1109.25017,109.252289 1109.85554,109.029333 C1110.45949,108.807789 1110.92657,108.494523 1111.25677,108.090946 L1111.25677,104.47004 L1107.74875,104.47004 L1107.74875,105.847283 L1109.42092,105.847283 Z M1115.08934,103.322809 C1114.79865,103.123842 1114.6519,102.876898 1114.6519,102.580566 C1114.6519,102.265888 1114.77749,102.010477 1115.02584,101.817156 C1115.2742,101.623834 1115.62415,101.527878 1116.07288,101.527878 C1116.53855,101.527878 1116.89979,101.643589 1117.15662,101.8736 C1117.41344,102.105022 1117.54326,102.426755 1117.54326,102.843032 L1119.37911,102.843032 C1119.37911,102.298344 1119.24223,101.812922 1118.96707,101.383945 C1118.69049,100.956379 1118.30385,100.624768 1117.80573,100.390524 C1117.3076,100.154869 1116.74034,100.037747 1116.10393,100.037747 C1115.47034,100.037747 1114.90025,100.146403 1114.39225,100.362302 C1113.88425,100.578202 1113.49338,100.878768 1113.22244,101.26259 C1112.9501,101.647822 1112.81463,102.085266 1112.81463,102.574921 C1112.81463,103.518953 1113.32122,104.268252 1114.3344,104.82564 C1114.70552,105.02884 1115.20929,105.234861 1115.84711,105.445117 C1116.48352,105.655372 1116.92378,105.854338 1117.16932,106.043427 C1117.41344,106.232515 1117.5362,106.503448 1117.5362,106.857637 C1117.5362,107.180781 1117.41344,107.433369 1117.16932,107.613991 C1116.92378,107.794613 1116.58371,107.884924 1116.14626,107.884924 C1114.97081,107.884924 1114.38238,107.385391 1114.38238,106.383504 L1112.53947,106.383504 C1112.53947,106.969114 1112.68763,107.484169 1112.98397,107.928668 C1113.27889,108.373168 1113.70928,108.723123 1114.27231,108.979945 C1114.83534,109.235355 1115.46046,109.362355 1116.14626,109.362355 C1117.13404,109.362355 1117.92003,109.1394 1118.50422,108.692078 C1119.08842,108.246168 1119.37911,107.629513 1119.37911,106.844937 C1119.37911,106.137971 1119.14063,105.548128 1118.66368,105.073995 C1118.18531,104.601274 1117.42473,104.203341 1116.37909,103.88443 C1115.81183,103.709453 1115.38144,103.521775 1115.08934,103.322809 L1115.08934,103.322809 Z M1123.05787,103.322809 C1122.76577,103.123842 1122.62043,102.876898 1122.62043,102.580566 C1122.62043,102.265888 1122.74461,102.010477 1122.99296,101.817156 C1123.24273,101.623834 1123.59127,101.527878 1124.04142,101.527878 C1124.50567,101.527878 1124.86691,101.643589 1125.12515,101.8736 C1125.38197,102.105022 1125.51038,102.426755 1125.51038,102.843032 L1127.34764,102.843032 C1127.34764,102.298344 1127.20936,101.812922 1126.93419,101.383945 C1126.65902,100.956379 1126.27238,100.624768 1125.77426,100.390524 C1125.27614,100.154869 1124.70887,100.037747 1124.07105,100.037747 C1123.43887,100.037747 1122.86737,100.146403 1122.35937,100.362302 C1121.85137,100.578202 1121.46191,100.878768 1121.18956,101.26259 C1120.91863,101.647822 1120.78317,102.085266 1120.78317,102.574921 C1120.78317,103.518953 1121.28834,104.268252 1122.30152,104.82564 C1122.67264,105.02884 1123.17782,105.234861 1123.81423,105.445117 C1124.45064,105.655372 1124.89231,105.854338 1125.13644,106.043427 C1125.38197,106.232515 1125.50474,106.503448 1125.50474,106.857637 C1125.50474,107.180781 1125.38197,107.433369 1125.13644,107.613991 C1124.89231,107.794613 1124.55083,107.884924 1124.11338,107.884924 C1122.93793,107.884924 1122.35091,107.385391 1122.35091,106.383504 L1120.50659,106.383504 C1120.50659,106.969114 1120.65475,107.484169 1120.95109,107.928668 C1121.24742,108.373168 1121.6764,108.723123 1122.24084,108.979945 C1122.80387,109.235355 1123.42758,109.362355 1124.11338,109.362355 C1125.10257,109.362355 1125.88856,109.1394 1126.47135,108.692078 C1127.05554,108.246168 1127.34764,107.629513 1127.34764,106.844937 C1127.34764,106.137971 1127.10917,105.548128 1126.6308,105.073995 C1126.15385,104.601274 1125.39185,104.203341 1124.34622,103.88443 C1123.77895,103.709453 1123.34997,103.521775 1123.05787,103.322809 L1123.05787,103.322809 Z M1138.61394,107.735347 L1138.61394,105.305417 L1142.14171,105.305417 L1142.14171,103.840686 L1138.61394,103.840686 L1138.61394,101.677456 L1142.74143,101.677456 L1142.74143,100.163336 L1136.77809,100.163336 L1136.77809,109.238178 L1142.75413,109.238178 L1142.75413,107.735347 L1138.61394,107.735347 Z M1159.95132,107.735347 L1159.95132,105.305417 L1163.47909,105.305417 L1163.47909,103.840686 L1159.95132,103.840686 L1159.95132,101.677456 L1164.07881,101.677456 L1164.07881,100.163336 L1158.11405,100.163336 L1158.11405,109.238178 L1164.0901,109.238178 L1164.0901,107.735347 L1159.95132,107.735347 Z M1160.23918,118.641808 C1159.94708,118.44143 1159.80033,118.194486 1159.80033,117.899564 C1159.80033,117.583476 1159.92592,117.329476 1160.17427,117.136154 C1160.42263,116.942832 1160.77258,116.846877 1161.22131,116.846877 C1161.68698,116.846877 1162.04822,116.961177 1162.30505,117.192599 C1162.56328,117.422609 1162.69169,117.745753 1162.69169,118.162031 L1164.52895,118.162031 C1164.52895,117.617343 1164.39067,117.13051 1164.1155,116.702944 C1163.83892,116.275378 1163.45228,115.943767 1162.95416,115.708112 C1162.45604,115.473868 1161.88877,115.356746 1161.25236,115.356746 C1160.61877,115.356746 1160.04868,115.465401 1159.54068,115.681301 C1159.03268,115.897201 1158.64181,116.197767 1158.37087,116.581589 C1158.09994,116.96541 1157.96306,117.402854 1157.96306,117.89392 C1157.96306,118.836541 1158.46965,119.587251 1159.48283,120.143228 C1159.85395,120.346427 1160.35772,120.55386 1160.99554,120.764115 C1161.63195,120.97296 1162.07221,121.173337 1162.31775,121.362426 C1162.56328,121.551514 1162.68463,121.822447 1162.68463,122.175224 C1162.68463,122.49978 1162.56328,122.752368 1162.31775,122.93299 C1162.07221,123.113612 1161.73214,123.203923 1161.29469,123.203923 C1160.11924,123.203923 1159.53081,122.702979 1159.53081,121.701092 L1157.6879,121.701092 C1157.6879,122.288113 1157.83606,122.803168 1158.1324,123.247667 C1158.42732,123.692167 1158.85771,124.042122 1159.42074,124.297532 C1159.98518,124.552943 1160.60889,124.681354 1161.29469,124.681354 C1162.28247,124.681354 1163.06846,124.458399 1163.65266,124.011077 C1164.23685,123.563756 1164.52895,122.948512 1164.52895,122.162524 C1164.52895,121.45697 1164.28907,120.865715 1163.81211,120.392994 C1163.33374,119.918861 1162.57316,119.52234 1161.52753,119.202018 C1160.96026,119.028451 1160.52987,118.840774 1160.23918,118.641808 L1160.23918,118.641808 Z M1170.95797,100.163336 L1170.95797,106.146438 L1167.37516,100.163336 L1165.5379,100.163336 L1165.5379,109.238178 L1167.37516,109.238178 L1167.37516,103.266364 L1170.95091,109.238178 L1172.78817,109.238178 L1172.78817,100.163336 L1170.95797,100.163336 Z M1183.21063,100.163336 L1177.40532,100.163336 L1177.40532,109.238178 L1179.24259,109.238178 L1179.24259,105.529783 L1182.76895,105.529783 L1182.76895,104.021308 L1179.24259,104.021308 L1179.24259,101.677456 L1183.21063,101.677456 L1183.21063,100.163336 Z M1176.25809,124.555765 L1176.25809,120.666749 L1179.8409,120.666749 L1179.8409,124.555765 L1181.67816,124.555765 L1181.67816,115.480924 L1179.8409,115.480924 L1179.8409,119.158274 L1176.25809,119.158274 L1176.25809,115.480924 L1174.42224,115.480924 L1174.42224,124.555765 L1176.25809,124.555765 Z M1185.40772,123.054345 L1185.40772,120.623005 L1188.93549,120.623005 L1188.93549,119.158274 L1185.40772,119.158274 L1185.40772,116.996455 L1189.53522,116.996455 L1189.53522,115.480924 L1183.57046,115.480924 L1183.57046,124.555765 L1189.54792,124.555765 L1189.54792,123.054345 L1185.40772,123.054345 Z M1186.29531,99.5833701 C1186.54367,99.5833701 1186.74828,99.5071702 1186.90773,99.3547704 C1187.06719,99.2023707 1187.14621,99.0161043 1187.14621,98.7945602 C1187.14621,98.5772494 1187.06719,98.390983 1186.91055,98.2343499 C1186.75392,98.0777168 1186.5479,98.0001058 1186.29531,98.0001058 C1186.04131,98.0001058 1185.83811,98.0777168 1185.68289,98.2343499 C1185.52767,98.390983 1185.45006,98.5772494 1185.45006,98.7945602 C1185.45006,99.011871 1185.52767,99.1967262 1185.68289,99.3519482 C1185.83811,99.5057591 1186.04131,99.5833701 1186.29531,99.5833701 L1186.29531,99.5833701 Z M1189.28404,99.5890145 C1189.53663,99.5890145 1189.74124,99.5114035 1189.89646,99.3547704 C1190.05168,99.1981373 1190.12929,99.011871 1190.12929,98.7945602 C1190.12929,98.5730161 1190.04745,98.3853386 1189.88658,98.2315277 C1189.72572,98.0763057 1189.52393,98.0001058 1189.28404,98.0001058 C1189.04697,98.0001058 1188.84518,98.0763057 1188.68008,98.2287055 C1188.51498,98.3811053 1188.43173,98.5687827 1188.43173,98.7945602 C1188.43173,99.011871 1188.51075,99.1981373 1188.66738,99.3547704 C1188.82543,99.5114035 1189.03004,99.5890145 1189.28404,99.5890145 L1189.28404,99.5890145 Z M1191.23137,100.163336 L1189.38705,100.163336 L1189.38705,106.202882 C1189.37153,107.307781 1188.84659,107.860935 1187.81366,107.860935 C1187.31977,107.860935 1186.93313,107.724058 1186.65373,107.451714 C1186.37433,107.180781 1186.23322,106.74757 1186.23322,106.152082 L1186.23322,100.163336 L1184.39737,100.163336 L1184.39737,106.208527 C1184.40866,107.189247 1184.72192,107.959713 1185.33434,108.521334 C1185.94677,109.081544 1186.77226,109.362355 1187.81366,109.362355 C1188.87058,109.362355 1189.70455,109.074489 1190.31556,108.495934 C1190.92516,107.918791 1191.23137,107.132803 1191.23137,106.140793 L1191.23137,100.163336 Z M1197.93837,124.469688 L1196.00938,120.759882 C1196.54419,120.51576 1196.94354,120.185561 1197.20742,119.772106 C1197.46988,119.358651 1197.60253,118.843596 1197.60253,118.224119 C1197.60253,117.350643 1197.31607,116.676133 1196.74457,116.197767 C1196.17307,115.720812 1195.36168,115.480924 1194.30759,115.480924 L1190.9943,115.480924 L1190.9943,124.555765 L1192.83157,124.555765 L1192.83157,121.234015 L1194.29489,121.234015 L1195.96705,124.555765 L1197.93837,124.555765 L1197.93837,124.469688 Z M1195.76526,118.373697 C1195.76526,118.792796 1195.63826,119.122996 1195.38567,119.361473 C1195.13167,119.599951 1194.77466,119.719895 1194.31323,119.719895 L1192.83157,119.719895 L1192.83157,116.996455 L1194.30759,116.996455 C1194.80147,116.996455 1195.16836,117.119221 1195.40684,117.363343 C1195.64532,117.608876 1195.76526,117.946131 1195.76526,118.373697 L1195.76526,118.373697 Z" id="VBRG---logo"></path>
        </g>
    </g>
</svg>