<svg viewBox="0 0 1200 1320" preserveAspectRatio="none" xmlns="http://www.w3.org/2000/svg"><path d="M1200 31.224v4.532c-.219.512-.587.574-.631 1.599-.586 13.07-1.13 26.279-1.673 39.473-.398 9.639-.62 20.008-1.213 28.762-.525 7.777-1.493 13.52-2.187 20.66-.534 5.51-.832 12.76-1.44 17.494-1.032 8.025 2.314 17.167 2.318 28.266.03 87.234.024 174.47.015 261.688-.002 13.986 4.036 28.856 2.468 39.908-.092.652-.133 2.018-.147 3.089-.254 18.347-1.506 32.457-2.93 45.93-.41 3.865-.899 7.994-1.048 12.65-.454 14.141-.786 28.546-1.113 42.92-.208 9.111 1.551 18.44 1.332 27.536-.252 10.4-.557 20.768-.926 30.951-.239 6.612-.6 12.992-.962 19.263-1.121 19.45.484 35.484.379 58.752-.013 2.638-.223 6.395-.484 7.59-.908 4.175-.93 10.757-.878 17.649.044 5.96.22 11.89.212 17.835-.052 31.261 3.561 62.539 3.4 93.754-.056 10.29-.422 20.551-.726 30.672-.353 11.765-.83 23.283-1.187 35.049-.4 13.162-2.557 26.465-2.905 39.72a9108.41 9108.41 0 0 0-.59 23.952c-.175 7.42-.549 15.056-.451 22.258.11 8.119.706 15.724.988 23.796.418 11.983.701 24.261 1.123 36.229.346 9.779.729 19.589 1.251 28.793.374 6.566-2.383 11.658-2.183 18.317.389 12.93.451 26.511.654 39.814.04 2.592.084 5.215.162 7.746.213 7.016.662 14.063.627 20.955-.088 17.23.216 34.055-.651 51.735-1.208 24.634-1.988 32.255-5.308 32.597-4.707.496-9.411 1.598-14.118 2.126-8.337.963-20.325 1.568-28.663 2.577-2.838.341-9.324 1.568-12.163 2.188-3.852.839-7.708 1.118-11.558 2.36-1.705.543-3.394 3.585-5.097 4.19-5.391 1.926-10.782 4.052-16.177 4.58-7.831.76-15.669-.45-23.5.372-8.603.916-17.204 3.09-25.805 4.967-1.72.373-3.464.59-5.145 3.12-4.953 7.451-9.922 10.509-14.965 10.199-7.919-.482-15.839 1.055-23.757 2.002-3.721.45-7.441 1.707-11.163 2.266-5.866.854-11.732 1.288-17.598 2.189-2.698.419-5.393 1.443-8.089 2.36-.364.123-.723 1.163-1.086 1.815-1.296 2.344-2.59 6.644-3.89 6.768-13.19 1.257-26.382 2.049-39.573 2.546-9.546.357-19.09.201-28.634.046-8.758-.124-17.515-.45-26.273-.9-5.08-.264-10.16-1.242-15.24-1.397-29.462-.9-58.922-16.516-88.383-17.214-7.88-.187-15.762.03-23.642.233-37.49.977-74.98 1.66-112.468 3.244-11.609.496-23.214 4.175-34.82 5.153-8.532.73-17.064-.512-25.596-.931-13.848-.699-27.697-1.444-41.543-2.158-14.314-.745-28.629-1.723-42.945-2.126-19.204-.544-38.409-.792-57.614-.854-10.999-.047-21.998.45-32.997.838-6.892.248-13.78 1.149-20.672 1.009-6.475-.14-12.948-1.428-19.424-1.863-4.649-.326-9.3-.077-13.95-.077-5.735 0-11.472-.155-17.207.046-12.678.45-25.354 1.227-38.032 1.537-3.35.093-6.7-1.381-10.05-1.475-8.61-.217-17.222-.17-25.832-.046-13.848.186-27.697.714-41.545.714-13.15 0-26.3-.404-39.45-.792-23.866-.73-47.735-1.242-71.604-2.639-4.875-.279-11.575-4.05-16.449-6.224-6.869-3.058-13.734-6.612-20.607-8.987-4.787-1.661-22.363-1.63-27.156-2.484-3.63-.667-7.261-1.226-10.887-2.577-.742-.279-1.7-2.064-2.163-6.13-2.577-22.756-4.644-48.275-5.847-77.938-.495-12.185-.919-24.727-1.609-36.166-.77-12.729 1.732-24.029 1.87-39.411.011-1.258-.125-2.794-.235-3.912-.792-8.056-1.567-31.029-2.404-38.774-.505-4.641-1.23-7.917-1.65-12.93-1.76-21.08 2.022-42.531.319-63.92-.836-10.525-1.826-20.599-2.4-32.007-.642-12.744.935-26.807.51-40.265-.326-10.291-.674-20.52-.989-30.827-.175-5.712-.283-11.564-.45-17.292-.304-10.275-.606-20.551-.952-30.734-.216-6.286-.512-12.386-.898-21.56-.015-.605-.105-4.191-.2-7.761-.054-2.111-.183-4.269-.16-6.318.111-9.08.297-18.114.39-27.21.05-5.2-.025-10.477-.04-15.724-.047-15.041 2.099-29.43 1.51-45.232-.875-23.345-.057-47.373.239-72.814.07-5.992.1-12.2-.022-18.084-.1-4.827-.427-9.422-.7-13.939-.191-3.213-.454-6.146-.693-9.173-.635-8.087-1.307-16.003-1.904-24.277-.35-4.827-.819-10.151-.832-15.32C.54 541.19.614 510.223.573 479.256c-.116-86.552 2.202-183.27 1.305-271.11C1.641 184.892 0 161.361 0 137.953c0-27.94-.021-55.895.04-83.82.044-20.862.298-23.345 2.015-23.47 12.303-.869 24.603-2.25 36.906-2.374 33.9-.326 67.8 0 101.699-.186 8.014-.047 16.026-1.32 24.04-1.49 4.283-.094 8.566 1.427 12.849 1.459 25.459.201 50.92.341 76.38.17 15.382-.093 30.765-.838 46.15-1.195 6.982-.17 13.964-.015 20.945-.186 6.569-.155 13.138-.932 19.705-.76 13.331.34 26.663 1.505 39.994 1.614 8.062.062 16.122-1.397 24.183-1.863 2.001-.124 4.004 1.428 6.006 1.32 3.773-.218 7.547-1.755 11.32-1.569 10.292.544 20.585 1.755 30.877 2.546 2.33.17 4.66-.481 6.99-.466 14.405.125 28.808.482 43.212.45 12.352-.03 24.706-.34 37.058-.76 10.856-.372 21.712-1.118 32.57-1.599 3.49-.155 6.98 14.777 10.47 14.777l-.18-3.787c.536-2.81 1.058-7.839 1.609-8.04 3.204-1.165 6.414-1.18 9.622-1.615 4.563-.605 9.128-1.568 13.69-1.738 2.636-.109 5.272 1.598 7.908 1.474 3.664-.186 7.329-1.63 10.995-1.909 2.42-.186 4.843 1.025 7.263 1.071 4.326.078 8.65-.45 12.973-.357 4.417.109 8.834.854 13.25.931 2.14.047 4.281-1.102 6.422-1.195 2.954-.14 5.91.326 8.864.326 2.934.016 5.87-.403 8.804-.295 2.306.093 4.612 1.071 6.92 1.01 2.448-.063 4.896-1.336 7.344-1.258 3.055.077 6.11 1.412 9.168 1.443 3.105.047 6.212-1.195 9.317-1.241 3.814-.047 7.63 1.133 11.441.698 3.44-.403 6.876 12.356 10.316 11.378 5.957-1.708 11.916-3.073 17.874-4.734 2.373-.652 4.745-1.568 7.116-2.655 5.945-2.763 11.886-6.426 17.835-8.35 6.982-2.251 13.97 11.827 20.955 10.275 6.376-1.428 12.754-3.135 19.13-4.594 6.925-1.6 13.853-2.779 20.78-4.688 3.758-1.04 7.51-3.54 11.271-4.796 5.154-1.723 10.31-2.996 15.467-4.238 3.813-.916 7.629-1.304 11.44-2.189 6.14-1.412 12.28-3.306 18.42-4.455 3.588-.667 7.183.544 10.77-.527 4.815-1.428 9.623-4.657 14.438-6.256 2.041-.683 4.095 1.226 6.142 1.289 5.108.124 10.215-.094 15.325-.249 1.155-.03 2.311-.605 3.467-.481 2.231.248 4.462 1.273 6.69 1.164C960.299 1.778 964.34.63 968.38.567c3.064-.046 6.129 1.428 9.193 1.366 3.435-.046 6.87-1.645 10.304-1.552 5.39.155 10.78 1.537 16.171 1.645 3.39.078 6.78-1.583 10.171-1.77 5.726-.34 11.452-.31 17.178-.092 3.354.108 6.71 1.288 10.063 1.226 5.66-.124 11.321-1.366 16.981-1.195 8.711.28 17.423 1.552 26.136 1.971 2.37.109 4.742-2.002 7.11-1.91 7.296.311 14.593 1.382 21.887 1.817 5.717.341 11.433.015 17.15.248 17.059.668 34.117 1.164 51.176 2.406 4.741.342 5.856 1.04 10.555 5.402 2.406 2.25 5.333-.792 7.01 20.551.06.792.35.388.535.544" fill-rule="evenodd"/></svg>