<?xml version="1.0" standalone="no"?>
<!DOCTYPE svg PUBLIC "-//W3C//DTD SVG 20010904//EN"
 "http://www.w3.org/TR/2001/REC-SVG-20010904/DTD/svg10.dtd">
<svg version="1.0" xmlns="http://www.w3.org/2000/svg"
 width="310.000000pt" height="310.000000pt" viewBox="0 0 310.000000 310.000000"
 preserveAspectRatio="xMidYMid meet">
<metadata>
Created by potrace 1.14, written by Peter Selinger 2001-2017
</metadata>
<g transform="translate(0.000000,310.000000) scale(0.100000,-0.100000)"
fill="#000000" stroke="none">
<path d="M0 1550 l0 -1550 1550 0 1550 0 0 1550 0 1550 -1550 0 -1550 0 0
-1550z m1777 939 c76 -28 126 -123 103 -194 -17 -52 -65 -103 -108 -115 -46
-13 -533 -34 -579 -25 -47 8 -108 72 -117 120 -17 91 29 172 111 194 23 6 133
15 245 20 300 12 314 12 345 0z m591 -425 c53 -37 66 -113 30 -172 l-22 -35
23 -39 c12 -22 21 -41 19 -43 -5 -5 -127 -9 -131 -4 -2 2 -14 19 -26 37 -18
26 -29 32 -50 30 -22 -3 -26 -8 -29 -40 -3 -36 -3 -36 -53 -40 -28 -1 -54 2
-59 7 -10 13 -25 289 -16 304 5 7 56 11 149 11 113 0 147 -3 165 -16z m-343
-30 c3 -20 3 -40 -2 -45 -5 -5 -52 -11 -106 -15 -133 -10 -125 -29 11 -25
l102 3 0 -41 0 -41 -82 0 c-46 0 -93 -3 -105 -6 -50 -14 -18 -23 85 -26 l107
-3 0 -40 0 -40 -158 -9 c-87 -4 -161 -6 -163 -3 -3 3 -8 75 -11 161 l-6 155
74 4 c41 1 113 4 160 5 l87 2 7 -36z m-350 -29 l0 -50 -102 -3 c-83 -2 -103
-6 -103 -17 0 -12 18 -15 95 -15 l95 0 0 -50 0 -50 -44 0 c-24 0 -64 -3 -90
-6 -45 -7 -46 -7 -46 -44 l0 -38 -51 -4 c-28 -1 -54 -1 -59 2 -7 5 -25 309
-18 311 7 3 274 16 298 15 23 -1 25 -5 25 -51z m-400 21 c59 -25 84 -111 50
-176 -22 -42 -50 -54 -140 -60 l-80 -5 -3 -37 -3 -38 -54 0 -53 0 -6 73 c-17
232 -17 236 7 242 20 4 73 8 200 13 26 1 63 -4 82 -12z m-397 -20 c54 -28 74
-60 79 -129 9 -112 -37 -165 -160 -182 -113 -15 -199 30 -218 115 -21 94 16
173 93 197 50 16 174 15 206 -1z m1716 -302 c3 -9 6 -35 6 -59 0 -51 -7 -55
-93 -55 -34 0 -93 -3 -130 -7 -53 -5 -67 -9 -65 -21 3 -13 21 -15 118 -13 63
2 126 4 140 5 23 1 25 -3 28 -50 l3 -51 -68 -6 c-37 -4 -97 -7 -133 -7 -69 0
-97 -10 -85 -30 5 -8 46 -11 149 -8 l141 3 0 -60 0 -60 -105 -6 c-58 -4 -157
-8 -220 -9 l-115 -2 -6 98 c-4 55 -7 152 -8 217 l-1 117 28 1 c15 1 86 5 157
8 230 13 252 13 259 -5z m-470 -65 c3 -34 4 -65 1 -69 -2 -4 -68 -11 -145 -15
-131 -6 -140 -8 -140 -27 0 -19 6 -20 121 -17 88 3 122 0 128 -9 4 -7 8 -35
10 -62 2 -46 0 -51 -24 -60 -15 -6 -68 -10 -119 -10 -108 0 -118 -6 -114 -71
l3 -44 -70 -6 c-38 -4 -74 -3 -79 1 -6 7 -29 420 -22 427 2 2 307 20 377 21
l66 2 7 -61z m-740 -122 l9 -147 136 2 136 3 8 -59 c5 -32 5 -62 0 -66 -4 -5
-103 -11 -219 -15 l-211 -7 -6 78 c-4 44 -9 141 -13 216 l-7 137 39 4 c22 2
57 4 79 3 l40 -1 9 -148z m-200 91 c3 -29 7 -127 8 -218 l3 -165 -75 0 -75 0
-6 76 c-4 42 -8 136 -10 210 l-4 134 35 6 c19 4 54 7 77 8 l42 1 5 -52z m-199
30 c2 -7 6 -106 10 -220 l7 -208 -81 0 -80 0 -3 73 -3 72 -85 -3 c-47 -1 -102
-5 -122 -8 l-38 -6 6 -67 c6 -66 6 -68 -17 -74 -13 -4 -50 -7 -81 -7 -57 0
-57 0 -62 33 -3 17 -8 116 -12 220 l-6 187 81 0 81 0 0 -70 0 -71 123 3 122 3
1 66 c1 37 5 72 8 78 10 16 145 15 151 -1z m1462 -443 c35 -21 59 -63 44 -78
-9 -9 -87 -5 -148 8 -37 8 -103 -1 -103 -15 0 -4 47 -10 104 -12 87 -2 109 -7
132 -24 62 -46 50 -130 -23 -160 -48 -21 -197 -29 -250 -15 -45 12 -83 51 -83
83 0 19 5 20 73 13 80 -8 187 -8 194 -1 17 17 -19 26 -99 26 -113 0 -155 17
-164 66 -13 70 17 106 106 125 61 13 183 4 217 -16z m-417 -13 c50 -25 75 -74
75 -147 0 -47 -5 -67 -24 -94 -34 -47 -69 -58 -212 -66 l-126 -7 -6 62 c-4 35
-7 107 -7 161 l0 98 63 4 c160 9 202 7 237 -11z m-328 -151 c4 -85 6 -156 5
-158 -2 -1 -35 -5 -74 -9 l-71 -7 -62 79 c-34 44 -66 81 -71 82 -5 2 -9 -32
-9 -76 0 -89 -2 -92 -70 -92 l-38 0 -7 98 c-3 53 -7 124 -8 157 l-2 60 70 7
c81 8 79 9 158 -94 l52 -68 3 84 c3 94 4 95 82 92 l35 -1 7 -154z m-492 110
c46 -23 70 -72 70 -141 0 -110 -63 -160 -200 -160 -123 0 -175 39 -187 138 -7
64 11 116 50 146 61 46 193 55 267 17z m-330 -40 l0 -49 -105 -7 c-84 -6 -105
-10 -105 -22 0 -13 15 -15 93 -12 l92 4 3 -46 3 -46 -38 -7 c-21 -3 -61 -6
-90 -6 l-52 0 -3 -42 -3 -43 -55 0 -55 0 -8 125 c-4 69 -6 139 -5 155 3 30 4
30 73 36 39 3 112 6 163 7 l92 2 0 -49z m1630 -257 c4 -20 8 -25 14 -16 14 23
54 33 81 20 27 -12 33 -46 13 -66 -16 -16 -71 -15 -87 1 -10 10 -14 9 -21 -4
-7 -13 -25 -16 -80 -16 -38 0 -70 3 -70 5 0 3 7 12 15 21 8 9 24 27 35 39 13
14 29 22 40 19 12 -3 20 2 23 15 8 28 31 17 37 -18z"/>
<path d="M1513 2403 c-25 -5 -28 -23 -17 -107 7 -47 28 -60 30 -17 2 37 14 37
44 1 31 -38 51 -35 30 6 -11 20 -12 29 -2 44 17 27 15 37 -8 60 -20 20 -32 22
-77 13z m62 -42 c0 -8 -8 -19 -17 -25 -22 -13 -44 5 -34 29 7 20 51 16 51 -4z"/>
<path d="M1646 2394 c-18 -18 -21 -85 -6 -115 8 -14 21 -19 53 -19 52 0 65 11
59 50 -3 24 -9 30 -28 30 -15 0 -24 -6 -24 -15 0 -8 5 -15 10 -15 6 0 10 -7
10 -15 0 -9 -9 -15 -25 -15 -18 0 -26 7 -31 24 -15 61 18 105 54 72 14 -12 22
-14 27 -6 21 34 -68 56 -99 24z"/>
<path d="M1364 2386 c-3 -7 -4 -42 -2 -77 3 -64 3 -64 35 -67 58 -6 72 10 71
78 -1 48 -5 63 -19 70 -26 15 -79 12 -85 -4z m76 -30 c0 -16 -27 -29 -41 -20
-19 11 -9 34 16 34 15 0 25 -6 25 -14z m0 -66 c0 -15 -7 -20 -25 -20 -18 0
-25 5 -25 20 0 15 7 20 25 20 18 0 25 -5 25 -20z"/>
<path d="M1205 2374 c4 -11 16 -41 27 -69 36 -92 57 -92 82 1 8 27 17 57 21
67 5 12 2 17 -8 17 -19 0 -28 -14 -36 -53 -9 -45 -25 -43 -41 5 -9 27 -22 44
-34 46 -15 3 -17 0 -11 -14z"/>
<path d="M2177 1973 c-4 -3 -7 -13 -7 -20 0 -11 15 -13 62 -11 50 2 63 6 66
21 3 15 -5 17 -56 17 -32 0 -62 -3 -65 -7z"/>
<path d="M1138 1932 c-30 -3 -38 -7 -38 -23 0 -16 7 -19 54 -19 35 0 58 5 66
15 10 12 9 16 -4 20 -29 9 -41 10 -78 7z"/>
<path d="M712 1904 c-14 -10 -22 -26 -22 -44 0 -55 53 -81 114 -56 33 14 36
18 36 55 0 30 -5 43 -19 51 -29 15 -83 12 -109 -6z"/>
<path d="M1847 1083 c-2 -5 -2 -29 1 -55 l4 -48 53 0 c35 0 59 5 69 16 19 18
21 65 4 82 -13 13 -124 17 -131 5z"/>
<path d="M1026 1044 c-20 -20 -20 -68 0 -88 18 -18 85 -21 115 -6 22 12 27 78
7 98 -18 18 -103 15 -122 -4z"/>
<path d="M2437 814 c-9 -10 2 -24 19 -24 8 0 14 7 14 15 0 15 -21 21 -33 9z"/>
</g>
</svg>
